<?xml version="1.0" encoding="utf-8"?>
<!-- Generator: Adobe Illustrator 28.0.0, SVG Export Plug-In . SVG Version: 6.00 Build 0)  -->
<svg version="1.1" id="Layer_1" xmlns="http://www.w3.org/2000/svg" xmlns:xlink="http://www.w3.org/1999/xlink" x="0px" y="0px"
	 viewBox="0 0 195.2892914 195.2893066" style="enable-background:new 0 0 195.2892914 195.2893066;" xml:space="preserve">
<style type="text/css">
	.st0{clip-path:url(#SVGID_00000147186474561593113920000012920175720409032602_);}
	.st1{fill:#D9A468;}
	.st2{opacity:0.2;fill:#231F20;}
</style>
<g>
	<g>
		<g>
			<defs>
				
					<ellipse id="SVGID_1_" transform="matrix(0.7071068 -0.7071068 0.7071068 0.7071068 -40.4457512 97.6446762)" cx="97.6446762" cy="97.6446762" rx="97.6446609" ry="97.6446838"/>
			</defs>
			<use xlink:href="#SVGID_1_"  style="overflow:visible;fill:#FFCE8A;"/>
			<clipPath id="SVGID_00000044152007764317286720000003383809289195165370_">
				<use xlink:href="#SVGID_1_"  style="overflow:visible;"/>
			</clipPath>
			<g style="clip-path:url(#SVGID_00000044152007764317286720000003383809289195165370_);">
				<path class="st1" d="M32.9707985,81.5024033h41.4155006c4.4725952,0,8.1319962-3.6594009,8.1319962-8.1320038l0,0
					c0-4.472702-3.6594009-8.132103-8.1319962-8.132103H32.9707985c-4.4727001,0-8.1320992,3.6594009-8.1320992,8.132103l0,0
					C24.8386993,77.8430023,28.4980984,81.5024033,32.9707985,81.5024033z"/>
				<path class="st1" d="M54.8787994,162.822998H83.827095c4.472702,0,8.1321259-3.6593933,8.1321259-8.1320953l0,0
					c0-4.4725952-3.6594238-8.1320038-8.1321259-8.1320038H54.8787994c-4.47258,0-8.132,3.6594086-8.132,8.1320038l0,0
					C46.7467995,159.1636047,50.4062195,162.822998,54.8787994,162.822998z"/>
				<g>
					<path class="st1" d="M-22.8053913,49.3046646h134.9216309c4.4725342,0,8.131958,3.6842079,8.131958,8.1871605
						c0,4.5028877-3.6594238,8.1870995-8.131958,8.1870995h-8.0654297c-4.4725952,0-8.132019,3.6842117-8.132019,8.1871567
						c0,4.5028915,3.6594238,8.1871033,8.132019,8.1871033h38.8765869c4.4725952,0,8.132019,3.6842041,8.132019,8.1871567
						c0,4.5028915-3.6594238,8.1871033-8.132019,8.1871033H90.6504211c-4.4725952,0-8.1321411,3.6842041-8.1321411,8.1871567
						c0,4.5028915,3.6595459,8.1870956,8.1321411,8.1870956h146.2036743c4.4725952,0,8.132019-3.6842041,8.132019-8.1870956
						c0-4.5029526-3.6594238-8.1871567-8.132019-8.1871567h4.2954712c4.4726562,0,8.1321411-3.6842117,8.1321411-8.1871033
						h-0.3508911c0-4.5029526-3.3085938-8.1871567-7.78125-8.1871567h-4.2954712c4.4725952,0,8.132019-3.6842117,8.132019-8.1871033
						c0-4.5029449-3.6594238-8.1871567-8.132019-8.1871567h-26.515686c4.4725952,0,8.1320801-3.6842117,8.1320801-8.1870995
						h-0.3508911c0-4.5029526-3.3085938-8.1871605-7.781189-8.1871605h3.3446045
						c4.4725952,0,8.1320801-3.6842117,8.1320801-8.1870995v-0.000061c0-4.5028877-3.6594849-8.1870995-8.1320801-8.1870995
						h-31.4627686c4.4725342,0,8.131958-3.6842079,8.131958-8.1870975c0-4.5029507-3.6594238-8.1871605-8.131958-8.1871605
						h-25.05896c4.4725952,0,8.132019-3.6842098,8.132019-8.1870985v-0.000061c0-4.5028896-3.6594238-8.1870995-8.132019-8.1870995
						h-53.1104736c-4.4725952,0-8.132019,3.6842098-8.132019,8.1870995v0.000061
						c0,4.5028887,3.6594238,8.1870985,8.132019,8.1870985h26.5552979c4.4724731,0,8.131897,3.6842098,8.131897,8.1871605
						c0,4.5028896-3.6594238,8.1870975-8.131897,8.1870975h-153.411499c-4.4725952,0-8.132019,3.6842117-8.132019,8.1870995
						v0.000061C-30.9374104,45.6204529-27.2779865,49.3046646-22.8053913,49.3046646z"/>
					<path class="st1" d="M263.5384827,138.4267578c0-4.4726562-3.3085938-8.131958-7.7810669-8.131958h-42.0744019
						c4.4725952,0,8.1320801-3.6595459,8.1320801-8.1321411s-3.6594849-8.131958-8.1320801-8.131958H-22.8053913
						c-4.4725952,0-8.132019,3.6593628-8.132019,8.131958s3.6594238,8.1321411,8.132019,8.1321411h180.3406372
						c4.4724731,0,8.1318359,3.6593018,8.1318359,8.131958c0,4.4725952-3.6593628,8.1321411-8.1318359,8.1321411h-49.696228
						c-4.4725952,0-8.132019,3.6593628-8.132019,8.131958c0,4.4727173,3.6594238,8.1321411,8.132019,8.1321411h13.2244873
						c4.4725952,0,8.131897,3.6593628,8.131897,8.131958c0,4.4727173-3.6593018,8.1321411-8.131897,8.1321411H86.4825134
						c-4.4725952,0-8.1321411,3.6593628-8.1321411,8.131958c0,4.4727173,3.6595459,8.1321411,8.1321411,8.1321411H219.285675
						c4.4725952,0,8.132019-3.6594238,8.132019-8.1321411c0-4.4725952-3.6594238-8.131958-8.132019-8.131958
						c4.4725952,0,8.132019-3.6594238,8.132019-8.1321411h-0.350769c0-4.4725952-3.3086548-8.131958-7.78125-8.131958h21.3565674
						c4.4726562,0,8.1320801-3.6594238,8.1320801-8.1321411c0-4.4725952-3.6594238-8.131958-8.1320801-8.131958h15.1151733
						c4.4724731,0,8.131958-3.6595459,8.131958-8.1321411H263.5384827z"/>
				</g>
			</g>
		</g>
		<path class="st2" d="M156.5616913,19.7777996c14.5442047,17.0505009,23.3287048,39.1633987,23.3287048,63.3309021
			c0,53.9277039-43.7169952,97.6445923-97.6445999,97.6445923c-22.1319962,0-42.540699-7.3674011-58.917099-19.7778931
			c17.9097996,20.9962006,44.5558014,34.3139038,74.3160019,34.3139038c53.927597,0,97.6445923-43.7170105,97.6445923-97.6446075
			C195.2892914,65.848999,180.0886993,37.6071014,156.5616913,19.7777996z"/>
	</g>
</g>
</svg>
