<?xml version="1.0" encoding="utf-8"?>
<!-- Generator: Adobe Illustrator 28.0.0, SVG Export Plug-In . SVG Version: 6.00 Build 0)  -->
<svg version="1.1" id="Layer_1" xmlns="http://www.w3.org/2000/svg" xmlns:xlink="http://www.w3.org/1999/xlink" x="0px" y="0px"
	 viewBox="0 0 104.074501 104.074501" style="enable-background:new 0 0 104.074501 104.074501;" xml:space="preserve">
<style type="text/css">
	.st0{fill:#FF614C;}
	.st1{fill:#EA2828;}
	.st2{fill:#F6322D;}
	.st3{opacity:0.12;fill:#231F20;}
</style>
<g>
	<g>
		
			<ellipse transform="matrix(0.9720009 -0.2349771 0.2349771 0.9720009 -10.7705612 13.6845655)" class="st0" cx="52.0372734" cy="52.0372238" rx="52.0372772" ry="52.0372238"/>
		<path class="st1" d="M84.1601944,11.0955c7.1115036,8.8991995,11.3659058,20.1814003,11.3659058,32.4587975
			c0,28.7394028-23.297905,52.0373001-52.0373001,52.0373001c-12.1225014,0-23.2768002-4.1453018-32.1227989-11.0955963
			c9.5352983,11.9321976,24.2092972,19.5784988,40.671299,19.5784988c28.7393951,0,52.0372009-23.2978973,52.0372009-52.0373001
			C104.074501,35.4202995,96.2858963,20.6226997,84.1601944,11.0955z"/>
		<path class="st0" d="M95.8555984,62.4812012c0-2.4155006-1.9581909-4.373703-4.3738022-4.373703
			c-2.4154968,0-4.3736954,1.9582024-4.3736954,4.373703c0,2.415596,1.9581985,4.3738022,4.3736954,4.3738022
			C93.8974075,66.8550034,95.8555984,64.8967972,95.8555984,62.4812012z"/>
		
			<ellipse transform="matrix(0.9793022 -0.2024037 0.2024037 0.9793022 -15.9565821 13.3998461)" class="st0" cx="57.5401268" cy="84.7194748" rx="12.9117146" ry="12.9117775"/>
		<circle class="st0" cx="41.2571983" cy="94.802597" r="2.9222999"/>
		<path class="st0" d="M96.0808945,29.2436008c0-1.5484009-1.2551956-2.8036003-2.8036957-2.8036003
			c-1.5484009,0-2.8036041,1.2551994-2.8036041,2.8036003c0,1.5485001,1.2552032,2.8036976,2.8036041,2.8036976
			C94.8256989,32.0472984,96.0808945,30.7921009,96.0808945,29.2436008z"/>
		<g>
			
				<ellipse transform="matrix(0.9709237 -0.2393893 0.2393893 0.9709237 -18.6078815 16.2378235)" class="st2" cx="57.5401268" cy="84.7194748" rx="11.6362247" ry="11.6362782"/>
			<path class="st3" d="M47.259697,86.2493973c0-6.4264984,5.2098007-11.6362991,11.6363029-11.6362991
				c3.1026993,0,5.9195976,1.2168045,8.0056953,3.1962051c-2.1194992-2.8665009-5.5228958-4.7261047-9.3615952-4.7261047
				c-6.4265022,0-11.6362,5.2097015-11.6362,11.6362991c0,3.3237991,1.3958969,6.3197021,3.6306,8.4401016
				C48.1055984,91.2270966,47.259697,88.8373032,47.259697,86.2493973z"/>
		</g>
		<g>
			<circle class="st2" cx="39.0254974" cy="35.1968994" r="8.0367994"/>
			<path class="st3" d="M31.9251995,36.2536011c0-4.4386005,3.5982113-8.0368004,8.0366993-8.0368004
				c2.1430016,0,4.0885086,0.8403988,5.5293007,2.2074986c-1.4637909-1.9797993-3.8144989-3.2641983-6.4657021-3.2641983
				c-4.4385986,0-8.0367985,3.5981998-8.0367985,8.0367985c0,2.2956009,0.9640999,4.3647995,2.5076008,5.8292999
				C32.5094109,39.6915016,31.9251995,38.0410004,31.9251995,36.2536011z"/>
		</g>
		<g>
			<path class="st2" d="M87.8047943,34.8903999c0-3.287899-2.6652985-5.9531994-5.9531937-5.9531994
				c-3.2879028,0-5.9533005,2.6653004-5.9533005,5.9531994s2.6653976,5.9533005,5.9533005,5.9533005
				C85.1394958,40.8437004,87.8047943,38.178299,87.8047943,34.8903999z"/>
			<path class="st3" d="M76.5919952,35.6731987c0-3.287899,2.6653061-5.9532986,5.9532013-5.9532986
				c1.5874023,0,3.0286026,0.6224995,4.0958023,1.6352005c-1.0843048-1.4666004-2.8255005-2.4179001-4.7893982-2.4179001
				c-3.2879028,0-5.9533005,2.6653004-5.9533005,5.9531994c0,1.7005005,0.7141113,3.2332993,1.8574982,4.3181
				C77.0246964,38.219799,76.5919952,36.9972,76.5919952,35.6731987z"/>
		</g>
		<g>
			<circle class="st2" cx="76.4802017" cy="70.1149979" r="2.8232999"/>
			<path class="st3" d="M73.9859009,70.4861984c0-1.5592957,1.2639999-2.8232956,2.8232956-2.8232956
				c0.7528,0,1.4362106,0.2951965,1.9423981,0.7754974c-0.5142975-0.6955032-1.3399963-1.146698-2.2713928-1.146698
				c-1.5593033,0-2.8233032,1.2639999-2.8233032,2.8232956c0,0.8065033,0.3386993,1.5334015,0.8808975,2.0478058
				C74.1911011,71.6939011,73.9859009,71.1140976,73.9859009,70.4861984z"/>
		</g>
		<g>
			<circle class="st2" cx="25.2231998" cy="45.6491013" r="3.6020999"/>
			<path class="st3" d="M22.0408001,46.1226997c0-1.989399,1.6126995-3.6021004,3.6020985-3.6021004
				c0.9605103,0,1.83251,0.3766022,2.4782009,0.989399c-0.6560993-0.8873978-1.7096004-1.4629974-2.8978996-1.4629974
				c-1.9894009,0-3.6021004,1.6126976-3.6021004,3.6021004c0,1.0289001,0.4321003,1.9562988,1.1238995,2.6126976
				C22.3027,47.6636009,22.0408001,46.9238014,22.0408001,46.1226997z"/>
		</g>
		<g>
			<path class="st2" d="M95.0839005,62.4812012c0-1.9892998-1.6127014-3.6020012-3.6021042-3.6020012
				c-1.989296,0-3.6020966,1.6127014-3.6020966,3.6020012c0,1.9893951,1.6128006,3.6020966,3.6020966,3.6020966
				C93.471199,66.0832977,95.0839005,64.4705963,95.0839005,62.4812012z"/>
			<path class="st3" d="M88.2994995,62.9547997c0-1.9892998,1.6127014-3.6020012,3.6019974-3.6020012
				c0.9605026,0,1.8325043,0.3766022,2.478302,0.9892998c-0.656105-0.8872986-1.7097015-1.4628983-2.8980026-1.4628983
				c-1.989296,0-3.6020966,1.6127014-3.6020966,3.6020012c0,1.0289993,0.4320984,1.956398,1.1239014,2.6128006
				C88.5612946,64.495697,88.2994995,63.7560005,88.2994995,62.9547997z"/>
		</g>
		<g>
			<path class="st2" d="M43.4888992,94.802597c0-1.2324982-0.9991989-2.2315979-2.2317009-2.2315979
				c-1.2324982,0-2.2317009,0.9990997-2.2317009,2.2315979c0,1.2325058,0.9992027,2.2317047,2.2317009,2.2317047
				C42.4897003,97.0343018,43.4888992,96.0351028,43.4888992,94.802597z"/>
			<path class="st3" d="M39.2854996,95.0960007c0-1.2324982,0.9991989-2.2315979,2.2317009-2.2315979
				c0.5950966,0,1.1352997,0.2332993,1.5353966,0.612999c-0.406498-0.5498047-1.0591888-0.9064026-1.7953987-0.9064026
				c-1.2324982,0-2.2317009,0.9990997-2.2317009,2.2315979c0,0.6375046,0.2677002,1.2121048,0.6963005,1.6187057
				C39.4477997,96.0506973,39.2854996,95.5923996,39.2854996,95.0960007z"/>
		</g>
		<g>
			<path class="st2" d="M40.4715996,14.915c0-1.2325001-0.9990997-2.2316999-2.2316017-2.2316999
				c-1.2324982,0-2.2316971,0.9991999-2.2316971,2.2316999s0.9991989,2.2316999,2.2316971,2.2316999
				C39.4724998,17.1466999,40.4715996,16.1474991,40.4715996,14.915z"/>
			<path class="st3" d="M36.2682991,15.2083998c0-1.2325001,0.9991989-2.2316999,2.2317009-2.2316999
				c0.5951004,0,1.1352997,0.2334003,1.535408,0.6129999C39.6288986,13.04,38.9762001,12.6833,38.2399979,12.6833
				c-1.2324982,0-2.2316971,0.9991999-2.2316971,2.2316999c0,0.6374998,0.2677002,1.2120008,0.6962967,1.618701
				C36.4305992,16.1630993,36.2682991,15.7047005,36.2682991,15.2083998z"/>
		</g>
		<g>
			<path class="st2" d="M54.1374969,18.2325001c0-2.3875999-1.9354973-4.3232002-4.3230896-4.3232002
				c-2.3876076,0-4.3232079,1.9356003-4.3232079,4.3232002s1.9356003,4.3230991,4.3232079,4.3230991
				C52.2019997,22.5555992,54.1374969,20.6201,54.1374969,18.2325001z"/>
			<path class="st3" d="M45.9948997,18.8008995c0-2.3875999,1.9356003-4.3231993,4.3232002-4.3231993
				c1.1526985,0,2.1993103,0.4520998,2.974308,1.1875c-0.7874107-1.0650005-2.0519104-1.7559004-3.4780006-1.7559004
				c-2.3876076,0-4.3232079,1.9356003-4.3232079,4.3232002c0,1.2348995,0.5186005,2.3479004,1.3488998,3.1357002
				C46.3092003,20.6501999,45.9948997,19.7623997,45.9948997,18.8008995z"/>
		</g>
		<g>
			<circle class="st2" cx="54.1374969" cy="48.2617989" r="3.4026"/>
			<path class="st3" d="M51.1314087,48.7092018c0-1.879303,1.5233917-3.4027023,3.4025917-3.4027023
				c0.907299,0,1.730999,0.3558006,2.3409996,0.9346008c-0.6198006-0.8381996-1.6150017-1.3819008-2.7375031-1.3819008
				c-1.8792,0-3.4025993,1.5233994-3.4025993,3.4025993c0,0.9719009,0.4081993,1.8479996,1.0617027,2.4680023
				C51.3787003,50.1646996,51.1314087,49.4659004,51.1314087,48.7092018z"/>
		</g>
		<g>
			<path class="st2" d="M95.5088959,29.2436008c0-1.2325001-0.9990997-2.2316017-2.2316971-2.2316017
				c-1.2324982,0-2.2315979,0.9991016-2.2315979,2.2316017c0,1.2325993,0.9990997,2.231699,2.2315979,2.231699
				C94.5097961,31.4752998,95.5088959,30.4762001,95.5088959,29.2436008z"/>
			<path class="st3" d="M91.3055954,29.5370998c0-1.2325001,0.9991989-2.231699,2.2317047-2.231699
				c0.5950012,0,1.1352997,0.2333984,1.5353012,0.612999c-0.4064026-0.549799-1.0591888-0.9064007-1.7954025-0.9064007
				c-1.2324982,0-2.2315979,0.9991016-2.2315979,2.2316017c0,0.6374989,0.2677002,1.2120991,0.6962967,1.6187
				C91.4677963,30.4916992,91.3055954,30.0333996,91.3055954,29.5370998z"/>
		</g>
		<g>
			<path class="st2" d="M15.1315994,32.8728981c0-1.2324982-0.9991903-2.231699-2.2316999-2.231699
				c-1.2324905,0-2.2316999,0.9992008-2.2316999,2.231699c0,1.232502,0.9992094,2.2316017,2.2316999,2.2316017
				C14.1324091,35.1044998,15.1315994,34.1054001,15.1315994,32.8728981z"/>
			<path class="st3" d="M10.9282999,33.1663017c0-1.232502,0.9991093-2.2317009,2.2315998-2.2317009
				c0.5951004,0,1.1352997,0.2333984,1.5354004,0.612999c-0.4065008-0.549799-1.0592003-0.9064007-1.7954006-0.9064007
				c-1.2324905,0-2.2316999,0.9992008-2.2316999,2.231699c0,0.6374016,0.2677002,1.2120018,0.6963005,1.6187019
				C11.0904999,34.1208992,10.9282999,33.6626015,10.9282999,33.1663017z"/>
		</g>
		<g>
			<path class="st2" d="M20.7008991,66.4521027c0-1.2325058-0.9990997-2.2317047-2.2315998-2.2317047
				s-2.231699,0.9991989-2.231699,2.2317047c0,1.2324982,0.9991989,2.2316971,2.231699,2.2316971
				S20.7008991,67.6846008,20.7008991,66.4521027z"/>
			<path class="st3" d="M16.4975986,66.7454987c0-1.2324982,0.9992008-2.2315979,2.2317009-2.2315979
				c0.5951099,0,1.1352997,0.2332993,1.5354004,0.6128998c-0.4064999-0.5496979-1.0592003-0.9064026-1.7954006-0.9064026
				c-1.2325001,0-2.231699,0.9991989-2.231699,2.2317047c0,0.6374969,0.2677002,1.211998,0.6962986,1.6186981
				C16.6598988,67.7002029,16.4975986,67.2417984,16.4975986,66.7454987z"/>
		</g>
	</g>
</g>
</svg>
