<?xml version="1.0" encoding="utf-8"?>
<!-- Generator: Adobe Illustrator 28.0.0, SVG Export Plug-In . SVG Version: 6.00 Build 0)  -->
<svg version="1.1" id="Layer_1" xmlns="http://www.w3.org/2000/svg" xmlns:xlink="http://www.w3.org/1999/xlink" x="0px" y="0px"
	 viewBox="0 0 67.9049988 67.9049988" style="enable-background:new 0 0 67.9049988 67.9049988;" xml:space="preserve">
<style type="text/css">
	.st0{fill:#484F60;}
	.st1{clip-path:url(#SVGID_00000165943845687105616920000000277721390293393025_);}
	.st2{fill:#9094A1;}
	.st3{opacity:0.2;fill:#231F20;}
</style>
<g>
	<circle class="st0" cx="33.9524994" cy="33.9524994" r="33.9524994"/>
	<g>
		<defs>
			<circle id="SVGID_1_" cx="33.9524994" cy="33.9524994" r="33.9524994"/>
		</defs>
		<use xlink:href="#SVGID_1_"  style="overflow:visible;fill:#53596B;"/>
		<clipPath id="SVGID_00000168110742241874830950000007655538989914513567_">
			<use xlink:href="#SVGID_1_"  style="overflow:visible;"/>
		</clipPath>
		<g style="clip-path:url(#SVGID_00000168110742241874830950000007655538989914513567_);">
			<path class="st2" d="M-12.2537746,31.167326c0,1.5551739,1.2723389,2.8275738,2.8275146,2.8275738h-1.4935303
				c-1.5552979,0-2.8276367,1.272522-2.8276367,2.8276978h0.1219482c0,1.5551758,1.1503906,2.8275757,2.7056885,2.8275757H-9.42626
				c-1.5551758,0-2.8275146,1.2723999-2.8275146,2.8276367c0,1.5551758,1.2723389,2.8276978,2.8275146,2.8276978h9.2199707
				c-1.5551758,0-2.8276367,1.2723999-2.8276367,2.8275757h0.1220703c0,1.5552368,1.1503906,2.8276367,2.7055664,2.8276367
				h-40.9089355c-1.5551758,0-2.8276367,1.2724609-2.8276367,2.8276978c0,1.5551758,1.2724609,2.8275757,2.8276367,2.8275757
				H9.5708103c-1.5551758,0-2.8276362,1.2723999-2.8276362,2.8275757c0,1.5553589,1.2724605,2.8277588,2.8276362,2.8277588
				h-8.022583c-1.5552979,0-2.8276367,1.2723999-2.8276367,2.8275795c0,1.5551758,1.2723389,2.8276978,2.8276367,2.8276978
				h35.2032471c1.5551758,0,2.8276367-1.272522,2.8276367-2.8276978c0-1.5551796-1.2724609-2.8275795-2.8276367-2.8275795
				h-9.2336445c-1.5551758,0-2.8275146-1.2723999-2.8275146-2.8277588c0-1.5551758,1.2723389-2.8275757,2.8275146-2.8275757
				h13.597414c1.5551758,0,2.8276367-1.2723999,2.8276367-2.8275757c0-1.5552368-1.2724609-2.8276978-2.8276367-2.8276978
				h-7.1682129c-1.5551758,0-2.8275166-1.2723999-2.8275166-2.8276367c0-1.5551758,1.2723408-2.8275757,2.8275166-2.8275757
				h2.8044434c1.5551758,0,2.8276367-1.272522,2.8276367-2.8276978c0-1.5552368-1.2724609-2.8276367-2.8276367-2.8276367H23.23353
				c-1.5552979,0-2.8276367-1.2723999-2.8276367-2.8275757s1.2723389-2.8276978,2.8276367-2.8276978h18.1774921
				c1.5551758,0,2.8277588-1.2723999,2.8277588-2.8275738c0-1.1452637-0.692749-2.1327515-1.6776123-2.5761108h-53.1375732
				C-11.5612698,29.0345745-12.2537746,30.0220623-12.2537746,31.167326z"/>
			<path class="st2" d="M54.7778435,23.6857109H18.1541843c-1.5551758,0-2.8275146-1.3288784-2.8275146-2.9529095
				c0-1.6240292,1.2723389-2.9527817,2.8275146-2.9527817h17.2801533c1.5551758,0,2.8276367-1.3286896,2.8276367-2.9527206
				s-1.2724609-2.9528456-2.8276367-2.9528456H30.835947c-1.5551758,0-2.8276367-1.3287525-2.8276367-2.9527836
				s1.2724609-2.9527826,2.8276367-2.9527826h12.024416c1.5551758,0,2.8275146-1.3288155,2.8275146-2.9528463
				s-1.2723389-2.9527199-2.8275146-2.9527199H-3.317373c-1.5551755,0-2.8276365,1.3286891-2.8276365,2.9527199
				s1.2724609,2.9528463,2.8276365,2.9528463c-1.5551755,0-2.8276365,1.328752-2.8276365,2.9527826h0.1220703
				c0,1.6240311,1.1503906,2.9527836,2.7055662,2.9527836h-7.4260254c-1.5551758,0-2.8276367,1.3288155-2.8276367,2.9528456
				s1.2724609,2.9527206,2.8276367,2.9527206h-5.2556152c-1.5552979,0-2.8276367,1.3287525-2.8276367,2.9527817h0.1219482
				c0,1.6240311,1.1503906,2.9529095,2.7056885,2.9529095h-11.4536133c-1.5551758,0-2.8276367,1.3286896-2.8276367,2.9527206
				c0,1.624094,1.2724609,2.9527836,2.8276367,2.9527836h16.8762207h53.1375732h12.2166748
				c1.5551758,0,2.8277588-1.3286896,2.8277588-2.9527836C57.6056023,25.0144005,56.3330193,23.6857109,54.7778435,23.6857109z"/>
		</g>
	</g>
	<path class="st3" d="M54.4388008,6.8771c5.0573006,5.9287004,8.1117973,13.6177006,8.1117973,22.0210991
		c0,18.7514019-15.2010994,33.9524994-33.9524994,33.9524994c-7.6956005,0-14.7921009-2.5618019-20.4864006-6.8771019
		c6.2276001,7.3007011,15.4927998,11.9314003,25.8407993,11.9314003c18.7514,0,33.9524994-15.2010002,33.9524994-33.9524994
		C67.9049988,22.8966999,62.6194992,13.0766001,54.4388008,6.8771z"/>
</g>
</svg>
