<?xml version="1.0" encoding="utf-8"?>
<!-- Generator: Adobe Illustrator 28.0.0, SVG Export Plug-In . SVG Version: 6.00 Build 0)  -->
<svg version="1.1" id="Layer_1" xmlns="http://www.w3.org/2000/svg" xmlns:xlink="http://www.w3.org/1999/xlink" x="0px" y="0px"
	 viewBox="0 0 153.1678925 153.1678925" style="enable-background:new 0 0 153.1678925 153.1678925;" xml:space="preserve">
<style type="text/css">
	.st0{clip-path:url(#SVGID_00000033353484440850354590000016031046457996968843_);}
	.st1{fill:#4F6EC1;}
	.st2{opacity:0.3;fill:#231F20;}
</style>
<g>
	<g>
		<g>
			<defs>
				
					<ellipse id="SVGID_1_" transform="matrix(0.7071068 -0.7071068 0.7071068 0.7071068 -31.7221355 76.5839386)" cx="76.5839233" cy="76.5839767" rx="76.5839386" ry="76.5839615"/>
			</defs>
			<use xlink:href="#SVGID_1_"  style="overflow:visible;fill:#6D94E2;"/>
			<clipPath id="SVGID_00000114041112321121115790000016800230016524602292_">
				<use xlink:href="#SVGID_1_"  style="overflow:visible;"/>
			</clipPath>
			<g style="clip-path:url(#SVGID_00000114041112321121115790000016800230016524602292_);">
				<path class="st1" d="M25.8593998,63.9234009h32.4826965c3.5079002,0,6.3781013-2.8701019,6.3781013-6.3781013l0,0
					c0-3.5079002-2.8702011-6.3779984-6.3781013-6.3779984H25.8593998c-3.5079994,0-6.3780994,2.8700981-6.3780994,6.3779984l0,0
					C19.4813004,61.053299,22.3514004,63.9234009,25.8593998,63.9234009z"/>
				<path class="st1" d="M43.0421982,127.7042007h22.7044983c3.5079041,0,6.378006-2.8702011,6.378006-6.3780975l0,0
					c0-3.5080032-2.8701019-6.3781052-6.378006-6.3781052H43.0421982c-3.5079994,0-6.3780975,2.8701019-6.3780975,6.3781052l0,0
					C36.6641006,124.8339996,39.5341988,127.7042007,43.0421982,127.7042007z"/>
				<path class="st1" d="M67.8292999,153.2164001h104.1591949c3.5080109,0,6.3780975-2.8701019,6.3780975-6.378006v-0.0000916
					c0-3.5079041-2.8700867-6.378006-6.3780975-6.378006H67.8292999c-3.5078964,0-6.3781013,2.8701019-6.3781013,6.378006v0.0000916
					C61.4511986,150.3462982,64.3214035,153.2164001,67.8292999,153.2164001z"/>
				<g>
					<path class="st1" d="M173.9724121,95.8934937c0-3.5109177-2.8702393-6.3834229-6.3780518-6.3834229h18.1732178
						c3.5079346,0,6.3780518-2.8725128,6.3780518-6.3834305c0-3.5107956-2.8701172-6.3833618-6.3780518-6.3833618h3.3691406
						c3.5079346,0,6.3780518-2.8725128,6.3780518-6.3833694h-0.2751465c0-3.5109177-2.5949707-6.3833656-6.1029053-6.3833656
						h-3.3691406c3.5079346,0,6.3780518-2.8725052,6.3780518-6.3834267c0-3.5108566-2.8701172-6.3834267-6.3780518-6.3834267
						h-20.7965088c3.5079346,0,6.3780518-2.8725052,6.3780518-6.3833046h-0.2751465
						c0-3.5109177-2.5949707-6.3834267-6.1029053-6.3834267h2.623291c3.5078125,0,6.3780518-2.8725052,6.3780518-6.3834267
						c0-3.5107937-2.8702393-6.3833027-6.3780518-6.3833027h-24.6767578c3.5078125,0,6.3781738-2.87257,6.3781738-6.3834267
						c0-3.5109186-2.8703613-6.3833656-6.3781738-6.3833656h-19.6540527c3.5079346,0,6.3781738-2.872509,6.3781738-6.3834267
						c0-3.5108573-2.8702393-6.3833046-6.3781738-6.3833046H81.6083984c-3.5079346,0-6.3780518,2.8724475-6.3780518,6.3833046
						c0,3.5109177,2.8701172,6.3834267,6.3780518,6.3834267h20.8275146c3.5080566,0,6.3781738,2.872447,6.3781738,6.3833656
						c0,3.5108566-2.8701172,6.3834267-6.3781738,6.3834267H-17.8864746c-3.5079346,0-6.3780518,2.872509-6.3780518,6.3833027
						c0,3.5109215,2.8701172,6.3834267,6.3780518,6.3834267H87.9342041c3.5078125,0,6.3779297,2.872509,6.3779297,6.3834267
						c0,3.5107994-2.8701172,6.3833046-6.3779297,6.3833046h-6.3258057c-3.5079346,0-6.3780518,2.87257-6.3780518,6.3834267
						c0,3.5109215,2.8701172,6.3834267,6.3780518,6.3834267h30.491333c3.5080566,0,6.3780518,2.872448,6.3780518,6.3833656
						c0,3.5108566-2.8699951,6.3833694-6.3780518,6.3833694H71.0982666c-3.5080566,0-6.3780518,2.8725662-6.3780518,6.3833618
						c0,3.5109177,2.8699951,6.3834305,6.3780518,6.3834305h-88.9847412c-3.5079346,0-6.3780518,2.8725052-6.3780518,6.3834229
						c0,3.5107956,2.8701172,6.3833084,6.3780518,6.3833084h185.480835
						C171.1021729,102.2768021,173.9724121,99.4042892,173.9724121,95.8934937z"/>
					<path class="st1" d="M206.6966553,108.5698929c0-3.5079346-2.5949707-6.3779907-6.1030273-6.3779907h-77.0368652
						c3.5079346,0,6.3780518,2.8700562,6.3780518,6.3779907c0,3.5079956-2.8701172,6.3781128-6.3780518,6.3781128H84.5794678
						c-3.5078125,0-6.3780518,2.8700562-6.3780518,6.3780518c0,3.5079346,2.8702393,6.3781128,6.3780518,6.3781128h10.3720703
						c3.5079346,0,6.3780518,2.8699875,6.3780518,6.3779831s-2.8701172,6.3781128-6.3780518,6.3781128h77.0371094
						c3.5078125,0,6.3779297-2.8701172,6.3779297-6.3781128h-0.2751465c0-3.5079956-2.5949707-6.3779831-6.1027832-6.3779831h16.75
						c3.5080566,0,6.3781738-2.8701782,6.3781738-6.3781128c0-3.5079956-2.8701172-6.3780518-6.3781738-6.3780518h11.8549805
						c3.5080566,0,6.3781738-2.8701172,6.3781738-6.3781128H206.6966553z"/>
				</g>
			</g>
		</g>
		<path class="st2" d="M122.7932968,15.5120001c11.4072037,13.3728991,18.2970047,30.7162971,18.2970047,49.671196
			c0,42.2962036-34.2878036,76.5839081-76.5839005,76.5839081c-17.3584023,0-33.3652039-5.7783051-46.2094002-15.5120087
			c14.0468979,16.4676056,34.9456978,26.912796,58.2869987,26.912796c42.2959976,0,76.5838013-34.287796,76.5838013-76.5838928
			C153.1678009,51.6461983,141.2458038,29.4957008,122.7932968,15.5120001z"/>
	</g>
</g>
</svg>
