<?xml version="1.0" encoding="utf-8"?>
<!-- Generator: Adobe Illustrator 28.0.0, SVG Export Plug-In . SVG Version: 6.00 Build 0)  -->
<svg version="1.1" id="Layer_1" xmlns="http://www.w3.org/2000/svg" xmlns:xlink="http://www.w3.org/1999/xlink" x="0px" y="0px"
	 viewBox="0 0 285.1235657 186.807251" style="enable-background:new 0 0 285.1235657 186.807251;" xml:space="preserve">
<style type="text/css">
	.st0{clip-path:url(#SVGID_00000167384022664122749740000010537814852637118646_);}
	.st1{fill:#BE873B;}
	.st2{opacity:0.2;fill:#231F20;}
	.st3{fill:#FDDA3E;}
</style>
<g>
	<g>
		<g>
			<g>
				<defs>
					
						<ellipse id="SVGID_1_" transform="matrix(0.7071068 -0.7071068 0.7071068 0.7071068 -23.628376 129.763382)" cx="144.8240662" cy="93.4036636" rx="93.4032364" ry="93.4033051"/>
				</defs>
				<use xlink:href="#SVGID_1_"  style="overflow:visible;fill:#EEBB53;"/>
				<clipPath id="SVGID_00000026848738256162146970000017743187750170975670_">
					<use xlink:href="#SVGID_1_"  style="overflow:visible;"/>
				</clipPath>
				<g style="clip-path:url(#SVGID_00000026848738256162146970000017743187750170975670_);">
					<path class="st1" d="M89.8433228,102.3816376l12.916748-0.2539291
						c4.2775574-0.0841904,7.7085342-3.6527252,7.6244507-7.9302292l-0.0001068-0.0000458
						c-0.0840836-4.277504-3.6526184-7.7084808-7.9301147-7.6244049l-12.9169083,0.2539978
						c-4.277504,0.0840759-7.7085342,3.6527176-7.6243439,7.930275l0,0
						C81.9971313,99.0348053,85.565773,102.4658279,89.8433228,102.3816376z"/>
					<path class="st1" d="M312.0609436,51.2903328l-0.337738,0.0072861
						c-0.0762329-4.3192444-3.3233643-7.7840195-7.6282349-7.6906891l-46.9652405,1.0179024
						c3.3780212-0.9075089,5.8566895-4.0301552,5.7850647-7.6749535c-0.0843811-4.2864418-3.6603088-7.724535-7.9466705-7.6402607
						l-57.4358673,1.1293831l27.2829285-0.5364799c4.2863617-0.0842743,7.7244873-3.6602116,7.6403046-7.9466934
						c-0.0844421-4.2864799-3.6604614-7.724534-7.9467468-7.6402187l-24.0155029,0.4722061
						c4.2865143-0.0842752,7.7243347-3.6603737,7.6400604-7.946734c-0.084198-4.2863598-3.6602936-7.724535-7.9467316-7.6403003
						l-50.8991241,1.0009582c-4.2863617,0.0842349-7.7244873,3.6602931-7.6403046,7.9466939
						c0.0843658,4.2863998,3.6603851,7.724535,7.9468231,7.6401396l44.9549408-0.8838425l-19.5054626,0.383544
						c4.2863617-0.0843153,7.8622894,3.3536596,7.9465637,7.6402197c0.0843658,4.2863197-3.3535309,7.8622169-7.6397247,7.9466534
						L28.3258018,33.7661362c-4.2863598,0.0842781-7.7244549,3.6602135-7.6400986,7.9466553l-0.0000401,0.0001221
						c0.0842342,4.2863579,3.6603737,7.7244148,7.9467335,7.6401367l182.3809052-3.5861588
						c3.626236,0.6123009,6.4385529,3.7530212,6.5060883,7.5723648c0.0762939,4.3191223-3.3834839,7.9292259-7.6885986,8.0225182
						l55.6016083-1.2049675L26.0452232,65.3450012c-4.3051147,0.0932083-7.7649021,3.703476-7.6886768,8.0225525
						c0.0762253,4.3191223,3.6609364,7.7766571,7.9659309,7.6833649l168.3398438-3.6483383
						c4.3044586-0.0928879,7.8887787,3.3644028,7.9651642,7.6833267c0.0761414,4.3190002-3.3835602,7.9290237-7.688446,8.0224762
						l-56.3992004,1.2223892c-4.3050385,0.0933685-7.7649078,3.7035217-7.6887665,8.0226364
						c0.0560303,3.1657944,2.0002289,5.8621521,4.7279358,7.0431747l-105.7104568,2.2073288
						c-4.2875271,0.0895462-7.7306538,3.677803-7.6514492,7.9738998c0.0792446,4.2960587,3.6521225,7.7377777,7.9396896,7.6481476
						l173.8579712-3.6303864c3.6768646,0.5508041,6.5560608,3.6968765,6.6314087,7.5320358
						c0.0840302,4.2771912-3.3462982,7.8456421-7.6233978,7.9302368l-148.0449524,2.911026
						c-4.2775841,0.0840302-7.708477,3.652771-7.6243629,7.9303131c0.084034,4.2774658,3.652729,7.7084045,7.930275,7.6243286
						l122.2906952-2.4045868c4.2770233-0.0833893,7.844986,3.3471832,7.9289398,7.6243744
						c0.084198,4.2774658-3.3466949,7.845993-7.6238708,7.9302216l-42.1990662,0.8297577
						c-4.2775879,0.084198-7.7085571,3.6527252-7.624527,7.930191c0.0842743,4.2776337,3.6528168,7.7086029,7.9302368,7.6244812
						l127.0101013-2.4973755c4.2775879-0.0841522,7.7085571-3.6527252,7.6244507-7.9302826
						c-0.084137-4.2774963-3.6526489-7.7084656-7.9302368-7.6244049l-60.6958008,1.1934662l69.8222046-1.3729553
						c4.2773438-0.0841217,7.7084045-3.6526031,7.6242065-7.9301605l-0.3354797,0.006485
						c-0.0840454-4.2774658-3.3172302-7.7150421-7.5947571-7.6309662l-13.8840637,0.2730408
						c4.2767029-0.0851746,7.7067261-3.6532135,7.6225281-7.9301605c-0.0841064-4.2771759-3.6522522-7.7080688-7.9293518-7.6244354
						l39.6394043-0.7794495c4.2775879-0.0840302,7.7086487-3.6526947,7.6245422-7.930191l-0.3355713,0.0065613
						c-0.084137-4.2776337-3.3171692-7.715004-7.5946655-7.630928l-38.9239197,0.7653198
						c3.8729553-0.5188904,6.8551025-3.9023743,6.7812805-7.9031906l0.0000916-0.0000763
						c-0.0594177-3.2264862-2.0898132-5.970459-4.9133911-7.0992355l19.9443665-0.4321594
						c4.3049622-0.0932922,7.7649841-3.703476,7.6885376-8.0226822c-0.0761414-4.31884-3.6604614-7.7761307-7.9651794-7.6832809
						l10.2148438-0.2214355c4.3049622-0.0932922,7.7648315-3.7035141,7.6885071-8.0225983l-0.3376465,0.00737
						c-0.0763855-4.3191605-3.3234558-7.7839432-7.6283264-7.690567l-57.9445801,1.2557526l42.4368286-0.9197388
						c4.3050537-0.0933304,7.7649231-3.7035217,7.6887512-8.0225983c-0.0762024-4.3190002-3.6609192-7.7764549-7.9657898-7.6833267
						l30.9543152-0.6708603C308.6772156,59.2196007,312.1372375,55.6094513,312.0609436,51.2903328z"/>
				</g>
			</g>
			<path class="st2" d="M199.7067413,17.8255367c14.2304535,16.0332928,23.0475922,37.0163498,23.5021057,60.1295929
				c1.0140533,51.5752792-39.9738464,94.2072525-91.549057,95.2214737
				c-21.1665344,0.4161377-40.823616-6.2460632-56.7188721-17.8072357
				c17.523407,19.743515,43.2574005,31.9791718,71.7193756,31.4194641
				c51.5751648-1.0140991,92.5631104-43.6461945,91.5488892-95.2214127
				C237.6113739,61.1587257,222.5426636,34.4346542,199.7067413,17.8255367z"/>
		</g>
	</g>
	<g>
		<path class="st3" d="M284.9669495,70.1511383c-2.102478-12.9640808-25.0646667-21.0949821-59.1535034-23.2403336
			c1.3530731,2.4077148,3.1843414,5.9017525,5.0406494,10.1595383c10.3927307,3.0403442,16.8175964,7.5299835,17.7521057,13.2920074
			c2.7455902,16.9295578-42.9086761,38.418869-101.9714508,47.9976578
			c-59.0629349,9.5787125-109.1687622,3.6195221-111.9143372-13.3100739
			c-1.0827789-6.6765747,5.3666039-14.0620346,17.192688-21.146698c0.0898705-0.7129593,0.250248-1.9475479,0.4610977-3.4169235
			c0.2924271-2.0379791,0.6827354-4.5180969,1.1145744-6.6828918C19.1277409,86.9924393-2.0448349,102.766861,0.1565812,116.3411865
			c3.6560674,22.5435181,70.3768921,30.4786224,149.0251007,17.7236176
			C227.8297729,121.3097992,288.6229553,92.6946487,284.9669495,70.1511383z"/>
	</g>
</g>
</svg>
