<?xml version="1.0" encoding="utf-8"?>
<!-- Generator: Adobe Illustrator 28.0.0, SVG Export Plug-In . SVG Version: 6.00 Build 0)  -->
<svg version="1.1" id="Layer_1" xmlns="http://www.w3.org/2000/svg" xmlns:xlink="http://www.w3.org/1999/xlink" x="0px" y="0px"
	 viewBox="0 0 132.6921997 132.6921997" style="enable-background:new 0 0 132.6921997 132.6921997;" xml:space="preserve">
<style type="text/css">
	.st0{clip-path:url(#SVGID_00000103234418693566994360000001310815748656543901_);}
	.st1{fill:#49CFD2;}
	.st2{opacity:0.2;fill:#231F20;}
</style>
<g>
	<g>
		<defs>
			<circle id="SVGID_1_" cx="66.3460999" cy="66.3460999" r="66.3460999"/>
		</defs>
		<use xlink:href="#SVGID_1_"  style="overflow:visible;fill:#64F2EE;"/>
		<clipPath id="SVGID_00000025441339398603279450000000404188352066944909_">
			<use xlink:href="#SVGID_1_"  style="overflow:visible;"/>
		</clipPath>
		<g style="clip-path:url(#SVGID_00000025441339398603279450000000404188352066944909_);">
			<path class="st1" d="M70.1194992,121.6832962h68.7903061c3.0390015,0,5.5254974,2.4865036,5.5254974,5.5255051l0,0
				c0,3.0390015-2.486496,5.5254059-5.5254974,5.5254059H70.1194992c-3.0389023,0-5.5253983-2.4864044-5.5253983-5.5254059l0,0
				C64.594101,124.1697998,67.0805969,121.6832962,70.1194992,121.6832962z"/>
			<g>
				<path class="st1" d="M123.2328568,110.6324539H88.1629105c3.0389404,0,5.5252686,2.4864502,5.5252686,5.5254517
					s-2.4863281,5.5253906-5.5252686,5.5253906h35.0699463c3.0389404,0,5.5253983-2.4863892,5.5253983-5.5253906
					S126.2717972,110.6324539,123.2328568,110.6324539z"/>
				<path class="st1" d="M222.2779083,99.5816116h-79.9396973c3.0389404,0,5.2869873-2.4865112,5.2869873-5.5255127h0.2384033
					c0-3.0390015-2.4864502-5.5253906-5.5253906-5.5253906h18.0164795c3.0389404,0,5.5253906-2.4865112,5.5253906-5.5255127
					s-2.4864502-5.5253906-5.5253906-5.5253906h2.9187012c3.0389404,0,5.2869873-2.4864502,5.2869873-5.5254517h0.2384033
					c0-3.0390015-2.4864502-5.5254517-5.5253906-5.5254517h-2.9187012c3.0389404,0,5.5253906-2.4864464,5.5253906-5.5253868
					c0-3.0390015-2.4864502-5.5255127-5.5253906-5.5255127h35.2250977c3.0390625,0,5.5255127-2.4863892,5.5255127-5.5253906
					s-2.4864502-5.5255127-5.5255127-5.5255127h-22.3809814c3.0389404,0,5.2869873-2.4863892,5.2869873-5.5253906h0.2384033
					c0-3.0390015-2.4864502-5.5255127-5.5253906-5.5255127h-10.2701416c3.0389404,0,5.5253906-2.4863911,5.5253906-5.5253925
					s-2.4864502-5.5255127-5.5253906-5.5255127h-14.5109863c3.0388184,0,5.2868652-2.4863892,5.2868652-5.5253906h0.2385254
					c0-3.0390005-2.4865723-5.5253897-5.5253906-5.5253897c3.0388184,0,5.5253906-2.4865112,5.5253906-5.5255127
					s-2.4865723-5.5253906-5.5253906-5.5253906H58.1825676c-3.0390625,0-5.5256348,2.4863892-5.5256348,5.5253906
					s2.4865723,5.5255127,5.5256348,5.5255127h23.4964561c3.0389404,0,5.5253906,2.4863892,5.5253906,5.5253897
					s-2.4864502,5.5253906-5.5253906,5.5253906h-8.9854736c-3.0390625,0-5.5256348,2.4865112-5.5256348,5.5255127
					s2.4865723,5.5253925,5.5256348,5.5253925h33.7667236c3.0389404,0,5.5252686,2.4865112,5.5252686,5.5255127
					s-2.4863281,5.5253906-5.5252686,5.5253906h-71.56604c-3.0389404,0-5.5253906,2.4865112-5.5253906,5.5255127
					s2.4865723,5.5253906,5.5253906,5.5253906h26.1201172c-3.0389404,0-5.5253906,2.4865112-5.5253906,5.5255127
					c0,3.0389404,2.4864502,5.5253868,5.5253906,5.5253868h35.520504c3.0389404,0,5.5253906,2.4864502,5.5253906,5.5254517
					s-2.4864502,5.5254517-5.5253906,5.5254517H70.1195755c-3.0390625,0-5.5253906,2.4863892-5.5253906,5.5253906
					s2.4863281,5.5255127,5.5253906,5.5255127h5.4801025c3.0389404,0,5.5252686,2.4863892,5.5252686,5.5253906
					s-2.4863281,5.5255127-5.5252686,5.5255127H61.5924797c-3.0390625,0-5.5256348,2.4863892-5.5256348,5.5253906
					s2.4865723,5.5253906,5.5256348,5.5253906h160.6854248c3.0389404,0,5.5253906-2.4863892,5.5253906-5.5253906
					S225.3168488,99.5816116,222.2779083,99.5816116z"/>
			</g>
		</g>
	</g>
	<path class="st2" d="M106.3780975,13.4383001c9.8823013,11.5852003,15.8511047,26.610199,15.8511047,43.0310974
		c0,36.6419983-29.7042007,66.3460999-66.3460999,66.3460999c-15.037899,0-28.9048977-5.0058975-40.0320969-13.4384003
		c12.1690998,14.2662048,30.2740993,23.3151016,50.4951019,23.3151016c36.6418991,0,66.345993-29.7042007,66.345993-66.3460999
		C132.6920929,44.7420998,122.3638992,25.5527,106.3780975,13.4383001z"/>
</g>
</svg>
