<?xml version="1.0" encoding="utf-8"?>
<!-- Generator: Adobe Illustrator 28.0.0, SVG Export Plug-In . SVG Version: 6.00 Build 0)  -->
<svg version="1.1" id="Layer_1" xmlns="http://www.w3.org/2000/svg" xmlns:xlink="http://www.w3.org/1999/xlink" x="0px" y="0px"
	 viewBox="0 0 89.5389023 89.5389023" style="enable-background:new 0 0 89.5389023 89.5389023;" xml:space="preserve">
<style type="text/css">
	.st0{clip-path:url(#SVGID_00000168823971631702532450000012877876094121071528_);fill:#FFA284;}
	.st1{opacity:0.2;fill:#231F20;}
</style>
<g>
	<g>
		<defs>
			
				<ellipse id="SVGID_1_" transform="matrix(0.973249 -0.2297527 0.2297527 0.973249 -9.0882826 11.4835234)" cx="44.7694244" cy="44.769474" rx="44.7694206" ry="44.7694778"/>
		</defs>
		<use xlink:href="#SVGID_1_"  style="overflow:visible;fill:#F9C5C2;"/>
		<clipPath id="SVGID_00000090255517786309399900000014966214986017792150_">
			<use xlink:href="#SVGID_1_"  style="overflow:visible;"/>
		</clipPath>
		<path style="clip-path:url(#SVGID_00000090255517786309399900000014966214986017792150_);fill:#FFA284;" d="
			M72.2296906,29.9113827h-48.291748c-2.0506592,0-3.7284546-1.6777954-3.7284546-3.7285156
			c0-2.0506592,1.6777954-3.7284546,3.7284546-3.7284546h22.7853985c2.0506592,0,3.7284546-1.6779175,3.7284546-3.7285156
			c0-2.0507202-1.6777954-3.7285147-3.7284546-3.7285147h-6.0633545c-2.0506592,0-3.7284546-1.6777954-3.7284546-3.7285156
			c0-2.0506592,1.6777954-3.7284546,3.7284546-3.7284546H56.515152c2.0506592,0,3.7284546-1.6778564,3.7284546-3.7285159
			c0-2.0507202-1.6777954-3.7285156-3.7284546-3.7285156H-4.3743114c-2.0506592,0-3.7284546,1.6777954-3.7284546,3.7285156
			c0,2.0506594,1.6777954,3.7285159,3.7284546,3.7285159c-2.0505981,0-3.7284546,1.6777954-3.7284546,3.7284546h0.1608887
			c0,2.0507202,1.5169678,3.7285156,3.5675659,3.7285156h-9.791748c-2.0507202,0-3.7285156,1.6777945-3.7285156,3.7285147
			c0,2.0505981,1.6777954,3.7285156,3.7285156,3.7285156h-6.9302368c-2.0506592,0-3.7285156,1.6777954-3.7285156,3.7284546
			h0.1609497c0,2.0507202,1.5169067,3.7285156,3.5675659,3.7285156h-15.1024799
			c-2.0505981,0-3.7285156,1.6777954-3.7285156,3.7285175c0,2.0505981,1.6779175,3.7285156,3.7285156,3.7285156h23.7694721
			c-2.0505981,0-3.7284546,1.6777954-3.7284546,3.7284546c0,2.0505981,1.6778564,3.7285156,3.7284546,3.7285156h-1.9694824
			c-2.0505981,0-3.7285156,1.6777954-3.7285156,3.7285156h0.1608887c0,2.0505981,1.5170288,3.7283936,3.567627,3.7283936h1.9694824
			c-2.0505981,0-3.7284546,1.6779175-3.7284546,3.7285156c0,2.0506592,1.6778564,3.7284546,3.7284546,3.7284546h12.1573486
			c-2.0507202,0-3.7285154,1.6779175-3.7285154,3.7285156h0.1608884c0,2.0507202,1.5169067,3.7285156,3.567627,3.7285156
			h-53.9421997c-2.0507202,0-3.7285156,1.6777954-3.7285156,3.7285156c0,2.0506592,1.6777954,3.7284546,3.7285156,3.7284546
			h66.8341675c-2.0505981,0-3.7285156,1.6777954-3.7285156,3.7285156s1.6779175,3.7285156,3.7285156,3.7285156H2.0413988
			c-2.0506592,0-3.7284546,1.6777954-3.7284546,3.7285156c0,2.0506592,1.6777954,3.7284546,3.7284546,3.7284546h46.4187622
			c2.0506592,0,3.7285156-1.6777954,3.7285156-3.7284546c0-2.0507202-1.6778564-3.7285156-3.7285156-3.7285156h-12.175354
			c-2.0507202,0-3.7285156-1.6777954-3.7285156-3.7285156s1.6777954-3.7285156,3.7285156-3.7285156h17.9293823
			c2.0506592,0,3.7285156-1.6777954,3.7285156-3.7284546c0-2.0507202-1.6778564-3.7285156-3.7285156-3.7285156h-9.4519653
			c-2.0505981,0-3.7283936-1.6777954-3.7283936-3.7285156c0-2.0505981,1.6777954-3.7285156,3.7283936-3.7285156h3.697937
			c2.0506592,0,3.7285156-1.6777954,3.7285156-3.7284546c0-2.0505981-1.6778564-3.7285156-3.7285156-3.7285156H30.6355152
			c-2.0507202,0-3.7285156-1.6777954-3.7285156-3.7283936c0-2.0507202,1.6777954-3.7285156,3.7285156-3.7285156h23.9686871
			c2.0506592,0,3.7284546-1.6779175,3.7284546-3.7285156c0-2.0506592-1.6777954-3.7284546-3.7284546-3.7284546h17.6254883
			c2.0505981,0,3.7283936-1.6779175,3.7283936-3.7285156C75.9580841,31.5891781,74.2802887,29.9113827,72.2296906,29.9113827z"/>
	</g>
	<path class="st1" d="M71.7825012,9.0679998c6.6684952,7.8175993,10.6960983,17.9561996,10.6960983,29.0368004
		c0,24.7254982-20.0439796,44.7694969-44.7695007,44.7694969c-10.1472988,0-19.5045986-3.3778992-27.0130997-9.0681
		c8.2116003,9.6267014,20.4286003,15.7327042,34.0734024,15.7327042c24.725502,0,44.7695007-20.0438995,44.7695007-44.7694016
		C89.5389023,30.1914005,82.5695038,17.2425995,71.7825012,9.0679998z"/>
</g>
</svg>
