<?xml version="1.0" encoding="utf-8"?>
<!-- Generator: Adobe Illustrator 28.0.0, SVG Export Plug-In . SVG Version: 6.00 Build 0)  -->
<svg version="1.1" id="Layer_1" xmlns="http://www.w3.org/2000/svg" xmlns:xlink="http://www.w3.org/1999/xlink" x="0px" y="0px"
	 viewBox="0 0 488.5172119 606.1306152" style="enable-background:new 0 0 488.5172119 606.1306152;" xml:space="preserve">
<style type="text/css">
	.st0{fill-rule:evenodd;clip-rule:evenodd;fill:#567FCA;}
	.st1{fill:#567FCA;}
</style>
<g>
	<path class="st0" d="M243.3192749,102.5974121c-1.8049316,0.0001984-3.5253296,0.743187-4.7574005,2.0717316
		c-1.0020599,1.0762558-24.7472839,26.810318-43.7616577,66.6139832
		c-10.5093079,21.9810333-17.4463196,63.263031-20.7420349,96.7320099
		c-1.2979889,13.0124817,1.1101379,15.3077087-9.6406555,33.3312378l-21.602005,36.2153015
		c-5.000824,7.6936035-5.8021851,10.8532715-6.8199615,22.6882324l-3.3853455,62.9103394
		c-0.1852264,3.6335449,2.6101685,6.7296448,6.2437134,6.9148865c2.5213013,0.1284485,4.7834015-1.1785889,5.9941559-3.2047119
		l15.1785126-23.4185486c1.7552338-3.9432373,4.8815002-7.2008057,9.2685547-9.8280334
		c8.3559113-5.004303,14.9450378-0.8814087,19.7754822,5.8526001c6.1365204,8.5558472,10.5761261,23.2892151,16.8756409,33.9405518
		c6.5625153,10.2252197,18.819458,8.9668579,33.5241699,8.9668579h4.7883606h4.7882843
		c14.7044373,0,26.9617004,1.2583618,33.5241699-8.9668579c6.2994385-10.6513367,10.7389221-25.3847046,16.8757019-33.9405518
		c4.8301697-6.7340088,11.4194946-10.8569031,19.7754822-5.8526001c4.3869324,2.6272278,7.5131836,5.8847961,9.2683411,9.8280334
		l15.1786499,23.4185486c1.2107544,2.026123,3.4726562,3.3331604,5.9942322,3.2047119
		c3.6334839-0.1852417,6.428833-3.2813416,6.2437134-6.9148865l-3.3854065-62.9103394
		c-1.0178223-11.8349609-1.8191833-14.9946289-6.8200378-22.6882324l-21.6021423-36.2153015
		c-10.7506409-18.0235291-8.3426514-20.3187561-9.6405029-33.3312378
		c-3.2957458-33.4689789-10.2327271-74.7509766-20.7421875-96.7320099
		c-19.0143738-39.8036652-42.7594604-65.5377274-43.7616577-66.6139832
		c-1.2318573-1.3285446-2.9524689-2.0715332-4.7572479-2.0717316c-0.3164368,0-0.6300964,0.0232162-0.9393921,0.0682907
		C243.9494934,102.6206284,243.635498,102.5974121,243.3192749,102.5974121L243.3192749,102.5974121z M244.2588043,429.5066223
		l-21.8047333-0.0004272c-2.2944031-0.0022888-4.3344421-1.0421143-5.3225098-2.7094421
		c-1.5916138-2.6915283-3.1411285-5.4675903-4.6449738-8.320282c-8.0439453-16.0014038,1.9338531-15.1344604,7.0034027-14.9693909
		h24.7688141h24.7686615c5.0694885-0.1650696,15.0472717-1.0320129,7.00354,14.9693909
		c-1.5038452,2.8526917-3.0533752,5.6287537-4.6451721,8.320282c-0.9880676,1.6673279-3.0280457,2.7071533-5.3224487,2.7094421
		L244.2588043,429.5066223L244.2588043,429.5066223z M244.2588043,390.5104065l-25.0990295,0.0001526
		c-22.0004425,0.0003052-22.4702454-11.0410767-25.2401581-19.1838684
		c-3.678894-13.1767273-6.2680206-26.6116943-7.7298889-40.1588745c-0.9048462-8.4082642-1.3643951-16.8676147-1.3638458-25.1456909
		c-0.0005493-23.3727722,4.9622803-77.9533234,14.7505341-111.1446228
		c2.2063599-8.2767487,5.155838-14.2933044,24.5375671-14.2933044h20.1448212h20.1446075
		c19.3819275,0,22.3313904,6.0165558,24.5377502,14.2933044c9.7879333,33.1912994,14.7507629,87.7718506,14.7503357,111.1446228
		c0.0004272,8.2780762-0.4590454,16.7374268-1.3636169,25.1456909c-1.4618835,13.5471802-4.0509949,26.9821472-7.7298889,40.1588745
		c-2.7701416,8.1427917-3.2399902,19.1841736-25.2401733,19.1838684L244.2588043,390.5104065L244.2588043,390.5104065z
		 M244.2588043,167.585495h-16.5115509c-19.1139679,0-10.8877869-10.2382965-8.263031-14.6731415
		c4.8924255-8.1051941,9.6945038-15.1773682,13.9245911-21.0069427c1.5725403-1.8933868,5.7397003-6.2822113,10.8499908-5.958374
		c5.1100769-0.3238373,9.2773743,4.0649872,10.8497772,5.958374c4.2302246,5.8295746,9.0322266,12.9017487,13.9246521,21.0069427
		c2.6246948,4.434845,10.8507996,14.6731415-8.2631836,14.6731415H244.2588043L244.2588043,167.585495z M314.9628296,334.8899231
		c-0.9093323,6.7413025-2.1972656,14.834137-3.9944458,23.5421448c-3.2767944,15.8774109,3.9206543,18.9750977,6.0806885,19.6521606
		l11.0964966,3.4487305l-0.0007324,0.0025635c1.4254761,0.4373169,2.7112427,1.3583374,3.5869751,2.7065735l3.8132935,5.8834534
		c2.5890503,2.869873,5.3407898,3.2077637,5.0949402-5.4809875l-1.3130493-24.3998413
		c-0.5835266-6.6509399-3.1340027-13.2901306-6.8315125-19.1179504l-5.0194397-8.4151001
		C325.7096252,328.7348022,317.581604,315.4685669,314.9628296,334.8899231L314.9628296,334.8899231z M173.5546417,334.8899231
		c0.9091797,6.7413025,2.1973877,14.834137,3.9945831,23.5421448c3.2767792,15.8774109-3.92099,18.9750977-6.0807037,19.6521606
		l-11.0966339,3.4487305l0.000885,0.0025635c-1.4254913,0.4373169-2.7114716,1.3583374-3.5872498,2.7065735l-3.8131714,5.8834534
		c-2.5889893,2.869873-5.3407745,3.2077637-5.0949554-5.4809875l1.3132019-24.3998413
		c0.583313-6.6509399,3.1338806-13.2901306,6.8312988-19.1179504l5.019516-8.4151001
		C162.8079224,328.7348022,170.9359131,315.4685669,173.5546417,334.8899231L173.5546417,334.8899231z"/>
	<path class="st1" d="M244.2588043,219.0031128c12.3106842,0,23.457016,4.9906006,31.5253448,13.058609
		c8.0680542,8.0681,13.0585938,19.2146149,13.0585938,31.5253448c0,12.310791-4.9905396,23.4571533-13.0585938,31.5253296
		c-8.0683289,8.0680847-19.2146606,13.0586548-31.5253448,13.0586548c-12.3108521,0-23.4573822-4.9905701-31.5253601-13.0586548
		c-8.0680542-8.0681763-13.0586548-19.2145386-13.0586548-31.5253296c0-12.31073,4.9906006-23.4572449,13.0586548-31.5253448
		C220.8014221,223.9937134,231.9479523,219.0031128,244.2588043,219.0031128L244.2588043,219.0031128z M266.4439697,241.4017639
		c-5.6770325-5.677002-13.5209808-9.1888123-22.1851654-9.1888123c-8.6644135,0-16.5082245,3.5118103-22.1853943,9.1888123
		c-5.6769562,5.6771088-9.1887054,13.5210266-9.1887054,22.1853027c0,8.6641846,3.5117493,16.5081787,9.1887054,22.1851807
		c5.6771698,5.6771545,13.5209808,9.1888428,22.1853943,9.1888428c8.6641846,0,16.5081329-3.5116882,22.1851654-9.1888428
		c5.6771851-5.677002,9.1887207-13.5209961,9.1887207-22.1851807
		C275.6326904,254.9227905,272.1211548,247.0788727,266.4439697,241.4017639L266.4439697,241.4017639z"/>
	<path class="st0" d="M244.2609711,325.2138367c-3.5936279,0-6.5026398,2.9089661-6.5026398,6.5026245
		c0,3.5843506,2.9090118,6.4932556,6.4980164,6.4980469c3.5891418-0.0046082,6.4980316-2.9135437,6.5025787-6.502655
		C250.7543793,328.1226807,247.8454895,325.2136841,244.2609711,325.2138367L244.2609711,325.2138367z"/>
	<path class="st0" d="M217.0151978,325.2138367c-3.5936279,0-6.5025787,2.9089661-6.5025787,6.5026245
		c0,3.5843506,2.9089508,6.4932556,6.4980316,6.4980469c3.5890045-0.0046082,6.4980316-2.9135437,6.5025787-6.502655
		C223.5086823,328.1226807,220.5996552,325.2136841,217.0151978,325.2138367L217.0151978,325.2138367z"/>
	<path class="st0" d="M271.5068665,325.2138367c-3.593689,0-6.5025635,2.9089661-6.5025635,6.5026245
		c0,3.5843506,2.9088745,6.4932556,6.4979553,6.4980469c3.5891418-0.0046082,6.4980164-2.9135437,6.5027161-6.502655
		C278.0002747,328.1226807,275.0914001,325.2136841,271.5068665,325.2138367L271.5068665,325.2138367z"/>
	<path class="st1" d="M231.7527771,537.9492188c-6.0574951-7.6608276-13.8867035-19.0255737-17.9100037-30.8310242
		c-4.4997559-13.2033691-4.4403534-26.8896179,6.7558746-37.3948059c0.6300049-0.591217,1.3770752-1.2295227,2.2457275-1.9162292
		c3.2310181-2.5545654,6.6450043-4.4195557,10.1788177-5.7007751c8.0581512-2.9220581,14.4130554-2.9220581,22.4711304,0
		c3.5335388,1.2812195,6.9476013,3.1462097,10.178894,5.7007751c0.8686523,0.6867065,1.615509,1.3250122,2.2457275,1.9162292
		c11.1966248,10.5053406,11.2554321,24.1911011,6.7557373,37.3948059
		c-4.0231628,11.8050232-11.8524475,23.1701965-17.9100037,30.8310242
		C244.6002197,553.456665,241.2759857,550.074585,231.7527771,537.9492188L231.7527771,537.9492188z M251.4381714,523.0774536
		c4.138504-5.9489136,8.3143616-13.0462036,10.7489014-20.1906128c2.9659729-8.7029419,3.2069092-17.461792-3.298645-23.5657043
		c-0.5002136-0.4692993-0.9578552-0.8692932-1.3685913-1.1938782c-2.0485229-1.6197205-4.235199-2.8101501-6.5150146-3.6367188
		c-4.8566437-1.7604675-8.6356049-1.7604675-13.4921265,0c-2.279953,0.8265686-4.4665527,2.0169983-6.5151367,3.6367188
		c-0.4105225,0.324585-0.8681793,0.7245789-1.3683929,1.1938782c-6.5054932,6.1036072-6.2647552,14.8627625-3.2989044,23.5657043
		c2.4809723,7.2799683,6.769989,14.5111084,10.9847412,20.5281372
		C241.4260864,528.8428955,245.3764038,531.7507324,251.4381714,523.0774536L251.4381714,523.0774536z"/>
	<path class="st0" d="M241.1535797,49.5682907c-4.0146179-0.0004082-7.2708282-3.2566185-7.2708282-7.2714996V7.2711596
		C233.8827515,3.2562783,237.1389618,0,241.1537781,0c4.0150909,0,7.271225,3.2562783,7.271225,7.2711596v35.025631
		c0,4.0148811-3.256134,7.2710915-7.271225,7.2710915L241.1535797,49.5682907L241.1535797,49.5682907z"/>
	<path class="st0" d="M345.5694275,283.8126526c-4.0113525-0.0054932-7.260376-3.2602234-7.260376-7.2714233
		c0-1.5205688,0.4773254-3.0040894,1.3634949-4.2388916c14.2194519-19.887146,21.8643494-43.7379303,21.8643494-68.190094
		c0-64.7521667-52.512085-117.2637634-117.2637787-117.2637634c-64.7521667,0-117.264267,52.5115967-117.264267,117.2637634
		c0,24.4521637,7.6449585,48.302948,21.8609619,68.1884766c1.0830536,1.3044128,1.6732941,2.9447327,1.6732941,4.6368103
		c0,4.0148621-3.2563477,7.2711487-7.271225,7.2711487c-2.5138397,0-4.8521729-1.2994995-6.1776581-3.4353638
		c-15.982132-22.358429-24.5911026-49.1833954-24.5911026-76.6678619c0-72.7822723,59.0241928-131.806015,131.8065796-131.806015
		c72.7819366,0,131.806015,59.0237427,131.806015,131.806015c0,27.4844666-8.6089172,54.309433-24.5878601,76.6608124
		c-1.3677063,1.913208-3.5708923,3.0461121-5.9162903,3.0461121c-0.0136414,0-0.0293274,0-0.0426331,0L345.5694275,283.8126526
		L345.5694275,283.8126526z"/>
	<path class="st0" d="M160.6312256,72.8073273c-0.0014954-0.0002747-0.0052338-0.0002747-0.0067902-0.0002747
		c-2.5972748,0-4.9994965-1.3867188-6.2972107-3.636055l-17.5093842-30.3285904
		c-0.6220703-1.0944557-0.9498444-2.3335838-0.9498444-3.5932159c0-4.0149498,3.2562714-7.2710915,7.2713318-7.2710915
		c2.5797882,0,4.9684906,1.3686638,6.2725983,3.59342l17.4947815,30.3287258
		c0.6377563,1.103756,0.9742889,2.359787,0.9742889,3.635643c0,4.0124435-3.2515869,7.2674942-7.2640228,7.2711639
		L160.6312256,72.8073273L160.6312256,72.8073273z"/>
	<path class="st0" d="M102.5043106,133.202713c-0.0086594,0-0.0193863,0-0.0289917,0
		c-1.26577,0-2.5105743-0.3332672-3.6061096-0.9668884l-30.3287277-17.5093842
		c-2.251442-1.2983932-3.6384354-3.7014999-3.6384354-6.3008041c0-4.0168533,3.2575378-7.274353,7.2744522-7.274353
		c1.2761688,0,2.5309143,0.3356476,3.6358871,0.9735413l30.3358917,17.5093918
		c2.2482452,1.2992783,3.6347656,3.6996002,3.6347656,6.2967987c0,4.0148773-3.256279,7.271225-7.2711639,7.271225
		L102.5043106,133.202713L102.5043106,133.202713z"/>
	<path class="st0" d="M82.3777618,214.568222H47.3517952c-4.0145454-0.0004425-7.2708206-3.2567444-7.2708206-7.271637
		c0-4.0148773,3.2562752-7.2711182,7.2711563-7.2711182l35.025631,0.000473
		c4.015358-0.000473,7.271637,3.2557678,7.271637,7.2706451c0,4.0148926-3.256279,7.2711945-7.2711945,7.2711945
		L82.3777618,214.568222L82.3777618,214.568222z"/>
	<path class="st0" d="M441.1941223,208.3440704h-35.0622864c-4.0148315-0.0003052-7.2710266-3.2565918-7.2710266-7.271637
		c0-4.0149231,3.2561951-7.2711334,7.2710266-7.2711334l35.0332336,0.0004883
		c4.0149231-0.0004883,7.2711487,3.255722,7.2711487,7.2706451c0,4.0150452-3.2562256,7.2713318-7.2711487,7.2713318
		L441.1941223,208.3440704L441.1941223,208.3440704z"/>
	<path class="st0" d="M382.9217834,127.8146896c-4.0144958-0.000473-7.270752-3.256752-7.270752-7.2716293
		c0-2.5973434,1.3867188-4.9975967,3.6352234-6.296463l30.3357849-17.5165863
		c1.1047058-0.6381683,2.3594666-0.9738159,3.6356506-0.9738159c4.0169373,0,7.274353,3.2573624,7.274353,7.2742844
		c0,2.5993729-1.3870544,5.0027466-3.6383667,6.3007431l-30.3357849,17.5095215
		c-1.0994873,0.6370773-2.3499451,0.9734726-3.620575,0.9734726c-0.0043335,0-0.0108032,0-0.0149841,0L382.9217834,127.8146896
		L382.9217834,127.8146896z"/>
	<path class="st0" d="M322.5118408,69.7314301c-4.0144043,0-7.270752-3.256279-7.270752-7.2711601
		c0-1.2756538,0.3364868-2.5316887,0.9740295-3.6359215l17.51651-30.3287239
		c1.2912598-2.2716675,3.706604-3.676857,6.3209839-3.676857c4.0150146,0,7.2713623,3.2562103,7.2713623,7.2711601
		c0,1.2924232-0.3453064,2.562645-0.9985962,3.6776733l-17.5020447,30.3287201
		c-1.2976074,2.2485886-3.6999512,3.6351089-6.2972107,3.6351089
		C322.521759,69.7314301,322.5162048,69.7314301,322.5118408,69.7314301L322.5118408,69.7314301z"/>
	<path class="st1" d="M485.6770325,587.9758911c-7.3986511-14.7545776-20.0787659-25.1143188-34.5973206-29.9352417
		c-7.0454102-2.3392334-14.5240479-3.3741455-22.0420532-2.9745483c-4.7174683,0.8642578-10.684082-0.4113159-14.2998962-6.885376
		c-7.3989258-14.7544556-20.0788269-25.1141357-34.5973816-29.9351196
		c-9.6640625-3.3320923-12.3229065-7.8840637-12.7823181-12.4311829
		c-2.5843811-18.9918213-12.6373901-35.1493835-26.8006287-45.9196167
		c-12.7367249-9.6852112-28.7891846-15.0040588-45.7156677-14.1016541
		c-16.9605713,0.905365-15.6248169,13.6271362,2.0848389,13.1056213
		c13.214325-0.3887329,25.6953735,3.8832397,35.6581726,11.4591675
		c11.4684448,8.7212219,19.6132202,21.8343811,21.7140198,37.2715149c0.4350891,3.9559021,1.4941711,7.0443115-7.749054,9.4071655
		c-3.3630066,0.8598022-6.6937561,2.0239258-9.9543152,3.5075073c-10.1124268,4.6015015-3.3074646,15.8418579,6.149353,11.7221069
		c10.8728027-4.7364502,22.6775208-4.9898071,33.2332153-1.4848633
		c11.3095093,3.755188,21.2241211,11.8997192,26.9882507,23.3946533c1.1560974,2.305603,2.3227234,6.4576416-4.7189636,11.4307251
		c-5.2453918,3.6327515-9.8502502,8.0692139-13.6661377,13.1144409c-3.5769958,4.7297363-6.4514465,9.9928589-8.5003662,15.6276245
		c-4.8639832,13.3795776,7.9157715,16.2846069,12.6013184,3.9171143c1.5794067-4.1698608,3.7433472-8.0717163,6.4085083-11.5952148
		c4.2436523-5.6105957,9.7826843-10.2680664,16.2792664-13.5257568c11.494873-5.7641602,24.237915-6.3236694,35.5474243-2.5684204
		c11.3095398,3.755249,21.1870728,11.8258057,26.9512634,23.3207397
		C482.1291504,610.3706055,494.0193481,604.6123047,485.6770325,587.9758911L485.6770325,587.9758911z"/>
	<path class="st1" d="M2.8401589,587.9758911c7.3986917-14.7545776,20.0788212-25.1143188,34.5973091-29.9352417
		c7.0454254-2.3392334,14.5241928-3.3741455,22.042202-2.9745483c4.717411,0.8642578,10.6841316-0.4113159,14.3000221-6.885376
		c7.3986588-14.7544556,20.0787888-25.1141357,34.5972748-29.9351196
		c9.6639481-3.3320923,12.3227234-7.8840637,12.7821045-12.4311829
		c2.5845337-18.9918213,12.6374207-35.1493835,26.8007507-45.9196167
		c12.7369232-9.6852112,28.7893219-15.0040588,45.7157288-14.1016541
		c16.960434,0.905365,15.6248932,13.6271362-2.0849762,13.1056213c-13.214386-0.3887329-25.6953583,3.8832397-35.6578827,11.4591675
		c-11.4688416,8.7212219-19.6133728,21.8343811-21.7141266,37.2715149
		c-0.4352722,3.9559021-1.4942627,7.0443115,7.7489319,9.4071655c3.3630066,0.8598022,6.6938324,2.0239258,9.9541779,3.5075073
		c10.1125641,4.6015015,3.3077393,15.8418579-6.1491089,11.7221069
		c-10.8730011-4.7364502-22.6775436-4.9898071-33.2331543-1.4848633
		c-11.3095322,3.755188-21.2241669,11.8997192-26.9883347,23.3946533c-1.1561661,2.305603-2.3227921,6.4576416,4.7188034,11.4307251
		c5.2454834,3.6327515,9.850296,8.0692139,13.6662292,13.1144409c3.5770569,4.7297363,6.451355,9.9928589,8.5003433,15.6276245
		c4.8640137,13.3795776-7.9156418,16.2846069-12.6011047,3.9171143c-1.5795288-4.1698608-3.7436295-8.0717163-6.4086838-11.5952148
		c-4.2436371-5.6105957-9.7826843-10.2680664-16.2790833-13.5257568
		c-11.4951096-5.7641602-24.2381401-6.3236694-35.5476723-2.5684204
		c-11.3094978,3.755249-21.1870918,11.8258057-26.9512634,23.3207397
		C6.3880925,610.3706055-5.5021701,604.6123047,2.8401589,587.9758911L2.8401589,587.9758911z"/>
	<path class="st0" d="M340.6799011,192.2847137c2.1203613,4.0962067,0.5187683,9.1354828-3.5774536,11.2558594
		c-4.0962219,2.1204529-9.135437,0.5188446-11.2558899-3.5773621c-2.1203613-4.0962219-0.5187683-9.1354828,3.5774536-11.2559662
		C333.5202332,186.5868988,338.5595093,188.1884918,340.6799011,192.2847137L340.6799011,192.2847137z"/>
	<path class="st0" d="M312.7565308,149.3006744c2.375885,4.5892334,0.5814209,10.2351685-4.0079041,12.6109772
		c-4.5893555,2.3756104-10.2352905,0.5812073-12.6109009-4.0079498c-2.375824-4.589447-0.5814209-10.2353821,4.0079651-12.6109924
		C304.7349854,142.9169617,310.3809204,144.7113037,312.7565308,149.3006744L312.7565308,149.3006744z"/>
	<path class="st0" d="M339.4502258,155.6529388c1.5142822,2.9251709,0.3705444,6.523819-2.5547791,8.0382538
		c-2.9251099,1.5141449-6.5238953,0.3704071-8.0380554-2.5547028c-1.5142212-2.9252472-0.3706055-6.5239716,2.5545654-8.0381165
		C334.3371582,151.5840912,337.9358521,152.7276306,339.4502258,155.6529388L339.4502258,155.6529388z"/>
	<path class="st0" d="M294.0037231,114.5216141c1.1457825,2.2134247,0.2804565,4.9364929-1.9328918,6.0823364
		c-2.2134705,1.1457825-4.936554,0.2803192-6.0823364-1.9331665c-1.1457825-2.2133484-0.280304-4.9362869,1.9330444-6.0821304
		C290.1350098,111.4428711,292.8579712,112.3081284,294.0037231,114.5216141L294.0037231,114.5216141z"/>
	<path class="st0" d="M147.8372803,192.2847137c-2.1203766,4.0962067-0.5187531,9.1354828,3.5774689,11.2558594
		c4.0962067,2.1204529,9.1354828,0.5188446,11.2558289-3.5773621c2.1206055-4.0962219,0.5190887-9.1354828-3.5771942-11.2559662
		C154.9971619,186.5868988,149.9578857,188.1884918,147.8372803,192.2847137L147.8372803,192.2847137z"/>
	<path class="st0" d="M175.7606659,149.3006744c-2.3756104,4.5892334-0.5812836,10.2351685,4.0079498,12.6109772
		c4.5892944,2.3756104,10.2353058,0.5812073,12.6110535-4.0079498c2.3756714-4.589447,0.5812073-10.2353821-4.0080872-12.6109924
		C183.7823486,142.9169617,178.1364746,144.7113037,175.7606659,149.3006744L175.7606659,149.3006744z"/>
	<path class="st0" d="M149.0671692,155.6529388c-1.5142212,2.9251709-0.3706055,6.523819,2.5545654,8.0382538
		c2.9251099,1.5141449,6.5238953,0.3704071,8.0381927-2.5547028c1.5142822-2.9252472,0.3705444-6.5239716-2.5547028-8.0381165
		C154.1801147,151.5840912,150.5813293,152.7276306,149.0671692,155.6529388L149.0671692,155.6529388z"/>
	<path class="st0" d="M194.5134583,114.5216141c-1.1457825,2.2134247-0.2803192,4.9364929,1.9331665,6.0823364
		c2.2134094,1.1457825,4.9362793,0.2803192,6.0821228-1.9331665c1.1457825-2.2133484,0.2804565-4.9362869-1.9330292-6.0821304
		C198.38237,111.4428711,195.6592255,112.3081284,194.5134583,114.5216141L194.5134583,114.5216141z"/>
</g>
</svg>
