<?xml version="1.0" encoding="utf-8"?>
<!-- Generator: Adobe Illustrator 28.0.0, SVG Export Plug-In . SVG Version: 6.00 Build 0)  -->
<svg version="1.1" id="Layer_1" xmlns="http://www.w3.org/2000/svg" xmlns:xlink="http://www.w3.org/1999/xlink" x="0px" y="0px"
	 viewBox="0 0 168.3364258 148.4932098" style="enable-background:new 0 0 168.3364258 148.4932098;" xml:space="preserve">
<style type="text/css">
	.st0{fill-rule:evenodd;clip-rule:evenodd;fill:#FFFFFF;}
	.st1{fill:#FFFFFF;}
</style>
<g>
	<path class="st0" d="M51.1810074,40.2204704c4.615284-11.4923687,15.1295929-21.5482178,30.014679-25.4299927
		C72.20961,15.7074499,63.498642,19.680891,56.7437973,26.7107792c-3.1176033,3.2093124-5.5627899,6.8159809-7.3661308,10.6365528
		c-1.681057-2.7813339-3.0870476-5.5016518-4.1262436-8.0691032c-6.6937103-16.1076279,2.506321-22.5568562,17.3302689-15.7103214
		c-16.1382294-9.8112926-27.6611786-1.8338537-19.9282722,16.5967407c1.375412,3.362112,3.2092896,6.8465099,5.3794098,10.3920689
		c-5.2265892,14.304306-1.9561653,30.9621353,9.6890488,42.2100143c11.6757736,11.247818,28.4558868,13.937561,42.5462646,8.1913986
		c3.6372147,2.0478058,7.1827545,3.7594376,10.5754395,5.0431671c18.7057037,7.0605316,26.2552185-4.7375259,15.8631668-20.5090027
		c7.3966904,14.5488815,1.2837296,23.9628677-15.0684814,17.8804626c-2.5980072-0.9780807-5.3488541-2.2923431-8.2219467-3.8511734
		c3.7594833-1.956192,7.3050003-4.5236206,10.3920441-7.732933c10.3003616-10.6671066,13.417984-25.6133461,9.4751205-38.8785095
		c3.3926926,19.8671875-7.3050003,37.778183-22.770813,44.5329819c-0.1222687,0.0611343-0.2445297,0.1222687-0.3667755,0.1528244
		c-6.9382248-4.2178802-14.3654861-9.8724289-21.4871063-16.2604523c2.5980301-3.6372223,2.2312546-8.7721214-1.1003265-11.9814339
		c-3.2704468-3.1481552-8.3136368-3.3927116-11.8591461-0.7946625
		C60.0753746,52.4769249,55.0627403,46.1805878,51.1810074,40.2204704L51.1810074,40.2204704z M70.834198,95.726181
		c0.4890366-0.5195694,1.3143005-0.5501022,1.8338928-0.0305328c0.5195999,0.4890442,0.5501785,1.3142624,0.0305557,1.8339233
		c-0.4890366,0.519577-1.3142776,0.5501785-1.8338776,0.0305328C70.3451538,97.0711365,70.3145981,96.2458496,70.834198,95.726181
		L70.834198,95.726181z M32.536438,32.6098099c0.9475288-0.9780846,2.5063171-1.0086384,3.4844017-0.0611343
		c0.9780807,0.9474831,1.0086365,2.5062943,0.0611343,3.4844017c-0.947506,0.9780807-2.506321,1.0086365-3.4844017,0.0611305
		C31.6194897,35.1467285,31.5889339,33.5879135,32.536438,32.6098099L32.536438,32.6098099z M85.3830566,12.7120905
		c0.6724396-0.7335501,1.8033447-0.7335501,2.5368958-0.0611563c0.7029953,0.6724644,0.7029953,1.8339233,0.0305557,2.5369186
		c-0.6724167,0.7029963-1.8033218,0.733551-2.5368729,0.0305319C84.71064,14.54599,84.6800842,13.4150867,85.3830566,12.7120905
		L85.3830566,12.7120905z M95.0415497,53.7301178c0.6724396-0.7029953,1.7727661-0.7029953,2.4757614-0.0305328
		c0.7030029,0.6417961,0.7030029,1.7727013,0.0305557,2.4757195c-0.6724167,0.6724625-1.7727432,0.7029953-2.4757385,0.0306015
		C94.3996887,55.5334396,94.369133,54.4331131,95.0415497,53.7301178L95.0415497,53.7301178z M77.9558182,101.0139084
		c0.9475021-0.9780426,2.5063171-1.0086441,3.484375-0.0610657c0.9780807,0.9474792,1.0086365,2.5062943,0.0611343,3.5149307
		c-0.9475098,0.978035-2.5063171,1.0086365-3.484375,0.0611343
		C77.0388641,103.5813599,77.0082855,102.0225449,77.9558182,101.0139084L77.9558182,101.0139084z M101.6435547,59.5374146
		c1.2226105-1.2836571,3.2704468-1.3142586,4.5541687-0.0611343c1.2837296,1.2226639,1.3142853,3.2704468,0.0916901,4.5541687
		c-1.2531509,1.2837296-3.2704239,1.3143311-4.5541458,0.0611343
		C100.4515381,62.8690147,100.3904037,60.8211403,101.6435547,59.5374146L101.6435547,59.5374146z M135.4788513,37.347332
		c1.3754425-1.4365463,3.6678009-1.4976082,5.073761-0.0916634c1.436554,1.3753891,1.4976807,3.6677513,0.0917053,5.0737457
		c-1.3754272,1.4365463-3.6677856,1.4976768-5.073761,0.0917549
		C134.1340179,41.0456886,134.072876,38.7838783,135.4788513,37.347332L135.4788513,37.347332z M95.6528549,1.8310274
		c2.292366-2.3840973,6.0824127-2.4452305,8.4664612-0.1528902c2.3535004,2.2924323,2.4146271,6.0824747,0.1222687,8.4359713
		c-2.292366,2.3840284-6.0518494,2.4451618-8.4359055,0.1527987C93.4216309,7.974566,93.3604965,4.2150555,95.6528549,1.8310274
		L95.6528549,1.8310274z M28.0434246,46.6084976c1.8644543-1.9561195,4.9515018-2.0172539,6.9076443-0.1528206
		c1.9561424,1.8949852,1.986721,4.9821014,0.1222649,6.938221c-1.8644524,1.9255867-4.9820786,1.986721-6.9076672,0.1222649
		C26.2095242,51.621109,26.1789474,48.5340843,28.0434246,46.6084976L28.0434246,46.6084976z M76.4275589,73.536171
		c-3.5149536,2.4757156-8.4358826,2.2006302-11.645195-0.9169464c-3.3009987-3.1787872-3.7289047-8.1608658-1.2225876-11.7980843
		c-5.134903-5.6239433-9.7807617-11.4617691-13.5708046-17.208004
		c-8.0691261,27.5084076,19.4698067,53.8552856,46.7642097,45.2665329
		C89.9678116,84.6923218,83.0295868,79.4046021,76.4275589,73.536171L76.4275589,73.536171z"/>
	<path class="st1" d="M20.5605469,123.3516006v4.3950195H7.6728516c-2.2719727,0-3.2773438,1.2299881-3.2773438,2.9799881
		c0,1.5273438,0.7817383,2.9794922,3.7246094,2.9794922h5.8847656c6.8535156,0,8.4550781,3.7998047,8.4550781,7.4121094
		c0,4.2460938-2.2719727,7.375-8.0083008,7.375H0.4472656v-4.3945312h14.1538086
		c2.3837891,0,3.4638672-1.3037109,3.4638672-3.1289062c0-1.6386719-0.8569336-3.1289062-3.9482422-3.1289062H8.269043
		C1.5644531,137.8408661,0,134.0791473,0,130.5781708c0-4.1723709,2.2348633-7.2265701,7.8217773-7.2265701H20.5605469z"/>
	<path class="st1" d="M41.0493164,123.3516006c7.300293,0,11.3598633,4.171875,11.3598633,12.6269608
		c0,8.4179688-4.0224609,12.5146484-11.3598633,12.5146484h-3.4267578c-7.3378906,0-11.3603516-4.0966797-11.3603516-12.5146484
		c0-8.4550858,4.0600586-12.6269608,11.3603516-12.6269608H41.0493164z M37.6225586,127.7466202
		c-4.8422852,0-6.965332,2.4585037-6.965332,8.2319412c0,5.7363281,2.0859375,8.1201172,6.965332,8.1201172h3.4267578
		c4.8417969,0,6.9277344-2.3837891,6.9277344-8.1572266c0-5.7363281-2.0859375-8.1948318-6.9277344-8.1948318H37.6225586z"/>
	<path class="st1" d="M61.7250977,123.3516006v16.4257889c0,2.4208984,1.1918945,4.3212891,5.1401367,4.3212891h9.7587891v4.3945312
		H66.6044922c-6.6669922,0-9.2744141-3.6503906-9.2744141-8.6787109v-16.4628983H61.7250977z"/>
	<path class="st1" d="M83.2568359,148.4932098h-4.8422852l8.8276367-22.3481522
		c0.9311523-2.3461914,2.6445312-3.2402344,5.2890625-3.2402344c2.6074219,0,4.3208008,0.894043,5.2143555,3.2402344
		l8.4921875,22.3481522h-4.8789062l-7.6357422-20.2246094c-0.2236328-0.596199-0.6333008-0.8569412-1.2290039-0.8569412
		c-0.5961914,0-1.0058594,0.2607422-1.2666016,0.8569412L83.2568359,148.4932098z"/>
	<path class="st1" d="M123.5239258,123.3516006c5.6616211,0,8.0825195,3.5014648,8.0825195,7.5244217
		c0,3.1289062-1.4897461,6.4804688-5.3261719,7.5605469l5.8476562,10.0566406h-4.8789062l-5.7363281-9.7207031h-6.5551758
		c-0.409668,0-0.6333008,0.1855469-0.6333008,0.6328125v9.0878906h-4.3950195v-9.9443359
		c0-2.8310547,1.1918945-3.9853516,3.9482422-3.9853516h9.7958984c2.4951172,0,3.5009766-1.7138672,3.5009766-3.5019531
		c0-1.7871094-1.0800781-3.314949-3.5009766-3.314949h-13.7817383v-4.3950195H123.5239258z"/>
	<path class="st1" d="M140.9584961,123.3516006v25.1416092h-4.3950195v-25.1416092H140.9584961z"/>
	<path class="st1" d="M166.4370117,123.3516006v4.3950195h-12.8876953c-2.2719727,0-3.2773438,1.2299881-3.2773438,2.9799881
		c0,1.5273438,0.7817383,2.9794922,3.7246094,2.9794922h5.8847656c6.8535156,0,8.4550781,3.7998047,8.4550781,7.4121094
		c0,4.2460938-2.2719727,7.375-8.0083008,7.375h-14.0043945v-4.3945312h14.1538086
		c2.3837891,0,3.4638672-1.3037109,3.4638672-3.1289062c0-1.6386719-0.8569336-3.1289062-3.9482422-3.1289062h-5.8476562
		c-6.7045898,0-8.269043-3.7617188-8.269043-7.2626953c0-4.1723709,2.2348633-7.2265701,7.8217773-7.2265701H166.4370117z"/>
</g>
</svg>
