<?xml version="1.0" encoding="utf-8"?>
<!-- Generator: Adobe Illustrator 28.0.0, SVG Export Plug-In . SVG Version: 6.00 Build 0)  -->
<svg version="1.1" id="Layer_1" xmlns="http://www.w3.org/2000/svg" xmlns:xlink="http://www.w3.org/1999/xlink" x="0px" y="0px"
	 viewBox="0 0 1777.7674561 2707.5222168" style="enable-background:new 0 0 1777.7674561 2707.5222168;" xml:space="preserve">
<style type="text/css">
	.st0{opacity:0.1;}
	.st1{fill:#FFFFFF;}
	.st2{fill:#333333;}
	.st3{opacity:0.35;}
	.st4{fill:#371A45;}
	.st5{fill:#EAEAEA;}
	.st6{opacity:0.17;}
	.st7{opacity:0.4;}
	.st8{opacity:0.3;}
	.st9{opacity:0.35;fill:#371A45;}
	.st10{fill:#232323;}
	.st11{opacity:0.7;}
</style>
<g class="st0">
	<g>
		<g>
			<g>
				<path class="st1" d="M712.8019409,1151.0998535c-6.9052124,117.1616211-45.7957153,239.0455322-174.272522,256.0184326
					c-255.8404846,33.7229004-234.6800842-289.3406982-234.6800842-289.3406982s-61.5653992-13.7651367-88.3388977-61.387207
					c-10.8697052-19.3782959-18.0865021-37.8213501-22.808609-54.4823608
					c-13.0529022-45.9291992-7.2167969-78.2265625-7.2167969-78.2265625h509.5419922
					C695.0270386,923.6814575,719.6177368,1035.0518799,712.8019409,1151.0998535z"/>
			</g>
			<g>
				<path class="st2" d="M502.356842,1427.4050293c-53.8867188,0-98.881897-16.6186523-134.1309204-49.62146
					c-77.9125977-72.9493408-83.1737976-203.3814697-82.6244812-246.8482666
					c-21.9629211-7.5853271-63.496109-26.4672852-85.6250153-65.7958984
					c-43.5570984-77.4193726-32.5243988-141.9188843-32.0336914-144.6264038
					c1.5381012-8.4765625,8.9185028-14.6411743,17.5341949-14.6411743h509.5557251
					c8.3617554,0,15.5980835,5.8129883,17.3999023,13.9771118c2.5438843,11.5161133,61.1522827,283.6522827-37.619751,424.6338501
					c-32.0751953,45.7836914-77.1459961,72.7977295-133.9598999,80.2928467
					C527.5619507,1426.5286865,514.7225342,1427.4050293,502.356842,1427.4050293z M202.0467377,941.5115356
					c-0.2002106,20.6469727,3.4692993,60.7910156,28.9892883,106.1522827
					c22.6416016,40.2416992,76.176712,52.6171875,76.7138214,52.7368164
					c8.5717773,1.916626,14.4677734,9.7924805,13.8940735,18.5546875
					c-0.1000977,1.5577393-9.1381836,157.9418945,71.0180969,232.8858643
					c35.1635132,32.8782959,83.4692078,45.5321045,143.5278015,37.602417
					c47.1459961-6.2207031,82.9346313-27.602417,109.4092407-65.3710938
					c77.9076538-111.1425781,45.192749-325.8666992,34.7728882-382.5609741H202.0467377z"/>
			</g>
			<g>
				<path class="st1" d="M1414.5203857,1111.9515381c0.8105469-4.2692871,55.4194336-144.043335,47.2213135-221.3447266
					c-7.1477051-67.3972778-113.6970215-228.4082642-258.0839844-275.9420776
					c-144.9105225-47.7061768-201.2399902,287.829895-201.2399902,287.829895L1414.5203857,1111.9515381z"/>
			</g>
			<g>
				<path class="st1" d="M1427.1320801,1075.3679199c-7.0386963,21.1604004-12.3399658,35.2821045-12.6071777,36.5738525
					l-412.1153564-209.465332c0,0,10.4243774-61.8328857,33.7230225-128.6552124
					c31.0056152-88.8291016,84.864502-186.3897705,167.5460205-159.1708984
					c144.3804932,47.5330811,250.8950195,208.574707,258.0675049,275.9760742
					C1467.4035645,944.1734009,1442.9466553,1027.6567383,1427.1320801,1075.3679199z"/>
			</g>
			<g class="st3">
				<path class="st4" d="M1427.1320801,1075.3679199c-7.0386963,21.1604004-12.3399658,35.2821045-12.6071777,36.5738525
					l-412.1153564-209.465332c0,0,10.4243774-61.8328857,33.7230225-128.6552124
					c21.47229-7.7958984,45.6173096-8.8649902,72.6137695-0.6237183
					c173.4261475,53.0567017,305.9569092,218.9987183,316.8709717,287.1131592
					C1426.4194336,1065.1219482,1426.9094238,1070.1556396,1427.1320801,1075.3679199z"/>
			</g>
			<g>
				<path class="st2" d="M1427.5985107,1138.5866699L982.6790161,912.451416l2.1655884-12.9052124
					c1.5893555-9.4726562,40.0732422-232.6464844,138.6987305-292.1972656
					c26.8969727-16.237793,55.7275391-19.4702148,85.6860352-9.609436
					c151.4379883,49.8535156,262.6074219,219.1089478,270.2319336,290.9863281
					c5.0537109,47.644104-10.2954102,122.2705078-45.6152344,221.8041992
					c-0.9350586,2.631958-1.6235352,4.5533447-1.9921875,5.6568604L1427.5985107,1138.5866699z M1432.0272217,1115.276123
					l-0.0537109,0.2807617C1431.9954834,1115.4470215,1432.0125732,1115.3518066,1432.0272217,1115.276123z
					 M1022.3299561,892.6272583l382.0605469,194.1869507c37.9614258-109.8754883,42.6098633-166.2352905,39.6313477-194.3285522
					c-6.0400391-56.9482422-105.2172852-214.5703125-245.9350586-260.8935547
					c-19.9194336-6.5576782-38.2641602-4.5117798-56.105957,6.2548218
					C1076.2362061,677.5247192,1035.5672607,824.6731567,1022.3299561,892.6272583z"/>
			</g>
			<g>
				<path class="st1" d="M1232.505127,903.7862549c0.9693604-40.7073975,21.074707-127.9691162,65.2502441-123.5334473
					c44.175415,4.4358521,133.395874,67.7665405,107.5919189,187.0437012
					C1385.3306885,1059.8225098,1231.5357666,944.4937134,1232.505127,903.7862549z"/>
			</g>
			<g class="st3">
				<path class="st4" d="M1407.887207,953.1723022c-0.6679688,4.5883179-1.5145264,9.3104248-2.5393066,14.1217041
					c-20.0020752,92.5266724-173.8267822-22.8086548-172.8469238-63.5257568
					c0.4901123-20.2694092,5.7023926-52.1213989,16.3491211-78.4493408
					C1264.3974609,863.1403198,1346.5889893,930.541748,1407.887207,953.1723022z"/>
			</g>
			<g>
				<path class="st2" d="M1364.9837646,1020.1760254c-3.2568359,0-6.6210938-0.2025757-10.0878906-0.6151733
					c-57.2924805-6.8188477-141.1547852-76.3184204-140.2050781-116.1987305
					c0.8227539-34.4848633,13.8037109-99.5117188,45.1489258-127.1948853
					c11.7211914-10.3540039,25.4370117-15.0927124,39.6948242-13.6450195
					c27.2924805,2.7393188,67.5805664,23.0322876,96.0620117,62.1900024
					c20.6835938,28.4399414,42.1899414,76.9165039,27.1679688,146.3525391
					C1415.9212646,1002.6956177,1395.105835,1020.1760254,1364.9837646,1020.1760254z M1250.3206787,904.1653442
					c0.7421875,16.0131836,64.1040039,76.2207031,110.5859375,80.1903687
					c15.9033203,1.3793945,23.4887695-4.477478,27.0239258-20.8251953
					c12.2338867-56.5477905-4.7509766-95.3026733-21.1547852-117.8540039
					c-23.3642578-32.1239624-55.1416016-46.1229858-70.8007812-47.6953125
					c-2.7124023-0.2709961-6.9384766-0.0560913-12.5439453,4.897522
					C1263.2503662,820.7034302,1251.0482178,874.0628052,1250.3206787,904.1653442z"/>
			</g>
			<g>
				<path class="st2" d="M1323.3729248,803.3173218c-2.3863525,11.1425781-4.4641113,22.6734009-6.1987305,34.0479126
					c-1.7333984,11.406189-3.1383057,22.8270874-3.9916992,34.1309204
					c-0.8483887,11.2718506-1.1975098,22.5511475-0.3430176,33.0125732
					c0.4382324,5.1856079,1.1938477,10.2124023,2.4133301,14.3041992c1.0827637,4.0991821,3.2543945,6.9702759,3.4815674,6.5795898
					c6.9554443,6.9628906,6.9505615,18.2446899-0.0109863,25.2001953
					c-6.961792,6.9580078-18.2434082,6.9532471-25.2003174-0.0097046c-3.8366699-4.3432617-6.5466309-9.074707-7.9504395-13.1713867
					c-1.6551514-4.2481079-2.4353027-8.1079102-3.0383301-11.8334961
					c-1.1193848-7.4169922-1.1400146-14.1552734-0.8764648-20.6983032
					c0.6237793-13.0249023,2.635498-25.1831055,5.0610352-37.1434937
					c2.4464111-11.940918,5.4176025-23.6035156,8.6964111-35.1317749
					c3.2994385-11.5552368,6.8358154-22.8321533,10.8519287-34.2774048
					c1.6308594-4.6509399,6.7224121-7.097229,11.3720703-5.4663086c4.2895508,1.5062866,6.7041016,5.9545898,5.7716064,10.2855835
					L1323.3729248,803.3173218z"/>
			</g>
			<g>
				<path class="st1" d="M1757.5013428,1108.1999512c-3.3410645,13.5426025-9.9787598,24.9468994-18.6210938,33.5892334
					c-38.8905029,38.8015137-104.5544434,5.1677246-117.9189453-2.3164062
					c-1.5593262-0.8463135-2.4057617-1.3811035-2.4057617-1.3811035s-2.6728516,15.7255859-9.6223145,39.6925049
					c-8.642334,29.6246338-23.7888184,71.9454346-48.4683838,112.8850098
					c-102.4162598,169.7287598-290.8105469,22.1851807-290.8105469,22.1851807l-553.6449585-57.5118408l-122.5968018-12.7408447
					c0,0-103.8417969-40.4051514-107.8508911-295.6662598c-2.5393066-161.3533936,342.8427124-159.3933105,505.1762695-146.5637207
					c317.3168945,25.1253052,413.8974609,309.3873291,444.1455078,271.9224854
					c23.3878174-29.0009766,29.1347656-129.3681641,60.2738037-161.7099609
					c28.1988525-29.3128052,108.6529541-18.3095093,186.7459717,47.1317749
					C1750.5964355,1015.3614502,1766.9012451,1070.2001953,1757.5013428,1108.1999512z"/>
			</g>
			<g class="st3">
				<path class="st4" d="M1757.5013428,1108.1999512c-3.3410645,13.5426025-9.9787598,24.9468994-18.6210938,33.5892334
					c-38.8905029,38.8015137-104.5544434,5.1677246-117.9189453-2.3164062
					c-2.0493164-46.9538574-14.1662598-95.5559082-0.401123-96.7587891
					C1638.3349609,1041.1993408,1657.0898438,1164.9989014,1757.5013428,1108.1999512z"/>
			</g>
			<g class="st3">
				<path class="st4" d="M1608.9332275,1177.7841797c-8.642334,29.6246338-23.7888184,71.9454346-48.4683838,112.8850098
					c-102.4162598,169.7287598-290.8105469,22.1851807-290.8105469,22.1851807l-553.6449585-57.5118408
					c50.6958008-126.2495117,142.5541992-282.5245972,272.9022217-273.0358276
					c217.1278687,15.725647,283.6382446,197.972229,447.531311,301.5466919
					c99.4312744,62.8128662,170.3076172-115.5133057,170.3076172-115.5133057S1607.5076904,1171.725708,1608.9332275,1177.7841797z"
					/>
			</g>
			<g>
				<path class="st2" d="M1427.1541748,1390.1491699c-76.4672852,0-146.3793945-47.0605469-164.230957-60.0610352
					l-673.737793-70.012207l-2.2338867-0.8691406c-4.6948242-1.8261719-115.0439148-47.7733154-119.2113953-312.0043335
					c-0.5445251-34.4824219,12.4730835-64.4434204,38.6913757-89.0552368
					c101.0449219-94.8535156,373.347229-84.4091797,485.7349243-75.5199585
					c226.105896,17.890564,342.0458374,160.6859741,404.3309937,237.3999023
					c10.2539062,12.6270142,21.5429688,26.5308228,28.9282227,33.7084351
					c6.3696289-13.2250977,12.0727539-36.0619507,17.2143555-56.6552734
					c9.5581055-38.2666016,19.4384766-77.8344116,39.6850586-98.8720093
					c39.1479492-40.6738892,131.8383789-20.5175781,211.0180664,45.871521
					c67.1728516,56.3184204,82.9296875,106.5332031,84.3188477,138.7426758
					c1.2133789,28.1226807-8.0834961,53.5498047-26.1791992,71.5917969
					c-37.1777344,37.0703125-90.7348633,22.4829102-120.4345703,9.8388672
					c-7.3925781,29.6680908-23.8232422,83.4106445-55.3393555,135.6300049
					c-29.6972656,49.2064209-69.1503906,78.6400146-117.2680664,87.4803467
					C1447.9696045,1389.2874756,1437.4984131,1390.1491699,1427.1541748,1390.1491699z M598.387146,1225.2028809
					l678.2201538,70.4785156l4.0405273,3.1641846c0.8691406,0.6761475,89.1918945,68.6473389,171.4868164,53.4423828
					c37.5830078-6.9483643,68.894043-30.7740479,93.0615234-70.8179932
					c42.3193359-70.1243896,55.6445312-145.6103516,55.7739258-146.3647461l4.4506836-25.8911133l22.3828125,13.6791992
					c0.6542969,0.3955078,65.5493164,39.1503906,98.515625,6.2841797
					c10.925293-10.8935547,16.5161133-26.8114014,15.7373047-44.8192139
					c-1.5258789-35.4125977-26.9580078-75.5323486-71.6088867-112.9688721
					c-71.6894531-60.1073608-142.9296875-68.7401733-162.4438477-48.4691772
					c-13.6523438,14.1870117-22.7563477,50.6347046-30.7861328,82.7929077
					c-8.2421875,32.9980469-15.3588867,61.496582-28.4765625,77.7587891
					c-5.2099609,6.4576416-12.3925781,10.0196533-20.222168,10.0318604c-0.0146484,0-0.0317383,0-0.0463867,0
					c-18.2226562,0.0023193-32.0703125-17.0557861-59.6411133-51.0133057
					c-58.9208984-72.5707397-168.5961914-207.6488647-379.477478-224.3358765
					c-173.0958252-13.6938477-384.4581299-3.5546875-458.5303345,65.9765015
					c-18.8549805,17.6978149-27.8344727,38.1470337-27.448761,62.5098267
					C506.8270264,1165.5203857,585.5916138,1218.1082764,598.387146,1225.2028809z"/>
			</g>
			<g>
				<path class="st2" d="M1629.4215088,1041.9770508c1.3709717,8.2128906,2.4780273,16.1645508,3.4619141,24.2871094
					c0.9729004,8.0908203,1.7736816,16.2207031,2.409668,24.4018555
					c1.2476807,16.3696289,1.7786865,32.9272461,0.8728027,50.0146484l-0.0023193,0.0610352
					c-0.522583,9.8706055-8.9501953,17.4511719-18.8221436,16.9262695
					c-9.8718262-0.5224609-17.4510498-8.9477539-16.9287109-18.8208008
					c0.0585938-1.1010742,0.2416992-2.2680664,0.4882812-3.3056641c3.5375977-14.4677734,5.9667969-29.7729492,7.6660156-45.2539062
					c0.8435059-7.7490234,1.5307617-15.5517578,2.0507812-23.3837891
					c0.5151367-7.7978516,0.8862305-15.7666016,1.0474854-23.4350586l0.00354-0.2075195
					c0.1037598-4.934082,4.1870117-8.8526611,9.1236572-8.7475586
					C1625.1600342,1034.6040039,1628.7305908,1037.8193359,1629.4215088,1041.9770508z"/>
			</g>
			<g>
				<path class="st2" d="M1419.4959717,1047.5117188c5.838623,7.1875,11.0010986,14.0820312,16.2427979,21.2744141
					c5.1817627,7.1508789,10.2110596,14.4067383,15.057251,21.8066406
					c9.6289062,14.84375,18.6853027,30.1928711,25.7519531,46.9482422c1.9165039,4.5458984-0.213501,9.7827148-4.7583008,11.7016602
					c-4.0612793,1.7114258-8.6755371,0.1953125-10.9801025-3.3911133l-0.1293945-0.2026367
					c-8.7963867-13.6547852-19.6009521-26.4038086-30.9571533-38.6132812
					c-5.7115479-6.09375-11.5942383-12.0507812-17.5939941-17.878418
					c-5.9606934-5.7666016-12.2290039-11.640625-18.2250977-16.8432617
					c-7.4693604-6.4648438-8.28125-17.7612305-1.8151855-25.2319336c6.4660645-7.4682617,17.7624512-8.28125,25.2319336-1.8139648
					C1418.0933838,1045.9370117,1418.8660889,1046.75,1419.4959717,1047.5117188z"/>
			</g>
			<g>
				<path class="st1" d="M1343.2476807,1084.3221436c-22.4074707,64.2385254-68.3812256,125.8040771-147.543457,151.9093018
					l-83.5725098-54.081665c0,0,73.8164062-40.5386963,108.9649658-114.4442139
					c4.3656006-9.2215576,8.1970215-18.1312256,11.4489746-26.7288818
					c34.3468018-90.2990723,11.7607422-147.6325684,11.7607422-147.6325684s50.5621338-40.4945068,93.1947021,3.9200439
					C1362.8045654,923.6368408,1370.5557861,1005.961853,1343.2476807,1084.3221436z"/>
			</g>
			<g class="st3">
				<path class="st4" d="M1343.2476807,1084.3221436c-22.4074707,64.2385254-68.3812256,125.8040771-147.543457,151.9093018
					l-83.5725098-54.081665c0,0,73.8164062-40.5386963,108.9649658-114.4442139
					c4.3656006-9.2215576,8.1970215-18.1312256,11.4489746-26.7288818
					c13.0526123,18.8883057,30.8718262,37.197876,53.012207,42.7218018
					C1306.7182617,1088.9997559,1326.2303467,1088.1531982,1343.2476807,1084.3221436z"/>
			</g>
			<g>
				<path class="st2" d="M1195.7186279,1254.0432129c-7.4829102,0-14.4506836-4.7509766-16.9213867-12.2460938
					c-3.0810547-9.3457031,1.9970703-19.4213867,11.3452148-22.5024414
					c97.109375-32.0141602,131.7944336-117.9296875,143.8256836-166.2939453
					c17.2290039-69.2626953,5.6445312-127.7929077-9.3457031-143.4155273
					c-21.796875-22.7196655-46.4233398-15.234375-59.6386719-8.3764038
					c5.9838867,27.0117188,12.3095703,89.9877319-27.7758789,174.1625366
					c-37.2314453,78.1762695-113.293457,120.6202393-116.5136719,122.3876953
					c-8.6352539,4.7387695-19.4628906,1.5821533-24.1967773-7.0384521
					c-4.7338867-8.6182861-1.5917969-19.440918,7.0166016-24.1846924l0,0
					c0.6884766-0.3808594,69.3408203-38.9281006,101.5161133-106.4868164
					c46.3989258-97.4267578,22.9223633-159.5849609,22.6806641-160.2026367l-4.8120117-12.2265015l10.2612305-8.2105103
					c21.8994141-17.5170898,74.5703125-38.9086914,117.1801758,5.5029907
					c28.6035156,29.8143921,36.2646484,104.1235352,18.2104492,176.6919556
					c-23.4887695,94.4287109-84.4506836,164.2406006-167.2509766,191.5379639
					C1199.4490967,1253.7526855,1197.5667725,1254.0432129,1195.7186279,1254.0432129z"/>
			</g>
			<g>
				<g>
					<path class="st5" d="M1220.3082275,2590.3806152c-382.28479,212.4094238-864.3381958,74.7329102-1076.7475586-307.5517578
						c-36.8255997-66.2634277-63.1296005-135.5119629-79.4342957-205.8427734
						c-7.126503-30.5946045-12.3498039-61.4133301-15.707901-92.2316895
						c-33.6542015-307.2905273,115.4765015-619.0581055,402.656311-778.6356201
						c134.8779907-74.9197998,282.1430054-106.2978516,425.6397095-98.723999
						c263.2265015,13.8797607,513.6183472,158.8314209,651.1078491,406.2382812
						c43.2802734,77.8671875,72.0093994,159.8758545,87.1202393,242.9293213
						C1673.9680176,2081.1274414,1524.6882324,2421.2514648,1220.3082275,2590.3806152z"/>
				</g>
				<g class="st6">
					<path class="st4" d="M1220.3234863,2590.3742676c-382.2845459,212.4091797-864.3376465,74.7331543-1076.7473145-307.5512695
						c-36.8254929-66.2646484-63.1296921-135.5124512-79.4339905-205.8435059
						c-4.179203-17.9455566-7.7235031-36.0043945-10.5592041-54.0629883
						c149.6903076,184.7995605,365.1964722,296.3955078,592.7166138,319.4541016l-3.6190186-3.8056641
						c-6.1190186-24.5881348-5.4849854-50.5561523,3.1712646-75.4421387
						c25.2220459-72.4577637,84.0610352-122.4909668,198.3061523-82.6809082
						c65.144165,22.6850586,107.8277588,78.9125977,111.036499,138.0493164
						c69.8079834-18.2443848,138.4597168-45.4814453,204.4619141-82.1572266
						c3.4700928-1.9401855,6.902832-3.8803711,10.3352051-5.8579102
						c-11.5662842-45.892334,1.0820312-100.8881836,37.8702393-144.9147949
						c52.4212646-62.6821289,135.3258057-81.1134033,191.9262695-45.0716553
						c94.9926758-110.9244385,159.7264404-243.0410156,190.3961182-383.0678711
						c10.4841309,32.7587891,18.6922607,65.8529053,24.7739258,99.1345215
						C1673.9837646,2081.1213379,1524.7039795,2421.244873,1220.3234863,2590.3742676z"/>
				</g>
				<g class="st7">
					<path class="st1" d="M1635.413208,1758.5286865c-15.9832764-49.5731201-36.9822998-98.3563232-63.2446289-145.6210938
						c-155.2642822-279.3864746-451.9046631-430.5786133-750.9939575-413.8034668l0.0369873,0.1474609
						c11.4882202,45.7237549-36.7612915,97.2442627-107.7437744,115.0787354
						c-71.019104,17.84375-118.8131714,13.3686523-130.3013306-32.3551025
						c-0.5373535-2.1387939-51.3179932-8.9112549-51.5880127-11.0780029
						c-29.7702942,12.1055908-27.8190613,12.6230469-56.6073608,28.637207
						c-310.5523071,172.581543-462.6901855,519.7554932-401.9381104,850.7998047
						c-115.5037994-359.0767822,34.3468933-761.381958,376.6177979-951.5765381
						c389.4988403-216.4474487,880.7406616-76.1624756,1097.1975098,313.373291
						C1590.7606201,1591.1052246,1619.979248,1674.3199463,1635.413208,1758.5286865z"/>
				</g>
				<g>
					<path class="st2" d="M841.2044067,2707.5222168c-285.0023804,0.012207-561.8187866-150.3686523-709.7923584-416.6601562
						C26.2630329,2101.6335449,1.0946321,1882.7858887,60.5477333,1674.6292725
						c59.4530983-208.1568604,196.406189-380.7032471,385.6322937-485.8521729
						c189.2284851-105.1538086,408.0810852-130.3198242,616.2353516-70.8641357
						c208.1567383,59.4505615,380.7006836,196.4061279,485.8520508,385.6323242
						c105.1489258,189.2283936,130.3173828,408.0784912,70.8642578,616.2352295s-196.40625,380.7006836-385.6323242,485.8520508
						C1109.1610107,2674.7219238,974.2782593,2707.5148926,841.2044067,2707.5222168z M838.7093506,1123.6989746
						c-129.6826172,0-257.9272461,32.956543-374.4092102,97.6831055
						c-180.5200195,100.3101807-311.1694031,264.9145508-367.8857117,463.4912109s-32.7074966,407.3510742,67.6025085,587.8686523
						c141.1499023,254.0136719,405.2660828,397.4707031,677.1241455,397.4853516
						c126.9725952,0.0048828,255.6029663-31.2768555,374.2382202-97.2021484
						c180.5200195-100.3100586,311.1694336-264.9121094,367.8857422-463.4887695s32.7075195-407.3533936-67.6049805-587.8710938
						c-100.3076172-180.5198975-264.9121094-311.171875-463.4887695-367.8881836
						C981.7293091,1133.6599121,910.0008545,1123.6989746,838.7093506,1123.6989746z"/>
				</g>
				<g>
					<path class="st2" d="M952.7345581,2267.9853516c3.8830566,7.8344727,7.2460938,16.0424805,9.6654663,24.6069336
						c2.3632812,8.5693359,3.9733887,17.4194336,4.6508789,26.4086914
						c0.7129517,8.9892578,0.3662109,18.0834961-0.7531738,27.0996094
						c-1.1962891,8.815918-2.7697144,17.4267578-5.1123047,26.0620117
						c-4.6276855,17.1875-11.8029175,34.2089844-22.4071655,49.6118164
						c-10.6604004,15.3100586-24.9915161,28.6157227-41.5039062,38.1054688
						c-16.5125122,9.5239258-34.9048462,15.0512695-53.0834961,17.5244141
						c-18.2434082,2.6391602-36.3684082,2.3193359-54.0601196,0.6591797
						c-8.8684082-1.0522461-17.4279175-2.3022461-26.2805176-4.0820312
						c-8.9928589-1.7431641-17.8430176-4.2700195-26.5148926-7.2973633
						c-8.684082-3.0078125-17.1483765-6.6943359-25.303894-10.9912109
						c-8.1677246-4.2700195-16.0803223-9.0917969-23.4473267-14.6923828
						c-14.7998047-11.0693359-28.0993652-24.296875-38.861084-39.5166016
						c-10.8203125-15.1318359-19.2955933-32.1875-24.0393066-50.4101562
						c-10.0267944-36.3037109-5.2904663-76.6015625,13.3557129-108.90625
						c18.190979-32.7001953,48.9379883-56.3085938,82.3693848-68.4472656
						c33.6279297-12.0849609,70.2930298-13.3129883,103.4778442-4.1796875
						c2.9699707,0.8178711,4.7143555,3.8891602,3.897644,6.8579102c-0.736084,2.6733398-3.3080444,4.3530273-5.9789429,4.0649414
						c-32.1533203-3.4350586-64.5422363,1.40625-92.4976196,14.7705078
						c-27.9846191,13.0859375-51.2109375,34.9023438-64.1015015,61.3305664
						c-12.8063965,26.4111328-15.399231,57.2216797-6.628418,84.8291016
						c8.4631348,27.7148438,26.9238281,52.4682617,50.9631348,69.6826172
						c12.0629883,8.5205078,25.1366577,15.8300781,39.2102051,20.7788086
						c7.0080566,2.512207,14.1796875,4.6484375,21.5160522,6.1230469c7.4475098,1.5722656,15.3540039,2.800293,22.9993286,3.7744141
						c15.3551636,1.8676758,30.7470703,2.644043,45.5333862,0.9521484
						c14.8242188-1.5332031,28.9356079-5.4882812,41.7493286-11.7553711
						c25.5687866-12.7246094,44.3126831-37.3657227,54.5922852-66.5917969
						c2.5853882-7.2583008,4.9083862-14.8535156,6.7041016-22.4023438
						c1.7749023-7.3681641,2.8087769-14.9316406,3.170166-22.5830078
						c0.814209-15.3027344-1.3549805-30.9570312-6.0388794-46.1279297l-0.0463867-0.1489258
						c-1.126709-3.6474609,0.9179688-7.5195312,4.5678711-8.6474609
						C947.7870483,2263.4321289,951.2562256,2264.9946289,952.7345581,2267.9853516z"/>
				</g>
				<g class="st7">
					<path class="st1" d="M1026.3768311,1854.5350342c-38.0025024,18.7042236-81.0166016,15.7775879-115.0737915-4.0179443
						c19.1734009,6.3388672,40.3499756,7.4812012,61.3739624,2.1988525
						c59.1276855-14.855957,94.991333-74.8398438,80.135376-133.9676514
						c-14.8469238-59.0916748-74.8036499-95.0004883-133.9313354-80.1445312
						c-3.473999,0.8728027-6.8300171,1.9083252-10.1495972,3.088623c3.2642822-2.0126953,6.6104736-3.8536377,10.1011963-5.5771484
						c60.322998-29.697876,133.2976074-4.9075928,162.9954834,55.4152832
						C1111.5352783,1751.8896484,1086.699707,1824.8369141,1026.3768311,1854.5350342z"/>
				</g>
				<g class="st6">
					
						<ellipse transform="matrix(0.7071068 -0.7071068 0.7071068 0.7071068 -1231.9338379 851.220459)" class="st4" cx="411.5470581" cy="1912.6859131" rx="166.5128632" ry="166.5128326"/>
				</g>
				<g class="st7">
					<path class="st1" d="M642.8618164,1846.6247559c36.7791138,106.2302246-19.5332642,222.1850586-125.7634888,258.9641113
						c-106.2655029,36.7912598-222.2203064-19.5209961-258.9993896-125.7512207
						c-0.7323914-2.1153564-1.4174194-4.2077637-2.0671997-6.3125
						c34.9752808,77.7553711,124.1641846,117.3151855,206.2783813,88.885498
						c86.9093018-30.0898438,132.9641113-124.9229736,102.8743286-211.8322754
						c-30.0898438-86.9093018-124.9230042-132.9642334-211.8323059-102.8743896
						c-23.6928101,8.2030029-44.3330994,21.2320557-61.2531128,37.5928955
						c23.1371155-28.739502,54.3432007-51.5072021,91.7864075-64.4708252
						C490.1157227,1684.046875,606.0704346,1740.3592529,642.8618164,1846.6247559z"/>
				</g>
				<g>
					<path class="st2" d="M284.8939209,1783.3686523c26.2158203-29.7900391,63.9331055-50.0683594,104.2627258-56.2548828
						c40.423584-6.6601562,83.2555847,1.418457,119.537384,21.7260742
						c18.1066895,10.2514648,34.4238281,23.6767578,48.2556152,39.3505859l5.102478,5.9643555l2.5440063,2.9931641
						l2.2705078,3.2006836c2.9869995,4.2993164,6.0668945,8.5498047,8.9403687,12.9321289l7.701416,13.7255859
						c2.5256958,4.5996094,4.3737793,9.53125,6.4942017,14.3334961
						c7.6477051,19.5092773,12.6782227,40.1171875,13.807312,61.1621094
						c1.0059204,20.9960938-1.1218262,42.2119141-6.9812012,62.4194336
						c-5.637207,20.2709961-14.9547729,39.4360352-26.9970093,56.5893555
						c-11.9995117,17.1850586-26.7333984,32.4731445-43.6669922,44.8217773
						c-16.9909973,12.2851562-36.0596008,21.4648438-55.8959961,27.6391602
						c-5.0244141,1.340332-9.928009,3.137207-15.0464172,4.050293l-15.3405762,2.6757812
						c-10.3381042,0.9277344-20.6775208,1.9116211-31.033905,1.2353516
						c-20.637207-0.8642578-41.1817017-4.7290039-60.2612-12.3510742
						c-19.0209961-7.6806641-36.7444153-18.2470703-52.1656189-31.4111328
						c-31.2023926-26.0693359-51.7736816-63.1958008-59.0990906-101.7114258
						c-0.5737-3.0200195,1.4087067-5.9350586,4.4299011-6.5087891c2.7539062-0.5249023,5.4199982,1.0791016,6.3050079,3.6547852
						l0.0487976,0.1464844c11.9945831,34.8291016,33.4192047,65.7983398,62.727005,86.184082
						c14.4263,10.324707,30.2758789,18.4619141,46.9702759,23.8232422
						c16.751709,5.1757812,34.1626282,7.7099609,51.4660034,7.4731445
						c8.6707153,0.1611328,17.2559204-1.2011719,25.7837219-2.3510742l12.6208801-2.8686523
						c4.2212219-0.859375,8.221405-2.565918,12.3401184-3.7768555
						c16.2145996-5.6567383,31.5697937-13.6547852,45.0890808-24.1162109
						c26.6185913-21.1865234,47.4255371-50.2832031,56.0327148-83.293457
						c4.3334961-16.394043,6.4660034-33.3569336,5.7373047-50.3320312
						c-0.7593384-16.9799805-4.7875977-33.7646484-10.8289185-49.6191406
						c-11.6638184-32.121582-35.3125-59.0576172-64.113678-77.7661133
						c-14.5971985-9.1894531-30.802002-15.7885742-47.635498-19.9536133
						c-16.8103027-4.1967773-34.4776001-6.0498047-52.000824-4.2749023
						c-35.2721863,2.2460938-69.7778015,16.7822266-97.7355957,40.3393555
						c-2.9161987,2.4682617-7.2814941,2.1069336-9.750885-0.8081055
						C282.5648193,1789.7626953,282.6710205,1785.902832,284.8939209,1783.3686523z"/>
				</g>
				<g>
					<path class="st2" d="M1360.5958252,2019.7675781c8.3007812,0.8935547,16.6381836,2.4316406,24.7827148,4.934082
						c8.1188965,2.5561523,16.0498047,5.9569092,23.5852051,10.2124023
						c15.1075439,8.4765625,28.2972412,20.5834961,38.5560303,34.9389648
						c10.1647949,14.4287109,17.2496338,31.0205078,21.1009521,48.2446289
						c3.8317871,17.265625,4.2382812,35.1269531,1.8737793,52.4462891
						c-2.2351074,17.3657227-7.2363281,34.2651367-14.3615723,50.1513672
						c-7.3608398,15.7739258-16.6490479,30.5664062-27.5317383,44.1088867
						c-11.352417,13.1152344-24.0075684,25.0585938-38.0797119,35.3320312
						c-14.272583,9.9536133-29.6595459,18.4985352-46.180542,24.4848633
						c-16.5368652,5.9204102-34.020874,9.4042969-51.7663574,10.2685547
						c-17.713501,0.7910156-35.9082031-0.9887695-53.0664062-6.9702148
						c-17.1630859-5.7568359-33.3044434-15.0048828-46.796875-27.1484375
						c-13.5460205-12.0507812-24.3725586-27.1459961-31.4379883-43.6254883
						c-14.251709-33.1225586-13.8768311-70.0195312-3.8171387-102.265625
						c5.2600098-16.1376953,12.5390625-31.3989258,21.7200928-45.2880859
						c9.4066162-13.762207,20.6053467-25.9960938,32.8479004-36.784668
						c2.3070068-2.0336914,5.8250732-1.8115234,7.8587646,0.4956055c1.8310547,2.0751953,1.8334961,5.1342773,0.131958,7.2070312
						l-0.1343994,0.1635742c-9.7875977,11.953125-18.2897949,24.6508789-25.2563477,38.0151367
						c-6.5454102,13.5864258-11.7224121,27.6416016-14.6812744,42.0727539
						c-6.1329346,28.7719727-3.1116943,58.7524414,9.1455078,83.3862305
						c12.6304932,24.465332,34.979126,42.6464844,60.9569092,50.1782227
						c26.0900879,7.5854492,55.168457,5.246582,81.5308838-4.53125
						c13.1102295-5.1904297,25.7542725-11.7114258,37.4951172-19.7924805
						c11.5795898-8.3203125,22.1202393-18.1005859,31.6185303-28.8061523
						c9.2102051-10.9277344,17.3339844-22.7416992,23.8208008-35.4541016
						c6.2525635-12.8125,10.7006836-26.3916016,13.5083008-40.2514648c0.5091553-3.4838867,1.3562012-6.965332,1.6369629-10.4736328
						l0.7971191-10.5493164l-0.2233887-10.534668c-0.0292969-3.5302734-0.8154297-6.9384766-1.072998-10.4492188
						c-1.8933105-13.8598633-6.3269043-27.3413086-13.3824463-39.4580078
						c-13.5950928-24.7998047-38.6097412-42.8027344-67.5965576-50.6713867l-0.1329346-0.0366211
						c-3.6866455-1.0009766-5.8631592-4.7998047-4.8621826-8.4863281
						C1354.0858154,2021.503418,1357.2730713,2019.40625,1360.5958252,2019.7675781z"/>
				</g>
				<g class="st6">
					
						<ellipse transform="matrix(0.7071068 -0.7071068 0.7071068 0.7071068 -957.350769 1180.0583496)" class="st4" cx="945.7811279" cy="1745.6538086" rx="110.3723907" ry="110.372467"/>
				</g>
				<g>
					<path class="st2" d="M851.8336182,1814.2817383c-16.1339722-19.3530273-24.8546753-45.4418945-24.3200073-71.7041016
						c0.1184082-13.1860352,2.8674316-26.3964844,7.4780273-38.9379883
						c4.7606812-12.4975586,11.628418-24.2724609,20.2733765-34.6801758
						c17.4024048-20.6347656,42.1118164-35.7373047,69.1675415-40.847168
						c13.4643555-2.4853516,27.322998-3.2495117,40.9887695-1.2597656
						c13.618103,2.0361328,26.9580078,6.1450195,39.1931152,12.4609375
						c24.6459351,12.3974609,44.3468628,33.605957,55.8348999,58.3813477
						c5.69104,12.4560547,9.0429688,25.871582,10.2941895,39.3408203
						c1.4466553,13.4643555,0.119751,27.1191406-3.1713867,40.1220703
						c-3.326416,12.9785156-8.494751,25.4980469-15.9422607,36.484375
						c-7.4523926,10.949707-16.5015869,20.6787109-26.8909912,28.5229492
						c-20.6664429,15.9106445-46.7370605,23.5473633-71.4611816,22.3461914
						c-3.0809937-0.1513672-5.4577026-2.7685547-5.3075562-5.8496094c0.1281738-2.6367188,2.0629883-4.7558594,4.5482788-5.2197266
						l0.1940918-0.0366211c22.010498-4.1113281,42.2156372-13.75,56.9348145-28.918457
						c7.4108887-7.4169922,13.7145996-15.7788086,18.4388428-24.8974609
						c4.5983887-9.1796875,7.8540039-18.8818359,9.4530029-28.8037109c0.9766846-4.934082,1.0449219-9.9829102,1.2598877-14.9536133
						l-0.3649902-7.4829102c-0.0513916-2.4902344-0.633667-4.9414062-0.8948975-7.4047852
						c-1.5941162-9.7827148-4.519043-19.2724609-8.9477539-28.0200195
						c-9.1307983-17.2753906-23.3447266-31.9555664-40.8435059-40.4858398
						c-8.7120972-4.2431641-17.9833984-7.2875977-27.5720215-8.7548828
						c-9.5873413-1.4208984-19.4603882-1.1816406-29.053894,0.3857422
						c-19.3359985,2.8857422-37.196106,12.9125977-51.3769531,26.8212891
						c-7.0007324,7.109375-12.7209473,15.480957-17.2070312,24.5141602
						c-4.5435181,9.0014648-7.8991699,18.8305664-9.1394043,29.0966797
						c-3.4168091,20.5371094,0.2929077,42.3608398,9.9730835,62.2119141l0.0378418,0.0756836
						c1.6821899,3.4472656,0.2503052,7.6049805-3.1970215,9.2871094
						C857.2804565,1817.5043945,853.8331299,1816.6791992,851.8336182,1814.2817383z"/>
				</g>
				<g class="st8">
					<path class="st1" d="M1439.2102051,1676.8352051c-14.8513184,17.9154053-37.0847168,20.8328857-58.6223145,10.5507812
						c11.0435791,2.326416,21.9222412,0.6751709,31.2784424-5.5869141
						c26.3133545-17.6113281,30.8009033-65.0162354,10.041748-105.8781738
						c-20.7467041-40.8370361-58.9013672-59.7015381-85.2145996-42.09021
						c-1.5460205,1.03479-2.9962158,2.1729736-4.3956299,3.4111328c1.1843262-1.8314209,2.4482422-3.5487061,3.8112793-5.1982422
						c23.5722656-28.4437256,65.7540283-19.1104736,94.2264404,20.8782959
						C1458.8210449,1592.935791,1462.7824707,1648.3914795,1439.2102051,1676.8352051z"/>
				</g>
				<g class="st6">
					
						<ellipse transform="matrix(0.9337562 -0.3579096 0.3579096 0.9337562 -484.4132996 598.3752441)" class="st4" cx="1374.2796631" cy="1607.8103027" rx="56.5537949" ry="83.5022888"/>
				</g>
				<g class="st7">
					<path class="st1" d="M1442.7889404,1677.8677979c-11.5289307,7.7236328-25.1099854,9.1409912-38.7658691,5.2614746
						c0.746582-0.4108887,1.4552002-0.8581543,2.2016602-1.3436279c26.303833-17.6104736,30.78125-64.9957275,10.036377-105.8497314
						c-17.3864746-34.2518311-47.0112305-53.019165-71.6362305-47.8325195
						c3.8057861-6.1195068,8.6558838-11.2678223,14.4018555-15.1109619
						c29.3260498-19.5881348,71.822998,1.3808594,94.9554443,46.9371338
						C1477.1149902,1605.4482422,1472.0776367,1658.2424316,1442.7889404,1677.8677979z"/>
				</g>
				<g>
					<path class="st2" d="M1339.416626,1669.328125c-12.7391357-10.5859375-22.3400879-24.8095703-28.9282227-40.3295898
						c-6.5808105-15.5712891-10.0805664-32.9711914-8.6193848-51.1303711
						c0.7189941-9.0673828,2.7088623-18.3544922,6.8421631-27.4267578
						c4.0831299-9.0087891,10.4405518-17.8857422,19.4274902-24.6069336
						c8.9793701-6.6748047,20.31604-10.6445312,31.4256592-10.9179688
						c11.1303711-0.3320312,21.5882568,2.4023438,30.4724121,6.7163086
						c17.866333,8.6889648,30.8204346,22.277832,40.2709961,37.1533203
						c9.5556641,14.9316406,15.3564453,31.5161133,18.1031494,48.5595703
						c2.4816895,17.097168,1.4232178,34.9804688-4.9403076,51.6430664
						c-3.3081055,8.2202148-7.9197998,16.2426758-14.5935059,22.6000977
						c-6.5234375,6.4038086-15.0341797,11.0449219-23.8157959,12.3120117
						c-3.0762939,0.4443359-5.9302979-1.6894531-6.3746338-4.765625c-0.3404541-2.3632812,0.8387451-4.5947266,2.7978516-5.703125
						l0.2539062-0.1416016c11.6113281-6.5356445,17.5134277-18.2177734,19.4458008-30.9033203
						c0.9973145-6.328125,1.2390137-12.8564453,0.6738281-19.3774414
						c-0.6384277-6.5307617-1.9165039-13.0273438-3.6900635-19.3676758
						c-3.6915283-12.6904297-9.5582275-24.7924805-17.1105957-35.078125
						c-7.5048828-10.2612305-17.0325928-18.8012695-26.7408447-23.2446289
						c-9.8619385-4.4702148-18.2080078-4.1943359-24.8400879,0.2197266
						c-6.8395996,4.2675781-12.6513672,14.5336914-14.909668,26.6186523
						c-2.4584961,12.0605469-2.0373535,25.6079102,0.6604004,38.9599609
						c2.4133301,13.5400391,7.6196289,26.6430664,14.6484375,39.2089844l0.1159668,0.2099609
						c1.8861084,3.371582,0.6811523,7.6318359-2.6903076,9.5166016
						C1344.708374,1671.503418,1341.5773926,1671.1152344,1339.416626,1669.328125z"/>
				</g>
				<g class="st7">
					<path class="st1" d="M936.4928589,1436.7236328c-28.4208984,7.8647461-20.4677734,9.2841797-47.8916016,4.1552734
						c14.7421875,4.8740234,1.3150635-1.1177979,17.4802856-5.1793213
						c45.4627686-11.4226074,73.0379028-57.5437012,61.6152954-103.0063477
						c-11.4155884-45.4350586-57.5158081-73.045166-102.9785156-61.6225586
						c-2.6710815,0.6711426-5.2514648,1.4674072-7.8040161,2.375c2.5099487-1.5476074,5.0828247-2.9631348,7.7668457-4.2883301
						c46.3817749-22.8344727,102.491272-3.7735596,125.3256836,42.6082764
						C1012.8484497,1358.1751709,986.3190308,1422.9355469,936.4928589,1436.7236328z"/>
				</g>
				<g class="st6">
					<path class="st4" d="M967.7077026,1332.7009277c11.4210205,45.456543-8.623291,99.1306152-54.0797119,110.5515137
						c-45.4564819,11.4210205-99.1116333-23.7358398-110.5326538-69.1922607
						c-11.4210205-45.456543,16.170105-91.5648193,61.6265869-102.9858398S956.2867432,1287.2445068,967.7077026,1332.7009277z"/>
				</g>
				<g>
					<path class="st2" d="M811.8336182,1407.0209961c-13.1517944-14.8217773-20.435791-35.3735352-20.357605-56.2280273
						c0.0292969-20.9545898,7.6647949-42.2509766,21.4587402-58.9526367
						c13.8353882-16.5698242,33.5656738-28.8208008,55.27948-32.9907227
						c10.7996216-2.0166016,21.9165039-2.6660156,32.8955078-1.0693359
						c10.9351196,1.6308594,21.6625977,4.9145508,31.4771118,10.0073242
						c19.7753906,9.9804688,35.5578613,27.0410156,44.6630859,46.9580078
						c4.5214844,10.0048828,7.1483765,20.7763672,8.0712891,31.5576172
						c1.0717163,10.7739258-0.0269165,21.6796875-2.7124023,32.0556641
						c-2.7857056,10.3417969-7.0690918,20.2563477-13.1005859,28.9208984
						c-6.0449219,8.6328125-13.3203125,16.2695312-21.652832,22.3510742
						c-16.5771484,12.3193359-37.3010864,17.9589844-56.6247559,16.4208984
						c-3.0859375-0.246582-5.3894043-2.9467773-5.144043-6.0327148c0.2037964-2.5537109,2.0861206-4.5703125,4.4775391-5.0537109
						l0.102478-0.0170898c33.503418-6.7407227,58.1824341-33.6181641,61.7236938-63.0004883
						c2.3265991-14.5214844-0.6812134-29.4189453-6.9970703-41.9726562
						c-6.7493286-12.4169922-17.0447388-22.9492188-29.6729126-29.0600586
						c-6.2915039-3.0249023-12.9503784-5.2441406-19.8571167-6.3037109
						c-6.9006958-1.027832-14.0307617-0.9057617-20.9594727,0.1953125
						c-13.9562988,1.9775391-26.9580078,9.0454102-37.4072266,19.0380859
						c-5.1098633,5.1391602-9.486084,11.0864258-12.9162598,17.6367188
						c-3.4863281,6.5112305-6.1365356,13.6791992-7.2192383,21.2353516
						c-2.9614868,15.1292725-0.6873169,31.4160156,6.0106812,46.7358398l0.0647583,0.1489258
						c1.541748,3.527832-0.0671387,7.6391602-3.5950317,9.1820068
						C817.0045166,1410.0239258,813.7855225,1409.2158203,811.8336182,1407.0209961z"/>
				</g>
				<g>
					<path class="st9" d="M600.0758667,1306.4082031c-8.0029297-21.1445312-46.4033203-33.2387695-90.0273743-16.7275391
						c-43.2480469,16.3681641-71.234375,53.690918-68.0224609,75.9335938l-0.2685547,0.1015625
						c8.0029297,21.1445312,46.4033203,33.2392578,90.0273743,16.7280273
						c43.2480469-16.3686523,71.234375-53.690918,68.0224609-75.9335938L600.0758667,1306.4082031z"/>
					<g>
						<path class="st2" d="M435.7863464,1367.2797852c-1.9312134-5.3712158-2.1473083-11.015625-1.556427-16.2402344
							c0.5236206-5.2978516,2.025116-10.2319336,3.7536011-14.9780273
							c3.6292114-9.4433594,8.978302-17.8271484,15.1490173-25.4029541
							c12.5047913-15.0072021,28.6108093-26.7479248,46.6101074-34.4041748
							c17.9100647-7.6049805,38.0455627-11.3354492,58.1896667-8.4960938
							c10.0195312,1.4526367,20.0756226,4.5483398,29.1491089,10.2050781
							c4.4653931,2.9394531,8.7561035,6.394043,12.2875977,10.7348633c1.7443848,2.1948242,3.2958984,4.5800781,4.6033325,7.097168
							c1.1950684,2.6098633,2.1898804,5.3100586,2.6793823,8.125c0.6726074,3.8696289-1.9188843,7.5512695-5.7897949,8.2250977
							c-2.5560913,0.4443359-5.0305176-0.5371094-6.6088257-2.3681641l-0.7531738-0.8789062
							c-4.194397-4.8925781-10.0220337-7.9223633-16.6638184-9.7509766
							c-6.6248169-1.8359375-13.8134766-2.5708008-21.0803833-2.421875
							c-14.5715332,0.3344727-29.3762207,3.8818359-43.4619141,9.5874023
							c-14.0319824,5.7470703-27.3291016,13.7915039-38.9953003,23.7353516
							c-5.8179016,4.9633789-11.1938782,10.4467773-15.7165833,16.3549805
							c-4.5422058,5.8837891-8.0603027,12.3120117-9.1723938,18.7182617l-0.1867065,1.0766602
							c-0.6091003,3.5131836-3.951416,5.8666992-7.4645996,5.2563477
							C438.3925171,1371.0444336,436.5504456,1369.3867188,435.7863464,1367.2797852z"/>
					</g>
				</g>
			</g>
			<g>
				<g>
					<path class="st1" d="M71.5838318,800.6725464c39.3498993,82.5252075,99.4750977,155.5635986,177.4272003,210.5784912
						c15.9015961,11.2105103,32.481308,21.671936,49.7884979,31.2971802
						c8.4060974,4.7084961,17.0519104,9.1986084,25.8414917,13.5588379
						c26.5562134,12.9963379,53.6365967,23.6298828,81.0534973,31.9857178
						c23.6134033,7.2596436,47.4920044,12.7872314,71.4000244,16.7108154
						c28.8712769,4.7526855,57.8562622,7.0784912,86.6723022,7.1479492
						c10.5092773-0.0102539,20.9859619-0.2987061,31.4295044-0.8632812
						c191.1340942-10.7496338,371.0033569-121.6106567,461.1160278-305.8015137
						c132.8005371-271.3032227,20.4833984-598.8703003-250.7739258-731.6685181
						c-52.262146-25.5393028-106.644104-42.0921021-161.2936401-50.0295029c-6.3782959-0.9888-12.8110962-1.7952995-19.25-2.4653988
						c-17.2109985-1.9103012-34.4146729-2.9934006-51.5658569-3.2494011
						c-39.6677246-0.5792999-79.0822144,3.2126007-117.4957275,11.0893002
						C417.5220337,36.79533,380.0183411,48.75383,344.215332,64.5555267
						c-11.387207,5.0174026-22.60849,10.4100037-33.6658936,16.2238007
						c-16.5634155,8.7200012-32.7052917,18.2406998-48.3867188,28.7018051
						C183.9606323,161.3322296,118.086235,234.0471344,73.8671341,324.4385376
						C-2.5327678,480.4994202,2.1995323,655.1512451,71.5838318,800.6725464z"/>
					<path class="st4" d="M563.7704468,1113.7332764c-29.2236938-0.0708008-58.4815063-2.4829102-86.9654236-7.1729736
						c-24.3358765-3.9940186-48.4375-9.6337891-71.6333008-16.7626953
						c-27.7050781-8.4448242-55.0634766-19.2407227-81.3134766-32.0897217
						c-9.6435242-4.7852783-18.1225281-9.2333984-25.9301147-13.6035156
						c-17.0093079-9.4605713-33.8135071-20.0269775-49.9438934-31.3990479
						c-76.1914062-53.7694702-137.7466125-126.8261108-178.0102081-211.2670898
						C-2.648068,649.1213379-1.8130678,474.9758301,72.2664337,323.6550293
						c42.8222961-87.5341034,108.1470032-162.1069031,188.9135895-215.6590881
						c15.2709961-10.190506,31.6040039-19.878006,48.5401001-28.7940063
						c10.8764038-5.7177963,22.2387085-11.1937943,33.7767944-16.2767982
						c35.9155273-15.8521004,73.6255188-27.8686981,112.0801086-35.7080002
						c38.8060913-7.9589996,78.4619141-11.7139006,117.878418-11.1254997
						c17.1361694,0.2563,34.5435181,1.352499,51.7359009,3.2616997c6.7479858,0.7006989,13.2518921,1.5331993,19.3261108,2.4755993
						c55.793457,8.1030006,110.2392578,24.9902,161.8017578,50.1879997
						c271.7382812,133.032196,384.6020508,462.3265686,251.5942383,734.0527344
						c-87.1289062,178.0907593-264.3945312,295.649353-462.6172485,306.7992554
						C584.8495483,1113.4329834,574.2440186,1113.7233887,563.7704468,1113.7332764z M73.1917343,799.9050293
						c40,83.8916016,101.1547928,156.4697876,176.8482056,209.8901978
						c16.0254059,11.2988281,32.7222137,21.7943726,49.6265106,31.1963501
						c7.7586975,4.3457031,16.1864929,8.7670898,25.7666016,13.5179443
						c26.0741882,12.7613525,53.254303,23.4887695,80.781189,31.8798828
						c23.0469055,7.0825195,46.9896851,12.6879883,71.1694031,16.6552734
						c28.2958984,4.6582031,57.3608704,7.0557861,86.3891907,7.1240234
						c10.4053345-0.0097656,20.9473267-0.2977295,31.328125-0.859375
						c196.9335938-11.0742188,373.046875-127.8710938,459.609375-304.8070679
						c132.1459961-269.9609375,20.0146484-597.1142578-249.9561157-729.2822266
						c-51.2304077-25.036602-105.3197632-41.814003-160.7666016-49.8682022
						c-6.0301514-0.9349995-12.4754639-1.7601986-19.1748047-2.4559994
						c-17.0946655-1.8969994-34.387146-2.985899-51.4110718-3.2397995
						c-39.140625-0.5859013-78.5570984,3.1493988-117.1094055,11.0522995
						c-38.2080078,7.7904987-75.6737976,19.7264996-111.3573914,35.4785004
						c-11.4648132,5.0512009-22.7539062,10.4906998-33.554718,16.1694031
						c-16.8261719,8.857399-33.0516968,18.483902-48.227478,28.6059952
						C182.911026,164.1677246,118.0111313,238.2571259,75.469635,325.2224426
						C1.8685322,475.5593262,1.0384321,648.5745239,73.1917343,799.9050293L73.1917343,799.9050293z"/>
				</g>
				<g class="st3">
					<path class="st4" d="M71.5846329,800.6538086c39.3499985,82.5251465,99.4751968,155.5635986,177.4273071,210.5784912
						c15.9016113,11.2105103,32.4812927,21.6719971,49.7885132,31.2972412
						c8.4060974,4.7084961,17.0517883,9.1986084,25.8414917,13.5588379
						c26.5561829,12.9962158,53.6365967,23.6297607,81.0534058,31.9857178
						c23.6134949,7.2595215,47.4920959,12.7871094,71.4000854,16.7106934
						c28.8713074,4.7528076,57.8562927,7.0786133,86.6723328,7.1479492
						c10.5092773-0.0102539,20.9859619-0.2987061,31.4294434-0.8631592
						c191.1341553-10.7497559,371.003418-121.6107788,461.1160278-305.8015747
						c48.1254883-98.3294678,64.0643311-204.0916748,51.885498-305.2554626
						c-9.1883545,42.20047-23.5441895,84.0191956-43.3931885,124.5712585
						c-33.7922363,69.0716553-88.5452271,94.3687134-143.4421997,141.4040527
						c-91.4952393,78.3919678-198.2150269,157.6789551-317.6738281,164.3974609
						c-10.4434814,0.5645142-20.920166,0.8530273-31.4295044,0.8633423
						c-28.815979-0.069397-57.8009644-2.3952026-86.6722717-7.1480103
						c-23.90802-3.9235229-47.7866211-9.4511108-71.400116-16.7106934
						c-27.4167786-8.355896-54.4971008-18.9905396-81.0533752-31.9858398
						c-8.7897034-4.3601685-17.4354248-8.8502808-25.8415222-13.5598755
						c-17.3071899-9.6240845-33.8869019-20.0856323-49.7884827-31.2960815
						c-77.9521027-55.0160522-138.077301-128.0533447-177.4273071-210.5785522
						c-25.6461029-53.8414917-42.4773026-111.6739807-49.5978012-171.0700684
						C4.2643323,569.230957,20.2031326,692.9206543,71.5846329,800.6538086z"/>
				</g>
				<g>
					<path class="st4" d="M563.7801514,1124.0457764c-29.8096313-0.0708008-59.6216125-2.5292969-88.6499329-7.3096924
						c-24.789978-4.0673828-49.3505859-9.8144531-72.9906921-17.0800781
						c-28.2006836-8.5961914-56.0741882-19.597168-82.8148804-32.6854248
						c-9.8487244-4.885376-18.4766235-9.4117432-26.4356079-13.8673096
						c-17.3022156-9.6239014-34.4189148-20.3857422-50.8471985-31.9677124
						C164.4051361,966.34552,101.6878357,891.9119263,60.6649323,805.876709l0,0
						c-73.9868011-155.1757812-73.1323013-332.5927734,2.3389015-486.7553711
						c43.6254005-89.1772003,110.1831055-165.1562042,192.4755096-219.7216187
						c15.5444946-10.3710938,32.1875-20.2416992,49.4360962-29.3237991
						c11.0888062-5.8299942,22.668396-11.408699,34.4213867-16.5892982
						c36.5869141-16.1474991,75.0048218-28.3862,114.1795959-36.3744965
						c39.5264282-8.1031008,79.9512329-11.926301,120.0878906-11.3330002c17.4683228,0.2612,35.2076416,1.3793998,52.7246094,3.3227
						c6.8458252,0.7104998,13.5253906,1.5674,19.7681274,2.5341997
						c56.7553711,8.2422009,112.2265625,25.4467983,164.7509766,51.1156998
						c276.8505859,135.5346985,391.8359375,471.0180969,256.328125,747.8516235
						c-88.7645874,181.4379883-269.3579102,301.2035522-471.3013306,312.5609741
						C585.2254028,1123.7404785,574.4344482,1124.0358887,563.7801514,1124.0457764z M82.5008316,795.4666138
						c39.2432022,82.2998047,99.2334061,153.4985352,173.4863892,205.9008179
						c15.7226105,11.0864868,32.1069183,21.3867798,48.691391,30.6103516
						c7.6342163,4.2749023,15.910614,8.6182861,25.3369141,13.2935791
						c25.5346069,12.4974365,52.2020874,23.0223389,79.2041016,31.2523193
						c22.6268921,6.9556885,46.1133118,12.4512939,69.8339844,16.3428955
						c27.758728,4.5703125,56.2669983,6.9213867,84.7436218,6.989624
						c10.1903687-0.0097656,20.5493164-0.2929688,30.7470703-0.8447266
						c193.190918-10.8642578,365.9765015-125.4516602,450.9033203-299.0404663
						c129.6435547-264.855957,19.6362305-585.8227539-245.2271118-715.4882812
						C749.9569092,59.9197311,696.8929443,43.4573288,642.5057373,35.55933
						c-5.9595337-0.9227982-12.2313843-1.7285004-18.7598267-2.4047012
						c-16.8407593-1.8676987-33.8012085-2.9370975-50.4979858-3.1860981
						c-38.3814087-0.5664005-77.0556946,3.0883999-114.8852844,10.8422985
						c-37.4951172,7.6464996-74.2528992,19.3579025-109.2626953,34.8096008
						c-11.2548218,4.9585037-22.3291016,10.2954025-32.9223022,15.8641968
						c-16.5064087,8.689003-32.4219055,18.1299057-47.3023071,28.0567017
						c-78.7378082,52.209404-142.4048004,124.8924942-184.1430054,210.2124023
						C12.5228319,477.2488403,11.7098322,646.9949341,82.5008316,795.4666138L82.5008316,795.4666138z"/>
				</g>
				<g>
					<path class="st2" d="M563.7850342,1129.770874c-30.1342773-0.0708008-60.2563171-2.5562744-89.5849915-7.385376
						c-25.0415039-4.1088867-49.855896-9.9169922-73.7402039-17.2583008
						c-28.4814148-8.6815186-56.6382141-19.7924805-83.6523132-33.0150146
						c-9.9609985-4.9414062-18.6719055-9.5117188-26.7138977-14.0161133
						c-17.4657898-9.7144775-34.7558899-20.5834961-51.3500977-32.2828369
						c-78.4375-55.3563843-141.8017883-130.5565796-183.2445984-217.4730835l0,0
						c-74.7436981-156.7626953-73.881897-335.9937134,2.3656998-491.7358093
						c44.0698013-90.0904083,111.310997-166.8482056,194.4530945-221.9751129
						c15.6934052-10.471199,32.507309-20.444397,49.9316864-29.6166992
						c11.2085266-5.8935966,22.9077148-11.5307961,34.7802124-16.7626953
						c36.9555969-16.3135014,75.7666016-28.6768017,115.3442993-36.7481003
						c39.921814-8.1835995,80.7494812-12.0214996,121.313385-11.4453001c17.6539307,0.2637,35.5737915,1.3941001,53.2739868,3.3569
						c6.9018555,0.7154,13.6767578,1.5845001,20.012207,2.5659997
						c57.2900391,8.3203001,113.3276367,25.6982002,166.3890991,51.6284027
						c279.687561,136.9262085,395.8496704,475.8447266,258.9551392,755.5126953
						c-89.6727905,183.293396-272.1118164,304.2870483-476.1206055,315.7593384
						C585.4330444,1129.4606934,574.5418091,1129.7609863,563.7850342,1129.770874z M87.666832,793.0032349
						c38.8208008,81.4160156,98.1664963,151.8505859,171.6186829,203.6890259
						c15.5566101,10.9666748,31.7676086,21.1571655,48.1763,30.2855225
						c7.5634155,4.2333984,15.7568054,8.5327148,25.0975952,13.1641846
						c25.2344055,12.3509521,51.6162109,22.7635498,78.3301086,30.9056396
						c22.3926086,6.8847656,45.625,12.319458,69.0917969,16.171875c27.4584961,4.519043,55.6591797,6.8457031,83.828125,6.9116211
						c10.0708008-0.0097656,20.3272095-0.2905273,30.4248047-0.8348389
						c191.1156616-10.7496338,362.0556641-124.1089478,446.0717773-295.8399048
						c128.2568359-262.0239258,19.4262695-579.5532227-242.602478-707.8345337
						c-49.7266235-24.2993011-102.2217407-40.5859032-156.0205078-48.3984032
						c-5.9180298-0.9179993-12.0947876-1.7089996-18.5278931-2.3754997
						c-16.6992188-1.8530006-33.4790039-2.910099-49.9927368-3.1567001
						c-37.9906616-0.5639992-76.2279968,3.0565987-113.6498718,10.7275009
						c-37.1020203,7.5658989-73.4667969,19.1503983-108.1029968,34.4384995
						c-11.1352234,4.907196-22.0898132,10.1855011-32.5683289,15.6932983
						c-16.328186,8.5987015-32.0727844,17.9371033-46.7871704,27.7539978
						c-77.9077148,51.6552048-140.8886108,123.5595016-182.1801147,207.9638062
						C18.4383316,478.1887207,17.6351318,646.1184082,87.666832,793.0032349L87.666832,793.0032349z"/>
				</g>
				<g>
					<path class="st2" d="M147.6242371,918.3996582c308.4679871,240.083374,751.9665527,103.088562,794.8193359-281.6842041
						c29.1544189-261.7766113-204.6445923-492.4312134-457.8590088-504.3325195
						c-184.2930908-8.6619034-368.0050049,63.5027008-459.6418152,345.8552856c0,0-21.2633991,131.2575073,9.9896984,220.9848022
						c31.2530022,89.7272949,76.792099,171.7175903,76.792099,171.7175903L147.6242371,918.3996582z"/>
				</g>
				<g class="st3">
					<path class="st10" d="M837.7382202,311.4790344c33.0333862,68.6596069,48.5864258,145.4956055,39.7058105,225.2367859
						c-42.689209,383.2983398-482.9407043,520.6640625-791.25,284.375
						c14.7046051,30.3466797,25.5309982,49.8486328,25.5309982,49.8486328l35.8996048,47.4608765
						c308.4681091,240.0830688,751.9666138,103.0883789,794.819397-281.6845093
						C955.9572144,515.3828125,912.9554443,400.7563171,837.7382202,311.4790344z"/>
				</g>
				<g>
					<path class="st2" d="M485.8236389,1107.5637207c-27.2022095,0-54.6239929-1.875-82.0435181-5.6810303l-2.1459961-0.4737549
						c-28.320282-8.6328125-56.2841797-19.6678467-83.112793-32.7978516
						c-9.8828125-4.9022217-18.5375977-9.4433594-26.523407-13.9158936
						c-17.3534851-9.6533203-34.5287781-20.4468994-51.0082855-32.0679321
						c-77.8931122-54.9707031-140.8153992-129.6484375-181.972702-215.9643555l0,0
						c-74.2285004-155.6835938-73.3714981-333.6767578,2.3486977-488.3447876
						c43.7670975-89.4676819,110.5420074-165.6957855,193.1054077-220.4393921l1.2061005-0.8008041l1.3427887-0.5346985
						c67.1191101-26.6869965,144.0258179-38.2006989,228.6425171-34.2284966
						c150.6860657,7.0825005,301.9457703,83.1397095,404.6166687,203.4522095
						c94.3482056,110.5639038,138.100647,245.1195984,123.1983032,378.8818054
						c-16.2060547,145.378418-82.2437134,266.9115601-190.9740601,351.4574585
						C729.2806396,1068.5916748,609.8568115,1107.5637207,485.8236389,1107.5637207z M408.7020264,1074.4558105
						c144.6727905,19.7998047,289.2089844-16.7358398,396.7089844-100.3295898
						c102.6611328-79.8265991,165.0415039-194.8242188,180.3955078-332.5609741
						c14.0430298-126.0327148-27.4047852-253.0762024-116.706604-357.7246094
						C771.3314209,169.2703247,627.5008545,96.8533325,484.3539429,90.1272278
						c-80.0245056-3.7695007-152.605011,6.921402-215.7032166,31.7578049
						c-77.8856964,51.9531021-140.8959961,124.0795975-182.2778015,208.671875
						c-71.9628983,146.992218-72.7733994,316.157196-2.2240982,464.1235046
						c39.1088943,82.0166016,98.8916016,152.9736938,172.8905945,205.1953125
						c15.6689148,11.0498047,31.9995117,21.3134766,48.5278015,30.5079346
						c7.6098938,4.2601318,15.8618164,8.5887451,25.2612915,13.2518311
						C355.9334412,1055.9230957,382.1493225,1066.3015137,408.7020264,1074.4558105z"/>
				</g>
				<g>
					<path class="st2" d="M486.419342,1055.5203857c-121.9237976,0-245.7520142-42.1265259-349.7388306-123.0591431
						l-1.8506012-1.4404297l-38.6840897-51.4282837c-1.8896027-3.4033203-46.645504-84.3676147-78.0419006-174.5067749
						C-14.2593679,612.1658325,6.4535322,480.9304199,7.351932,475.3884277l0.6421003-2.6513062
						c80.732399-248.7499847,241.3793945-369.2407837,477.4267273-358.1542969
						c135.5346985,6.3720016,271.5552063,74.7435989,363.8525696,182.9003906
						c84.9243164,99.5117188,124.3016968,220.6884155,110.8812866,341.2059937
						c-19.3675537,173.8989258-120.168396,311.4771118-276.5526733,377.4561157
						C620.9432373,1042.583374,553.9657593,1055.5203857,486.419342,1055.5203857z M160.411026,905.7644043
						c151.1670074,116.6773071,346.1157227,146.4160156,509.3384399,77.5464478
						c144.1478882-60.8179321,237.0874023-187.8662109,254.9852905-348.5668945
						c12.3192749-110.625-24.1063843-222.1851196-102.5708008-314.1260376
						c-86.0253906-100.8055878-212.5366211-164.5189972-338.4179993-170.434494
						c-217.5610046-10.253891-366.1132202,101.5283051-441.4087219,332.1875
						c-2.0287971,13.618103-18.3519993,131.2450867,9.4239006,210.9911804
						c28.4643021,81.7211914,69.580101,158.0151367,74.9585037,167.8637085L160.411026,905.7644043z"/>
				</g>
				<g>
					<path class="st1" d="M901.4781494,641.1786499c0,0.7796631,0,1.6087036,0.0487671,2.3889771
						c1.9503174,106.7255249,66.1126099,189.3178101,144.0730591,184.9296875
						c78.5452881-4.3875122,141.3424072-95.4632568,140.3184814-203.3594971
						c-0.8287354-83.2260742-39.4434814-152.2148743-93.171875-177.2758789
						c-15.8455811-7.459198-33.0563965-11.0670166-50.949707-10.043396
						C963.2516479,442.2555237,900.4056396,533.3306274,901.4781494,641.1786499z"/>
				</g>
				<g class="st3">
					<path class="st4" d="M901.5269165,643.567627c1.9503174,106.7255249,66.1126099,189.3178101,144.0730591,184.9296875
						c78.5452881-4.3875122,141.3424072-95.4632568,140.3184814-203.3594971
						c-0.1799316-18.0723877-2.1416016-35.4733887-5.6529541-51.8991089
						c-14.9311523-69.848175-110.0897217-81.4532776-142.7352295-17.9238892l-35.1280518,68.3601074
						c0,0-19.8919678,45.8303833-64.6983643,45.8303833C922.4920044,669.5053101,910.5956421,658.3407593,901.5269165,643.567627z"
						/>
				</g>
				<g>
					<path class="st2" d="M1039.5247803,846.5066528c-32.7294312,0-63.7768555-12.9321289-90.1977539-37.6636353
						c-8.5235596-7.9785767-16.3092041-16.9289551-23.302124-26.7114258
						c-26.715332-37.3723755-41.8610229-86.8889771-42.3814697-140.7592773
						c-1.1376953-117.0874023,69.3555298-216.3719482,157.1386719-221.3208008
						c35.3344727-2.0189819,68.9428711,10.9619141,97.253418,37.4634399
						c41.0839844,38.4569702,65.0268555,99.4994507,65.6860352,167.4707031
						c1.1352539,117.0873413-69.3579102,216.3720703-157.1411133,221.3208008
						C1044.2220459,846.4407349,1041.8660889,846.5066528,1039.5247803,846.5066528z M1047.6986084,455.4934387
						c-1.6333008,0-3.269043,0.0463867-4.909668,0.1391907c-69.0576172,3.8940125-124.465332,87.0604858-123.5106812,185.3930054
						c0.5565796,57.421875,20.8934937,110.4321899,54.4042969,141.7993774
						c21.0228882,19.6777344,45.5394897,29.3237305,70.8910522,27.9003906
						c69.0576172-3.894043,124.465332-87.0605469,123.5131836-185.3930664l0,0
						c-0.559082-57.4243164-20.8959961-110.4321289-54.4067383-141.7993164
						C1094.0145264,465.1248169,1071.2972412,455.4934387,1047.6986084,455.4934387z"/>
				</g>
				<g>
					
						<ellipse transform="matrix(0.0768881 -0.9970397 0.9970397 0.0768881 361.1502991 1683.6506348)" class="st1" cx="1089.8183594" cy="646.7886963" rx="152.9702606" ry="115.7996521"/>
					<path class="st4" d="M1084.8543701,801.3845215c-14.21875,0-28.3276367-3.3544922-41.5356445-10.0390015
						c-59.5996094-30.1685181-87.3853149-119.4898071-61.940918-199.1137695
						c14.1479492-44.272522,42.2192383-78.022522,77.0214844-92.590332
						c25.6958008-10.7543945,53.3666992-9.8339844,77.9199219,2.5903015
						c59.5996094,30.1684875,87.3852539,119.4897156,61.940918,199.1138l0,0
						c-14.1503906,44.2749023-42.2241211,78.0223999-77.0239258,92.590332
						C1109.3660889,798.9065552,1097.0687256,801.3845215,1084.8543701,801.3845215z M1094.8665771,495.7547302
						c-11.6796875,0-23.4521484,2.421814-35.0488281,7.2752991c-33.8061523,14.1528931-61.1206055,47.0751953-74.9389038,90.3198853
						c-24.9194946,77.980896,2.0410156,165.3295898,60.1000366,194.7142944
						c23.9208984,12.109436,49.7998047,12.9639282,74.8388672,2.4829102
						c33.8061523-14.152771,61.1206055-47.0726929,74.9414062-90.3197632
						c24.9194336-77.9810181-2.0410156-165.3296509-60.1000977-194.714325
						C1121.8148193,499.0115356,1108.4066162,495.7547302,1094.8665771,495.7547302z"/>
				</g>
				<g class="st3">
					<path class="st4" d="M978.7990112,709.7457275c-7.4465942-28.4517822-7.1159058-59.0466919-0.4881592-87.8391113
						c22.4418945,63.4451904,80.5917358,88.8530273,134.8268433,56.5983276
						c35.0543213-20.8273926,60.3903809-60.975708,70.6218262-105.5344849
						c1.4415283,3.9921875,2.7016602,8.1928711,3.8395996,12.505188
						c18.9274902,72.4592896-8.0394287,167.0010986-65.7081299,201.3131104
						C1064.22229,821.1009521,997.7248535,782.1641235,978.7990112,709.7457275z"/>
				</g>
				<g>
					<path class="st2" d="M1086.3240967,822.2268066c-24.3701172,0-47.6000977-9.699646-67.5195923-28.2714844
						c-33.3374023-31.0791016-53.4398804-84.1455078-53.7767944-141.9555054
						c-0.5712891-98.7304688,53.503418-179.5776978,123.1103516-184.0575867
						c26.5380859-1.6918945,51.9384766,8.0053101,73.4741211,28.0809937
						c33.3349609,31.0766907,53.4375,84.1454773,53.7744141,141.9555969
						c0.5712891,98.7329102-53.5058594,179.5800171-123.112793,184.0576172
						C1090.2840576,822.1633301,1088.2991943,822.2268066,1086.3240967,822.2268066z M1093.9754639,503.3938293
						c-1.1669922,0-2.3486328,0.0365906-3.5473633,0.1148071c-49.1040039,3.1590881-90.2099609,71.066864-89.7607422,148.2861023
						c0.2782593,48.1810913,16.1449585,91.5795898,42.4389648,116.093689
						c9.8852539,9.2163086,26.0302734,19.9561157,46.8798828,18.581604
						c49.1040039-3.1567993,90.2099609-71.0645142,89.7607422-148.2861938
						c-0.2783203-48.1810913-16.1425781-91.5795288-42.4365234-116.093689
						C1127.9915771,513.4036255,1113.1014404,503.3938293,1093.9754639,503.3938293z"/>
				</g>
				<g class="st11">
					<path class="st1" d="M322.500824,245.1400299c3.0603027-4.3190002-15.8291016,0.5664062-15.8291016,0.5664062
						l-13.457489,0.9649963c0,0-23.9129944,2.7668915-35.6578064,4.9875946
						c-11.8544006,2.2416077-23.5603943,5.0458984-35.0712891,8.3952942
						c-13.8307037,4.0244141-26.3815002,11.7355957-35.783905,22.6480103
						c-39.8992004,46.3068848-70.0775986,102.2569885-86.4634018,165.4436951
						c-32.8725967,126.7843933-6.9532013,223.6111755,60.9218979,316.7513123c0,0-12.712204-66.9708252,13.1188049-199.6072388
						C188.7267303,491.101532,212.0180359,401.0630188,322.500824,245.1400299z"/>
				</g>
				<g class="st11">
					
						<ellipse transform="matrix(0.0768891 -0.9970397 0.9970397 0.0768891 143.0613708 1208.1883545)" class="st1" cx="724.0046997" cy="526.8348999" rx="85.1890335" ry="73.1053619"/>
				</g>
				<g class="st11">
					
						<ellipse transform="matrix(0.1607695 -0.986992 0.986992 0.1607695 -87.2097778 1310.1431885)" class="st1" cx="726.8037109" cy="706.3538818" rx="35.1772232" ry="30.1874866"/>
				</g>
			</g>
			<g>
				<path class="st1" d="M897.3433228,1021.5733032c167.3023071-44.8256836,154.9900513-179.1220703,134.7109985-207.3678589
					c-28.2747803-39.3828125-146.2990112-24.1417847-189.2058716,65.3190918
					c-42.0251465,87.6223755-116.4285889,56.3552856-127.2924194,190.342041
					c-9.743103,120.1647949,28.2457886,158.6112061,62.0443115,182.7529297
					c30.6057739,21.8613281,170.5794678,59.0412598,245.0913696-15.4506836
					c119.3529663-119.3210449,98.6870728-339.9157715,98.6870728-339.9157715L897.3433228,1021.5733032z"/>
			</g>
			<g class="st3">
				<path class="st4" d="M909.6894531,1021.8582153c0,0,7.536377,70.9092407,43.2398682,69.4944458
					c35.7036133-1.4146729,61.6431274-141.6515503,61.6431274-141.6515503S982.1147461,1004.4761353,909.6894531,1021.8582153z"/>
			</g>
			<g class="st3">
				<path class="st4" d="M1022.6791382,1237.1669922c-74.4846802,74.4844971-214.4550171,37.3314209-245.0596313,15.4581299
					c-33.8121948-24.1451416-71.8116455-62.59021-62.055603-182.7368164
					c0.267334-3.5637207,0.6235352-6.9937744,1.0245361-10.3348389
					c8.3305054,61.7436523,35.8167114,87.6707764,61.0310669,105.6680908
					c30.6046143,21.8730469,170.5749512,59.0263672,245.0596313-15.4580078
					c70.8314819-70.8317871,92.3928833-177.3464355,98.1841431-252.1876221l0.5345459-0.3117676
					C1121.3978271,897.2641602,1142.0236816,1117.8668213,1022.6791382,1237.1669922z"/>
			</g>
			<g>
				<path class="st2" d="M895.8058472,1015.8369141c28.6376953-17.3949585,55.8081055-31.7407837,78.3178711-51.0131836
					c11.114502-9.6729126,20.9558105-20.3638306,28.996521-32.2069702
					c7.9248047-11.8824463,14.3029785-24.8414307,18.0639648-38.7183228
					c3.8842773-13.7988281,5.2429199-28.4863281,3.8709717-42.5756836
					c-0.6678467-7.0019531-2.109436-13.9208984-4.1797485-19.8047485c-1.036377-2.7562866-2.3278809-5.6176758-3.2398071-6.8163452
					c-1.2780762-1.4941406-2.5487671-3.1592407-4.6776733-4.5386353c-3.8977051-2.9467163-9.6057129-5.2783203-15.9119263-6.6577148
					c-6.3098145-1.4208984-13.2177124-2.0067749-20.2416992-1.8944702
					c-14.1040039,0.1732788-28.6156616,3.347168-42.3400879,8.2689819
					c-27.4804077,10.1293945-51.7797241,28.6865845-67.434021,52.9273071
					c-1.8421021,3.0980835-3.8635864,6.0961914-5.46875,9.3358765l-2.4988403,4.807251l-3.2141113,5.949646
					c-2.2203979,3.9941406-4.2810059,8.0566406-6.673584,11.9677124l-7.9113159,11.3868408
					c-11.159668,14.8167725-25.2453613,27.3291016-39.017395,37.5
					c-13.7828979,10.2757568-26.6588745,18.8817749-36.3927612,28.9745483
					c-9.8450317,9.9682007-16.7822266,21.7578125-21.940918,35.1977539
					c-2.1314087,6.9921875-4.6729126,13.7646484-5.8753052,21.3330078
					c-0.7263184,3.7036133-1.6137085,7.3388672-2.2363281,11.0961914l-1.352478,11.5136719
					c-0.3991699,3.8647461-1.0424805,7.6098633-1.2561035,11.5698242l-0.7006836,11.8554688
					c-0.6567993,7.9272461-0.4138184,15.7348633-0.6079102,23.5986328
					c0.3198242,31.1400146,4.5593262,62.2241211,17.8479004,87.4560547
					c6.484314,12.7001953,15.6188965,23.3203125,26.6040039,32.8076172c2.9016113,2.2949219,5.6726074,4.6533203,8.8024902,6.875
					c1.5307007,1.1401367,3.1555176,2.3535156,4.1246948,2.9272461c1.0303345,0.7421875,2.631897,1.5405273,3.9746094,2.3217773
					c5.9899902,3.1201172,13.0078125,5.9350586,20.1428833,8.3666992
					c28.8708496,9.6606445,60.3857422,14.4726562,90.8972168,13.90625
					c30.5114136-0.5786133,60.6566772-7.331543,85.057312-22.5683594c6.036377-3.8598633,11.8250122-8.0737305,17.010498-12.9541016
					l3.9208984-3.6499023l3.9208984-4.1821289c2.5585938-2.8442383,5.369873-5.4418945,7.7355957-8.4741211
					c10.1429443-11.4868164,18.8708496-24.2797852,26.8896484-37.5073242
					c8.0177002-13.2519531,14.909668-27.2851562,20.8630371-41.7773438
					c5.9716797-14.4799805,11.1669922-29.362793,15.4260254-44.5898438
					c4.2480469-15.2294922,7.7832031-30.715332,10.5688477-46.3769531
					c2.8381348-15.6616211,4.1625977-31.5917969,5.2893066-47.4902954
					c2.7368164-31.8579102,3.9954834-63.3886108,14.5056152-96.1766968l0.0501709-0.1586914
					c1.0765381-3.359436,4.6739502-5.210022,8.0345459-4.1333008c1.682251,0.5394897,2.9956055,1.7260742,3.7426758,3.1835938
					c4.197998,8.2396851,6.628418,16.4769897,8.7341309,24.8706055c1.9995117,8.3740234,3.2421875,16.8164062,3.9161377,25.2733765
					c1.1925049,16.9092407,0.862915,33.8916016-1.1158447,50.7202148
					c-1.9702148,16.8359985-5.0463867,33.5205688-8.0419922,50.2197876
					c-3.0480957,16.6943359-6.7773438,33.3105469-11.385498,49.7508545
					c-4.6020508,16.4405518-10.2441406,32.6612549-16.8078613,48.569458
					c-6.5441895,15.9130859-14.1807861,31.4892578-23.1774902,46.3793945
					c-8.9953613,14.8657227-18.9013672,29.3408203-30.5187988,42.5366211
					c-2.7196045,3.4423828-5.9324951,6.484375-8.8817139,9.7387695l-4.5240479,4.8022461l-5.0891113,4.7680664
					c-6.8126831,6.3696289-14.3518066,11.9018555-22.1643066,16.8725586
					c-15.760498,9.7460938-32.911377,16.7993164-50.3881836,21.1010742
					c-17.4730835,4.4726562-35.2160034,6.4990234-52.791687,6.8823242
					c-35.2172852,0.5712891-69.675293-4.6630859-103.1751099-15.8032227
					c-8.4105835-2.890625-16.7272949-6.1352539-25.3270874-10.6079102
					c-2.2216797-1.2573242-4.3079224-2.3095703-6.6651001-3.9013672c-2.5195312-1.6015625-4.1699219-2.878418-5.9423218-4.1845703
					c-3.5705566-2.5463867-7.0935059-5.4858398-10.6188965-8.3129883
					c-13.9318848-11.8847656-26.5966797-26.6943359-35.0916138-43.3447266
					c-8.7096558-16.5551758-14.0343628-34.1870117-17.3449707-51.6552734
					c-3.4520874-17.5317383-4.2369995-34.9316406-4.6447144-52.1899414
					c0.1854858-8.5693359-0.032959-17.2265625,0.6517944-25.6958008l0.7593384-12.7636719
					c0.234375-4.2480469,0.9350586-8.6328125,1.3878784-12.9418945l1.5515137-12.9760742
					c0.7141724-4.3457031,1.7370605-8.7207031,2.6062622-13.0761719c1.439209-8.7134399,4.5043335-17.4463501,7.2766113-26.1450195
					c6.4672241-17.2729492,16.5307007-34.3384399,29.8828125-47.7637329
					c13.2299805-13.5521851,28.0249023-23.1688843,40.5065918-32.5830078
					c12.6306152-9.3675537,23.2531128-19.0039062,31.9519043-30.4564819l6.1669922-8.8599243
					c1.8847046-3.0980835,3.5107422-6.4037476,5.3027344-9.5800781l2.6757812-4.8828125l3.1774902-6.1400757
					c2.0739136-4.1138306,4.6118164-7.9882812,7.0007324-11.9263306
					c20.1366577-31.130249,50.8495483-54.387146,85.0061035-66.9579468
					c17.1776733-6.159729,35.2245483-10.1733398,54.0478516-10.456543
					c9.4030151-0.1416016,18.9978027,0.5884399,28.7341309,2.7709961c9.6911011,2.2021484,19.7106323,5.8032227,29.074646,12.656189
					c4.7021484,3.2446289,9.0234375,7.7539062,12.7454834,12.7466431c3.852417,5.5371094,5.7384033,10.3417969,7.6341553,15.2392578
					c3.4046631,9.6264038,5.1452637,18.9575195,6.1584473,28.293457
					c1.9006348,18.6254883,0.5957031,37.2192993-3.6680908,55.2636719
					c-4.1712646,18.059082-11.6676025,35.4052734-21.7860107,50.9887695
					c-10.3063965,15.4614258-23.3166504,28.9233398-37.8478394,39.7924194
					c-28.9904785,22.0093384-63.7952271,33.5742798-98.3630981,33.581604c-3.3959961,0-6.1486206-2.7514648-6.1499023-6.147522
					c0-2.2240601,1.1791992-4.1698608,2.9467773-5.2513428L895.8058472,1015.8369141z"/>
			</g>
			<g>
				<path class="st2" d="M962.0253296,1004.3061523c0.8178101,7.0360718,0.3491211,14.477478-0.0708008,21.6601562
					c-0.4736938,7.2338867-1.5418091,14.4311523-2.3303833,21.6503906
					c-0.7275391,7.1948242-1.3928223,14.3481445-1.6124878,21.4819336
					c-0.1953125,7.175293-0.1172485,14.0795898,2.5219727,20.8300781l0.189209,0.4833984
					c0.3991699,1.0205078-0.1049805,2.1728516-1.126709,2.5708008c-0.6275024,0.246582-1.315918,0.144043-1.8372192-0.2050781
					c-1.697998-1.1523438-3.7682495-2.3803711-5.3392944-3.9355469c-1.4501953-1.550293-3.055481-3.2373047-4.3103027-5.0073242
					c-1.2000122-1.7578125-2.3889771-3.6010742-3.4851685-5.4907227c-0.9326172-1.8701172-1.9238281-3.762207-2.8149414-5.7080078
					c-3.3080444-7.7197266-5.6212769-15.6811523-7.2460938-23.6254883
					c-1.5453491-7.9321289-2.7562866-15.9106445-2.8540039-23.840332c-0.0280762-7.980957,0.378418-15.6908569,2.6245117-23.7573853
					c2.0899048-7.5073242,9.8693848-11.8969116,17.376709-9.8070679c5.6860962,1.5819702,9.5838013,6.4306641,10.2319946,11.9506836
					L962.0253296,1004.3061523z"/>
			</g>
			<g>
				<path class="st2" d="M306.231842,1100.1289062c5.0769043,1.4013672,10.7433777,2.7148438,16.1742859,3.9160156
					c5.489502,1.1914062,11.0119934,2.3144531,16.5209961,3.2519531
					c10.9985962,1.8798828,22.1325989,3.3203125,32.6062012,3.1884766l0.4712219-0.0073242
					c4.9425964-0.0610352,9.0002747,3.894043,9.0625,8.8378906c0.0524902,4.152832-2.740509,7.6806641-6.5637207,8.7402344
					c-12.4010925,3.4277344-24.5116882,4.8730469-36.5954895,5.949707
					c-6.0448914,0.5297852-12.0605164,0.8618164-18.0920105,1.1157227
					c-6.0888977,0.2270508-11.9299011,0.4003906-18.320282,0.3295898l-0.2416992-0.0024414
					c-9.9317017-0.1098633-17.8943176-8.2495117-17.7844238-18.1811523
					c0.1086121-9.9316406,8.2483215-17.8930664,18.1799011-17.7832031
					C303.2045288,1099.5014648,304.7963257,1099.7431641,306.231842,1100.1289062z"/>
			</g>
		</g>
	</g>
</g>
</svg>
