<?xml version="1.0" encoding="utf-8"?>
<!-- Generator: Adobe Illustrator 28.0.0, SVG Export Plug-In . SVG Version: 6.00 Build 0)  -->
<svg version="1.1" id="Layer_1" xmlns="http://www.w3.org/2000/svg" xmlns:xlink="http://www.w3.org/1999/xlink" x="0px" y="0px"
	 viewBox="0 0 2779 2779" style="enable-background:new 0 0 2779 2779;" xml:space="preserve">
<style type="text/css">
	.st0{opacity:0.5;}
	.st1{fill:none;}
	.st2{fill:#FFFFFF;}
	.st3{fill:#445163;}
	.st4{fill:#15304C;}
	.st5{fill:#A4A4A5;}
	.st6{fill:#E0E0E0;}
	.st7{fill:#515151;}
	.st8{fill:#567FCA;}
	.st9{fill:#BCBCBC;}
	.st10{fill:#4C4C4C;}
	.st11{fill:#333333;}
	.st12{fill:#878787;}
	.st13{fill:#DBDBDB;}
	.st14{fill:#FF931E;}
	.st15{fill:#EFEFEF;}
</style>
<g>
	<g class="st0">
		<path class="st1" d="M1389.5,0C848.4923706,0,379.7052002,309.1922302,150.1914062,760.5062866
			c2.8802948,2.9241333,4.2700958,7.1987305,3.3078918,11.5021362c-1.425705,6.3753662-7.4870911,10.506958-13.8430023,9.6564941
			C50.1974983,965.2694092,0,1171.5217285,0,1389.5C0,2156.8996582,622.1002808,2779,1389.5,2779S2779,2156.8996582,2779,1389.5
			S2156.8996582,0,1389.5,0z M2348.5,1024c9.6650391,0,17.5,7.8349609,17.5,17.5s-7.8349609,17.5-17.5,17.5
			s-17.5-7.8349609-17.5-17.5S2338.8349609,1024,2348.5,1024z M2291,818c-7.1796875,0-13-5.8203125-13-13s5.8203125-13,13-13
			s13,5.8203125,13,13S2298.1796875,818,2291,818z M2292,1235c0,3.3137207-2.6862793,6-6,6s-6-2.6862793-6-6s2.6862793-6,6-6
			S2292,1231.6862793,2292,1235z M2289.2116699,605.7495117c2.6384277-4.5349731,8.4538574-6.0723267,12.9887695-3.4337769
			s6.0722656,8.4537964,3.4338379,12.9886475c-2.6386719,4.5351562-8.4541016,6.0724487-12.9890137,3.43396
			C2288.1103516,616.0997314,2286.572998,610.2844238,2289.2116699,605.7495117z M2314.8374023,1663.5136719
			c10.8198242-2.2233887,21.3930664,4.7453613,23.6164551,15.5649414
			c2.2231445,10.8198242-4.7453613,21.3930664-15.5651855,23.6162109
			c-10.8195801,2.2233887-21.3930664-4.7453613-23.6162109-15.5649414
			C2297.0490723,1676.3103027,2304.0178223,1665.7368164,2314.8374023,1663.5136719z M2330.5,927c2.4853516,0,4.5,2.0145874,4.5,4.5
			s-2.0146484,4.5-4.5,4.5s-4.5-2.0145874-4.5-4.5S2328.0146484,927,2330.5,927z M2308,392c6.0751953,0,11,4.9249268,11,11
			c0,6.0751038-4.9248047,11-11,11s-11-4.9248962-11-11C2297,396.9249268,2301.9248047,392,2308,392z M2289,475
			c8.2841797,0,15,6.7157288,15,15c0,8.2842102-6.7158203,15-15,15s-15-6.7157898-15-15C2274,481.7157288,2280.7158203,475,2289,475
			z M2274,1104c6.6274414,0,12,5.3725586,12,12s-5.3725586,12-12,12s-12-5.3725586-12-12S2267.3725586,1104,2274,1104z M2280,1386
			c0,9.9411621-8.0588379,18-18,18s-18-8.0588379-18-18s8.0588379-18,18-18S2280,1376.0588379,2280,1386z
			 M2253.1730957,1554.6983643c-2.4343262,0.5002441-4.8134766-1.067749-5.3137207-3.5020752
			c-0.5002441-2.4344482,1.0678711-4.8134766,3.5021973-5.3137207s4.8134766,1.067749,5.3137207,3.5021973
			C2257.1755371,1551.8190918,2255.6074219,1554.1981201,2253.1730957,1554.6983643z M2244.5,303
			c8.0080566,0,14.5,6.4919128,14.5,14.5c0,8.0081177-6.4919434,14.5-14.5,14.5s-14.5-6.4918823-14.5-14.5
			C2230,309.4919128,2236.4919434,303,2244.5,303z M2172,575c11.0456543,0,20,8.9542847,20,20s-8.9543457,20-20,20
			s-20-8.9542847-20-20S2160.9543457,575,2172,575z M2201,1506.5c0,8.5604248-6.9394531,15.5-15.5,15.5s-15.5-6.9395752-15.5-15.5
			s6.9394531-15.5,15.5-15.5S2201,1497.9395752,2201,1506.5z M2162,1040c5.5229492,0,10,4.4770508,10,10
			c0,5.5228271-4.4770508,10-10,10s-10-4.4771729-10-10C2152,1044.4770508,2156.4770508,1040,2162,1040z M2163,1976.5
			c0,6.3513184-5.1486816,11.5-11.5,11.5s-11.5-5.1486816-11.5-11.5s5.1486816-11.5,11.5-11.5S2163,1970.1486816,2163,1976.5z
			 M2136.001709,672.2172852c8.1149902,4.7214966,10.8662109,15.1279297,6.1445312,23.243042
			c-4.7216797,8.1152954-15.1279297,10.866394-23.2431641,6.1446533
			c-8.1152344-4.7216797-10.8662109-15.1278687-6.1445312-23.2431641
			C2117.4799805,670.246582,2127.8864746,667.4956055,2136.001709,672.2172852z M2117.5,226c2.4853516,0,4.5,2.0147247,4.5,4.5
			c0,2.485321-2.0146484,4.5-4.5,4.5s-4.5-2.014679-4.5-4.5C2113,228.0147247,2115.0146484,226,2117.5,226z M2086,427
			c1.1044922,0,2,0.8954163,2,2c0,1.1046143-0.8955078,2-2,2s-2-0.8953857-2-2C2084,427.8954163,2084.8955078,427,2086,427z
			 M2073,528c3.3137207,0,6,2.6863403,6,6c0,3.3137207-2.6862793,6-6,6s-6-2.6862793-6-6
			C2067,530.6863403,2069.6862793,528,2073,528z M2068,893c5.5229492,0,10,4.4771118,10,10c0,5.5228271-4.4770508,10-10,10
			s-10-4.4771729-10-10C2058,897.4771118,2062.4770508,893,2068,893z M2031.699707,352.3765259
			c2.7773438-4.7737122,8.8989258-6.3919067,13.6723633-3.6145325c4.7736816,2.7774353,6.3920898,8.8988342,3.614502,13.6724243
			c-2.7773438,4.7737122-8.8986816,6.3919067-13.6723633,3.614502S2028.9223633,357.150116,2031.699707,352.3765259z M2018.5,583
			c6.3513184,0,11.5,5.1487427,11.5,11.5c0,6.3513184-5.1486816,11.5-11.5,11.5s-11.5-5.1486816-11.5-11.5
			C2007,588.1487427,2012.1486816,583,2018.5,583z M2017,1447c-7.1796875,0-13-5.8203125-13-13s5.8203125-13,13-13
			s13,5.8203125,13,13S2024.1796875,1447,2017,1447z M2028.5,1936c8.0080566,0,14.5,6.4919434,14.5,14.5s-6.4919434,14.5-14.5,14.5
			s-14.5-6.4919434-14.5-14.5S2020.4919434,1936,2028.5,1936z M1983,629c-11.5979004,0-21-9.4020996-21-21
			c0-11.5980225,9.4020996-21,21-21s21,9.4019775,21,21C2004,619.5979004,1994.5979004,629,1983,629z M1990,271
			c9.9411621,0,18,8.0588074,18,18c0,9.9411316-8.0588379,18-18,18s-18-8.0588684-18-18C1972,279.0588074,1980.0588379,271,1990,271
			z M1962,455c5.5229492,0,10,4.4771118,10,10c0,5.5228271-4.4770508,10-10,10s-10-4.4771729-10-10
			C1952,459.4771118,1956.4770508,455,1962,455z M1944.814209,1561.9125977
			c3.2458496-0.6669922,6.4179688,1.423584,7.0849609,4.6694336c0.6669922,3.2459717-1.423584,6.4179688-4.6696777,7.0849609
			c-3.2458496,0.6669922-6.4177246-1.423584-7.0847168-4.6694336
			C1939.4777832,1565.7515869,1941.5683594,1562.5795898,1944.814209,1561.9125977z M1901.1796875,2032.081543
			c0.7541504-2.3681641,3.2850342-3.6765137,5.6533203-2.9226074c2.3681641,0.7541504,3.6767578,3.2851562,2.9226074,5.6533203
			c-0.7541504,2.3679199-3.2849121,3.6765137-5.6530762,2.9226074
			C1901.734375,2036.9807129,1900.4257812,2034.449707,1901.1796875,2032.081543z M1855,192c5.5228271,0,10,4.4771271,10,10
			c0,5.5228271-4.4771729,10-10,10c-5.5229492,0-10-4.4771729-10-10C1845,196.4771271,1849.4770508,192,1855,192z
			 M1789.6586914,1557.0427246c9.7375488-2.0009766,19.253418,4.270874,21.2543945,14.0085449
			s-4.270752,19.2536621-14.0083008,21.2546387c-9.737793,2.0009766-19.2539062-4.2709961-21.2548828-14.0085449
			C1773.6489258,1568.5596924,1779.9208984,1559.0437012,1789.6586914,1557.0427246z M1768,224c0,9.9411163-8.0588379,18-18,18
			s-18-8.0588837-18-18c0-9.9411774,8.0588379-18,18-18S1768,214.0588226,1768,224z M1724.5,87
			c8.5604248,0,15.5,6.9395981,15.5,15.5c0,8.5604248-6.9395752,15.5-15.5,15.5c-8.5605469,0-15.5-6.9395752-15.5-15.5
			C1709,93.9395981,1715.9394531,87,1724.5,87z M1661,258c9.388916,0,17,7.6111145,17,17c0,9.388916-7.611084,17-17,17
			s-17-7.611084-17-17C1644,265.6111145,1651.611084,258,1661,258z M1638.5625,375.8536072
			c1.6665039-2.8641968,5.3393555-3.835083,8.2036133-2.1687012c2.8640137,1.6665039,3.8349609,5.339325,2.168457,8.2035217
			c-1.6662598,2.8641968-5.3391113,3.835083-8.2033691,2.1687012
			C1637.8671875,382.390625,1636.8959961,378.717804,1638.5625,375.8536072z M1563,136c11.0456543,0,20,8.9543304,20,20
			c0,11.0457306-8.9543457,20-20,20s-20-8.9542694-20-20C1543,144.9543304,1551.9543457,136,1563,136z M1295,37
			c6.6274414,0,12,5.3726006,12,12s-5.3725586,12-12,12s-12-5.3726006-12-12S1288.3725586,37,1295,37z M1289,2592.5
			c0,3.0375977-2.4624023,5.5-5.5,5.5s-5.5-2.4624023-5.5-5.5s2.4624023-5.5,5.5-5.5S1289,2589.4624023,1289,2592.5z M1272,2170
			c0,4.970459-4.0292969,9-9,9s-9-4.029541-9-9c0-4.9707031,4.0292969-9,9-9S1272,2165.0292969,1272,2170z M1254,2081
			c4.4182129,0,8,3.5817871,8,8s-3.5817871,8-8,8s-8-3.5817871-8-8S1249.5817871,2081,1254,2081z M1097.0529785,2376.1696777
			c0.9643555-2.2905273,3.6027832-3.3659668,5.8933105-2.4016113c2.2907715,0.9643555,3.3659668,3.6027832,2.4018555,5.8935547
			c-0.9643555,2.2905273-3.6030273,3.3657227-5.8935547,2.4013672
			C1097.1640625,2381.098877,1096.0888672,2378.4604492,1097.0529785,2376.1696777z M1020,202c6.6274414,0,12,5.3726196,12,12
			c0,6.6274261-5.3725586,12-12,12c-6.6273804,0-12-5.3725739-12-12C1008,207.3726196,1013.3726196,202,1020,202z M912,528
			c4.9707031,0,9,4.0294189,9,9c0,4.97052-4.0292969,9-9,9s-9-4.02948-9-9C903,532.0294189,907.0292969,528,912,528z
			 M845.0415039,126.3192215c5.2770996-1.6292953,10.8759766,1.3277054,12.5050659,6.6047745
			c1.6294556,5.2770081-1.3277588,10.8757324-6.6046753,12.5050049c-5.2770996,1.6293182-10.8756714-1.3276825-12.5050659-6.6047821
			C836.8076172,133.5471191,839.7645874,127.9484253,845.0415039,126.3192215z M853,1715c0,4.970459-4.0292969,9-9,9
			s-9-4.029541-9-9c0-4.9707031,4.0292969-9,9-9S853,1710.0292969,853,1715z M840.5,615c4.1420898,0,7.5,3.3579102,7.5,7.5
			s-3.3579102,7.5-7.5,7.5s-7.5-3.3579102-7.5-7.5S836.3579102,615,840.5,615z M830,720c0,8.8364868-7.1635742,16-16,16
			s-16-7.1635132-16-16s7.1635742-16,16-16S830,711.1635132,830,720z M810,454.5c0,15.1878052-12.3123169,27.5-27.5,27.5
			S755,469.6878052,755,454.5c0-15.1878967,12.3123169-27.5,27.5-27.5S810,439.3121033,810,454.5z M753,212
			c8.2841797,0,15,6.7157288,15,15c0,8.2842255-6.7158203,15-15,15s-15-6.7157745-15-15C738,218.7157288,744.7158203,212,753,212z
			 M711,1297c3.3137207,0,6,2.6862793,6,6s-2.6862793,6-6,6s-6-2.6862793-6-6S707.6862793,1297,711,1297z M703,1659
			c0,7.1796875-5.8203125,13-13,13s-13-5.8203125-13-13s5.8203125-13,13-13S703,1651.8203125,703,1659z M672.4110107,2256.0068359
			c2.2498779-5.3449707,8.4064941-7.8537598,13.7511597-5.6040039c5.3449097,2.25,7.8537598,8.4067383,5.6039429,13.7514648
			c-2.25,5.3447266-8.4064941,7.8535156-13.7513428,5.6037598
			C672.6699829,2267.5080566,670.1610718,2261.3515625,672.4110107,2256.0068359z M671.5,1830c-9.1126709,0-16.5-7.387207-16.5-16.5
			s7.3873291-16.5,16.5-16.5s16.5,7.387207,16.5,16.5S680.6126709,1830,671.5,1830z M677,2100.5
			c0-10.2172852,8.2827148-18.5,18.5-18.5s18.5,8.2827148,18.5,18.5s-8.2827148,18.5-18.5,18.5S677,2110.7172852,677,2100.5z
			 M695,1547.5c0,8.0080566-6.4918823,14.5-14.5,14.5s-14.5-6.4919434-14.5-14.5s6.4918823-14.5,14.5-14.5
			S695,1539.4919434,695,1547.5z M666,587c6.0751953,0,11,4.9249268,11,11c0,6.0751953-4.9248047,11-11,11s-11-4.9248047-11-11
			C655,591.9249268,659.9248047,587,666,587z M629,271c4.4182129,0,8,3.5817261,8,8c0,4.418335-3.5817871,8-8,8s-8-3.581665-8-8
			C621,274.5817261,624.5817871,271,629,271z M543.5,614c6.3513184,0,11.5,5.1487427,11.5,11.5
			c0,6.3513184-5.1486816,11.5-11.5,11.5s-11.5-5.1486816-11.5-11.5C532,619.1487427,537.1486816,614,543.5,614z M532,1174
			c9.388916,0,17,7.611084,17,17s-7.611084,17-17,17s-17-7.611084-17-17S522.611084,1174,532,1174z M466,1824.5
			c0,6.3513184-5.1487122,11.5-11.5,11.5s-11.5-5.1486816-11.5-11.5s5.1487122-11.5,11.5-11.5S466,1818.1486816,466,1824.5z
			 M446,1128c-9.9411926,0-18-8.0588379-18-18s8.0588074-18,18-18s18,8.0588379,18,18S455.9411926,1128,446,1128z
			 M438.4099121,446.5310059c9.4986877-2.9326782,19.5763855,2.3899841,22.5090027,11.8887024
			c2.9328918,9.4987183-2.389801,19.576416-11.8886108,22.5090942c-9.4987183,2.9328003-19.576416-2.3899841-22.5090942-11.8886719
			C423.5884094,459.5414124,428.9111023,449.4637146,438.4099121,446.5310059z M428,946c0,10.4934082-8.5065918,19-19,19
			s-19-8.5065918-19-19s8.5065918-19,19-19S428,935.5065918,428,946z M399.5,1338c-5.7991028,0-10.5-4.7010498-10.5-10.5
			c0-5.7990723,4.7008972-10.5,10.5-10.5s10.5,4.7009277,10.5,10.5C410,1333.2989502,405.2991028,1338,399.5,1338z
			 M413.9313965,1730.0808105c5.4350891-0.9802246,10.6358948,2.6311035,11.6162109,8.0661621
			c0.9801941,5.4353027-2.6311035,10.6359863-8.0664062,11.6162109c-5.4350891,0.9804688-10.6357117-2.6308594-11.6160889-8.0661621
			C404.8847961,1736.2619629,408.4961853,1731.0610352,413.9313965,1730.0808105z M380.5,1092c-5.2467041,0-9.5-4.2532959-9.5-9.5
			s4.2532959-9.5,9.5-9.5s9.5,4.2532959,9.5,9.5S385.7467041,1092,380.5,1092z M385.5,520c8.0080872,0,14.5,6.4919434,14.5,14.5
			c0,8.0081177-6.4919128,14.5-14.5,14.5s-14.5-6.4918823-14.5-14.5C371,526.4919434,377.4919128,520,385.5,520z M389.5,662
			c10.2172852,0,18.5,8.2827148,18.5,18.5s-8.2827148,18.5-18.5,18.5s-18.5-8.2827148-18.5-18.5S379.2827148,662,389.5,662z
			 M368.5,794c3.5898132,0,6.5,2.9102173,6.5,6.5s-2.9101868,6.5-6.5,6.5s-6.5-2.9102173-6.5-6.5S364.9101868,794,368.5,794z
			 M358.4612122,1329.5670166c9.5115967-1.7154541,18.6128845,4.6044922,20.3283997,14.1159668
			c1.7154846,9.5115967-4.6045227,18.612915-14.1159973,20.3282471
			c-9.5115051,1.7155762-18.6128235-4.6043701-20.3283081-14.1159668
			C342.6299133,1340.3837891,348.949707,1331.2824707,358.4612122,1329.5670166z M357.0917053,1919.1721191
			c-5.1635132,0.9313965-10.1042175-2.4995117-11.0354004-7.6628418c-0.9313049-5.1635742,2.4996033-10.104248,7.6629028-11.0354004
			c5.1633911-0.9313965,10.104187,2.4995117,11.0354004,7.6628418
			C365.685791,1913.3000488,362.2550964,1918.2407227,357.0917053,1919.1721191z M331.3171082,1961.4697266
			c4.861084-8.6716309,15.8312988-11.7607422,24.5029907-6.8996582c8.6716003,4.861084,11.7607117,15.8312988,6.8995972,24.5029297
			c-4.8609009,8.6716309-15.8312988,11.7607422-24.5028992,6.8996582S326.4560852,1970.1413574,331.3171082,1961.4697266z M301,1239
			c0,5.5228271-4.4772034,10-10,10s-10-4.4771729-10-10c0-5.5229492,4.4772034-10,10-10S301,1233.4770508,301,1239z M301,1432
			c0,5.5228271-4.4772034,10-10,10s-10-4.4771729-10-10c0-5.5229492,4.4772034-10,10-10S301,1426.4770508,301,1432z M271.5,893
			c8.0080872,0,14.5,6.4918823,14.5,14.5s-6.4919128,14.5-14.5,14.5s-14.5-6.4918823-14.5-14.5S263.4919128,893,271.5,893z
			 M213.7658997,1024.3300781c3.2445984-9.3967896,13.4924011-14.3837891,22.8890991-11.1391602
			c9.3968048,3.2445679,14.3840942,13.4924316,11.1394043,22.8891602
			c-3.2447052,9.3967285-13.4925079,14.3839111-22.8892059,11.1392822
			C215.5084076,1043.9747314,210.5211945,1033.7268066,213.7658997,1024.3300781z M106.9177017,1256.0474854
			c3.2612991-0.5882568,6.3815994,1.5786133,6.9697952,4.8397217c0.5881042,3.2611084-1.5786972,6.3815918-4.839798,6.9697266
			s-6.3814011-1.5786133-6.9695969-4.8398438C101.4898987,1259.7561035,103.6567001,1256.6356201,106.9177017,1256.0474854z
			 M90.2113037,956.2766113c1.0814972-3.1322021,4.4973984-4.7946777,7.6297989-3.7131348
			c3.1322937,1.081604,4.7945938,4.4974976,3.7130966,7.6299438c-1.0814972,3.1322021-4.4975967,4.7945557-7.6297989,3.7130127
			C90.7921982,962.8248291,89.1297989,959.4088745,90.2113037,956.2766113z M59.5,1153c-3.5898018,0-6.5-2.9101562-6.5-6.5
			s2.9101982-6.5,6.5-6.5s6.5,2.9101562,6.5,6.5S63.0898018,1153,59.5,1153z M86.142601,1400.0209961
			c-1.3724976-7.6091309,3.6836014-14.8901367,11.2927017-16.2626953
			c7.6092987-1.3723145,14.8902969,3.6835938,16.2626953,11.2928467
			c1.3722992,7.6092529-3.6836014,14.8902588-11.2927017,16.2625732
			C94.7958984,1412.6862793,87.5149002,1407.630249,86.142601,1400.0209961z M103,1744c-7.1797028,0-13-5.8203125-13-13
			s5.8202972-13,13-13s13,5.8203125,13,13S110.1797028,1744,103,1744z M118.8579025,1572.9602051
			c-2.4458008,0.4411621-4.7861023-1.184082-5.2273026-3.6298828c-0.4411011-2.4458008,1.1840973-4.7861328,3.6298981-5.2272949
			c2.4458008-0.44104,4.7861023,1.184082,5.2273026,3.6298828
			C122.9288025,1570.1787109,121.3037033,1572.519043,118.8579025,1572.9602051z M129.0355072,1634.2441406
			c-2.3070068,0.9243164-4.926506-0.1962891-5.8509064-2.503418c-0.9243011-2.3068848,0.1965027-4.9262695,2.5034027-5.8508301
			c2.3069992-0.9243164,4.9264984,0.1965332,5.8508911,2.503418
			C132.4633942,1630.7001953,131.3424988,1633.3198242,129.0355072,1634.2441406z M136.2106934,1032.0808105
			c-0.7149963,5.4763184-5.7339935,9.3361816-11.210495,8.6213379c-5.4762955-0.7149658-9.3360977-5.7340088-8.6212997-11.2104492
			c0.715004-5.4763184,5.7341003-9.3361816,11.2105026-8.6212769
			C133.0657043,1021.5853271,136.9255066,1026.6043701,136.2106934,1032.0808105z M152.9201965,1204.0567627
			c-6.2505035,1.1273193-12.2313995-3.0257568-13.3587036-9.2762451
			c-1.1272888-6.2504883,3.0258026-12.2312012,9.2761078-13.3586426c6.2505035-1.1271973,12.2315063,3.0258789,13.3587036,9.2762451
			C163.3237,1196.9484863,159.1705017,1202.9294434,152.9201965,1204.0567627z M152.9963074,1055.1791992
			c-1.2253113-6.7939453,3.2888947-13.2947998,10.0827942-14.5201416s13.2948914,3.2889404,14.5202942,10.0828857
			c1.2253113,6.7939453-3.2890015,13.2947998-10.082901,14.5201416
			C160.7225037,1066.4875488,154.2216949,1061.9731445,152.9963074,1055.1791992z M170.3227997,1832.9536133
			c-1.6665039-9.2397461,4.4729004-18.0810547,13.7126007-19.7473145
			c9.2397003-1.6665039,18.0811005,4.4729004,19.747406,13.7126465c1.6664886,9.2397461-4.4729004,18.0810547-13.7126007,19.7473145
			C180.8303986,1848.3327637,171.9893036,1842.1933594,170.3227997,1832.9536133z M204,2017c-9.3889008,0-17-7.611084-17-17
			s7.6110992-17,17-17s17,7.611084,17,17S213.3889008,2017,204,2017z M236.3462067,1506.0440674
			c-9.7833099,1.7645264-19.1446991-4.7359619-20.9092102-14.5192871
			c-1.764389-9.7833252,4.7360992-19.1446533,14.5193024-20.9090576
			c9.7832031-1.7645264,19.1445007,4.7359619,20.9091949,14.5192871
			C252.6298981,1494.9182129,246.1293945,1504.279541,236.3462067,1506.0440674z M249,714.5c0-3.0375977,2.4624023-5.5,5.5-5.5
			s5.5,2.4624023,5.5,5.5s-2.4624023,5.5-5.5,5.5S249,717.5375977,249,714.5z M257,1635.5c0-9.6650391,7.8349915-17.5,17.5-17.5
			s17.5,7.8349609,17.5,17.5s-7.8349915,17.5-17.5,17.5S257,1645.1650391,257,1635.5z M295.0845032,1682.4189453
			c-5.7069092,1.0292969-11.1678162-2.7626953-12.196991-8.4697266c-1.0293274-5.7070312,2.7625732-11.1677246,8.469574-12.1970215
			c5.7069092-1.0292969,11.1677246,2.7626953,12.1970215,8.4697266
			C304.5834045,1675.9287109,300.7914124,1681.3896484,295.0845032,1682.4189453z M350,2161c-11.5979004,0-21-9.4020996-21-21
			c0-11.5981445,9.4020996-21,21-21s21,9.4018555,21,21C371,2151.5979004,361.5979004,2161,350,2161z M371.60849,1551.7614746
			c-0.9802856-5.4350586,2.6311035-10.6357422,8.0663147-11.6160889c5.4350891-0.9803467,10.6358948,2.6311035,11.6161804,8.0662842
			c0.9802246,5.4350586-2.631073,10.6358643-8.0663757,11.6162109
			C377.7896118,1560.8081055,372.5888977,1557.1967773,371.60849,1551.7614746z M400.2853088,2247.784668
			c-2.6784058,6.362793-10.0077209,9.3496094-16.3705139,6.6711426s-9.3496094-10.0078125-6.6712952-16.3706055
			c2.6784058-6.362793,10.0076904-9.3496094,16.3705139-6.6711426
			C399.9768982,2234.0925293,402.9635925,2241.421875,400.2853088,2247.784668z M415.5,1972c-6.903595,0-12.5-5.5964355-12.5-12.5
			s5.596405-12.5,12.5-12.5s12.5,5.5964355,12.5,12.5S422.403595,1972,415.5,1972z M426,1537c-9.9411926,0-18-8.0588379-18-18
			s8.0588074-18,18-18s18,8.0588379,18,18S435.9411926,1537,426,1537z M459.476593,1991.2790527
			c-1.6757812,5.2624512-7.3002014,8.170166-12.5628052,6.4946289c-5.2623901-1.6755371-8.1700745-7.3000488-6.4945984-12.5625
			c1.6755066-5.2626953,7.3000183-8.1704102,12.5626221-6.494873
			C458.2443848,1980.3920898,461.1520996,1986.0166016,459.476593,1991.2790527z M472.2333069,2067.9763184
			c-1.6203003,2.8903809-5.2770996,3.920166-8.1676025,2.2998047c-2.8907166-1.6203613-3.9203186-5.2770996-2.3000183-8.1677246
			c1.6204224-2.8903809,5.2770996-3.920166,8.1676025-2.2998047
			C472.8240051,2061.4289551,473.8536072,2065.0856934,472.2333069,2067.9763184z M476,931c-4.9706116,0-9-4.02948-9-9
			c0-4.9705811,4.0293884-9,9-9s9,4.0294189,9,9C485,926.97052,480.9706116,931,476,931z M481.5,808
			c-3.0375977,0-5.5-2.4624023-5.5-5.5s2.4624023-5.5,5.5-5.5s5.5,2.4624023,5.5,5.5S484.5375977,808,481.5,808z M509,1770
			c-3.3136902,0-6-2.6862793-6-6s2.6863098-6,6-6c3.3137207,0,6,2.6862793,6,6S512.3137207,1770,509,1770z M520.5,2329
			c-3.5897827,0-6.5-2.9101562-6.5-6.5s2.9102173-6.5,6.5-6.5s6.5,2.9101562,6.5,6.5S524.0897827,2329,520.5,2329z M541,1646
			c-7.7318726,0-14-6.2680664-14-14s6.2681274-14,14-14s14,6.2680664,14,14S548.7318726,1646,541,1646z M553.5,1465
			c-2.4854126,0-4.5-2.0146484-4.5-4.5s2.0145874-4.5,4.5-4.5s4.5,2.0146484,4.5,4.5S555.9854126,1465,553.5,1465z
			 M556.1730957,1402.6983643c-2.4343262,0.5002441-4.8134766-1.067749-5.3137207-3.5020752
			c-0.5003052-2.4344482,1.0678101-4.8134766,3.5021973-5.3137207c2.4344482-0.5002441,4.8134155,1.067749,5.3137207,3.5021973
			C560.1754761,1399.8190918,558.6074829,1402.1981201,556.1730957,1402.6983643z M589.5,1929
			c-6.3513184,0-11.5-5.1486816-11.5-11.5s5.1486816-11.5,11.5-11.5s11.5,5.1486816,11.5,11.5S595.8513184,1929,589.5,1929z
			 M578,1314c-12.7025757,0-23-10.2974854-23-23c0-12.7026367,10.2974243-23,23-23s23,10.2973633,23,23
			C601,1303.7025146,590.7025757,1314,578,1314z M596.8499756,447.8482056
			c-3.1661987,0.9775085-6.5253906-0.7966919-7.5030518-3.9628906c-0.9775391-3.1661987,0.7967529-6.5255127,3.9628906-7.5029907
			c3.1662598-0.9776001,6.5255127,0.7966614,7.5031738,3.9628906
			C601.7905273,443.5114136,600.0161743,446.8706055,596.8499756,447.8482056z M605,752c0-8.8364868,7.1635132-16,16-16
			s16,7.1635132,16,16s-7.1635132,16-16,16S605,760.8364868,605,752z M631.5,1846c-5.7990723,0-10.5-4.7011719-10.5-10.5
			c0-5.7990723,4.7009277-10.5,10.5-10.5s10.5,4.7009277,10.5,10.5C642,1841.2988281,637.2990723,1846,631.5,1846z M638,1058
			c-9.388916,0-17-7.611084-17-17s7.611084-17,17-17s17,7.611084,17,17S647.388916,1058,638,1058z M675.5,2437
			c-11.3217773,0-20.5-9.1782227-20.5-20.5s9.1782227-20.5,20.5-20.5s20.5,9.1782227,20.5,20.5S686.8217773,2437,675.5,2437z
			 M718,2527c-7.1796875,0-13-5.8203125-13-13s5.8203125-13,13-13s13,5.8203125,13,13S725.1796875,2527,718,2527z M724.5,1995
			c-6.3513184,0-11.5-5.1486816-11.5-11.5s5.1486816-11.5,11.5-11.5s11.5,5.1486816,11.5,11.5S730.8513184,1995,724.5,1995z
			 M721.5,1784c-9.112793,0-16.5-7.387207-16.5-16.5s7.387207-16.5,16.5-16.5s16.5,7.387207,16.5,16.5S730.612793,1784,721.5,1784z
			 M736,326c0-7.7319946,6.2681274-14,14-14s14,6.2680054,14,14s-6.2681274,14-14,14S736,333.7319946,736,326z M764,2405
			c-4.9707031,0-9-4.029541-9-9c0-4.9707031,4.0292969-9,9-9s9,4.0292969,9,9C773,2400.970459,768.9707031,2405,764,2405z
			 M773.5,1822c-5.246582,0-9.5-4.253418-9.5-9.5s4.253418-9.5,9.5-9.5s9.5,4.253418,9.5,9.5S778.746582,1822,773.5,1822z
			 M785.5,1501c-6.9036255,0-12.5-5.5964355-12.5-12.5s5.5963745-12.5,12.5-12.5s12.5,5.5964355,12.5,12.5
			S792.4036255,1501,785.5,1501z M798,2121.5c0-11.8740234,9.6259766-21.5,21.5-21.5s21.5,9.6259766,21.5,21.5
			s-9.6259766,21.5-21.5,21.5S798,2133.3740234,798,2121.5z M833.2084961,2216.822998
			c1.2855835-3.0541992,4.8037109-4.487793,7.8579102-3.2021484s4.487793,4.8037109,3.2022095,7.857666
			c-1.2857056,3.0541992-4.803833,4.487793-7.8580322,3.2021484
			C833.3566895,2223.3952637,831.9229126,2219.8769531,833.2084961,2216.822998z M845.5,2552c-6.9036255,0-12.5-5.5964355-12.5-12.5
			s5.5963745-12.5,12.5-12.5s12.5,5.5964355,12.5,12.5S852.4036255,2552,845.5,2552z M873.5,2347
			c-8.5604858,0-15.5-6.9394531-15.5-15.5s6.9395142-15.5,15.5-15.5s15.5,6.9394531,15.5,15.5S882.0604858,2347,873.5,2347z
			 M896.8728027,390.799408c2.3748169-0.7331848,4.8939819,0.5975037,5.6271973,2.9721069
			c0.7333984,2.3746948-0.5974121,4.894104-2.972229,5.6272888c-2.3744507,0.7331848-4.8939819-0.5974731-5.6271973-2.9721985
			C893.1674805,394.0519104,894.4979858,391.5325317,896.8728027,390.799408z M921,1476c-14.9116211,0-27-12.0883789-27-27
			s12.0883789-27,27-27s27,12.0883789,27,27S935.9116211,1476,921,1476z M959,258c-4.4182129,0-8-3.5816803-8-8
			c0-4.4182739,3.5817871-8,8-8s8,3.5817261,8,8C967,254.4183197,963.4182129,258,959,258z M1001.109375,2413.3588867
			c-1.5,3.5632324-5.6044922,5.2358398-9.1676636,3.7358398c-3.5632935-1.5-5.2355957-5.604248-3.7359009-9.1674805
			c1.5-3.5632324,5.6043091-5.2358398,9.1674805-3.7358398
			C1000.9365234,2405.6914062,1002.6090698,2409.7958984,1001.109375,2413.3588867z M986,520c-10.4934082,0-19-8.5065918-19-19
			c0-10.4933777,8.5065918-19,19-19s19,8.5066223,19,19C1005,511.4934082,996.4934082,520,986,520z M1027.5,2566
			c-10.7694702,0-19.5-8.7304688-19.5-19.5s8.7305298-19.5,19.5-19.5c10.7695312,0,19.5,8.7304688,19.5,19.5
			S1038.2695312,2566,1027.5,2566z M1045.5,136c-7.4558105,0-13.5-6.0441742-13.5-13.5c0-7.4558716,6.0441895-13.5,13.5-13.5
			s13.5,6.0441284,13.5,13.5C1059,129.9558258,1052.9558105,136,1045.5,136z M1105.5,2677c-11.3217773,0-20.5-9.1782227-20.5-20.5
			s9.1782227-20.5,20.5-20.5s20.5,9.1782227,20.5,20.5S1116.8217773,2677,1105.5,2677z M1114,404c-6.6274414,0-12-5.3725891-12-12
			c0-6.6273804,5.3725586-12,12-12s12,5.3726196,12,12C1126,398.6274109,1120.6274414,404,1114,404z M1116,212
			c-5.5229492,0-10-4.4771729-10-10c0-5.5228729,4.4770508-10,10-10s10,4.4771271,10,10C1126,207.5228271,1121.5229492,212,1116,212
			z M1154.378418,311.2941284c-8.9709473,2.7698059-18.4887695-2.2572937-21.2585449-11.2282104
			c-2.7697754-8.9710999,2.2573242-18.4888,11.2282715-21.258606s18.4887695,2.2572021,21.2585449,11.2282104
			S1163.3493652,308.5243225,1154.378418,311.2941284z M1162,87c-7.1796875,0-13-5.8202972-13-13s5.8203125-13,13-13
			s13,5.8202972,13,13S1169.1796875,87,1162,87z M1211.1430664,127.3619232
			c-5.0131836,1.5478058-10.3320312-1.2613983-11.8798828-6.2745972s1.2612305-10.3319016,6.2744141-11.8797989
			c5.0131836-1.5478058,10.3320312,1.2613983,11.8798828,6.2745972S1216.15625,125.8141251,1211.1430664,127.3619232z
			 M1229.6169434,2499.4040527c-3.9707031,2.9899902-9.6135254,2.1948242-12.6032715-1.7758789
			c-2.9902344-3.9707031-2.1950684-9.6135254,1.7758789-12.6035156c3.9707031-2.9899902,9.6132812-2.1948242,12.6032715,1.7758789
			S1233.5876465,2496.4140625,1229.6169434,2499.4040527z M1245.0986328,2395.6320801
			c-2.7856445,6.6174316-10.4082031,9.7236328-17.0253906,6.9382324
			c-6.6174316-2.7856445-9.7236328-10.4082031-6.9382324-17.0253906c2.7856445-6.6174316,10.4082031-9.7236328,17.0253906-6.9379883
			C1244.777832,2381.392334,1247.8840332,2389.0148926,1245.0986328,2395.6320801z M1257,2251c-13.2548828,0-24-10.7451172-24-24
			s10.7451172-24,24-24s24,10.7451172,24,24S1270.2548828,2251,1257,2251z M1301,2729c-12.7026367,0-23-10.2973633-23-23
			s10.2973633-23,23-23s23,10.2973633,23,23S1313.7026367,2729,1301,2729z M1302.2094727,1889.2888184
			c3.1057129-5.5400391,10.114502-7.5136719,15.6547852-4.407959c5.5400391,3.1054688,7.5136719,10.1142578,4.4082031,15.654541
			c-3.1057129,5.5402832-10.114502,7.513916-15.6547852,4.4082031
			C1301.0776367,1901.8378906,1299.1040039,1894.8291016,1302.2094727,1889.2888184z M1317,332c-8.8364258,0-16-7.1634827-16-16
			c0-8.8364868,7.1635742-16,16-16s16,7.1635132,16,16C1333,324.8365173,1325.8364258,332,1317,332z M1376,278
			c3.8659668,0,7,3.1340027,7,7s-3.1340332,7-7,7s-7-3.1340027-7-7S1372.1340332,278,1376,278z M1380.0947266,1953.5957031
			c-4.8688965,1.0004883-9.6269531-2.1352539-10.6274414-7.0041504s2.135498-9.6269531,7.0043945-10.6274414
			c4.8686523-1.0004883,9.626709,2.135498,10.6271973,7.0043945S1384.9633789,1952.5952148,1380.0947266,1953.5957031z
			 M1396.6040039,2595.0314941c-1.2856445,3.0541992-4.8037109,4.487793-7.8579102,3.2021484
			s-4.487793-4.8037109-3.2021484-7.8579102c1.2856445-3.0539551,4.8037109-4.487793,7.8579102-3.2021484
			S1397.8896484,2591.9772949,1396.6040039,2595.0314941z M1392.5256348,170.784729
			c-4.7492676,1.4662781-9.7880859-1.1950073-11.2543945-5.9444122c-1.4665527-4.7493134,1.1950684-9.7880859,5.9443359-11.2544861
			s9.7880859,1.1949921,11.2543945,5.944397C1399.9365234,164.2795258,1397.2749023,169.3183289,1392.5256348,170.784729z
			 M1402.2756348,2477.673584c-3.1560059-4.1914062-2.3166504-10.1477051,1.8745117-13.3037109
			c4.1914062-3.1560059,10.1477051-2.3166504,13.3037109,1.8745117c3.1560059,4.1914062,2.3166504,10.1477051-1.8745117,13.3037109
			C1411.3879395,2482.7041016,1405.4316406,2481.8647461,1402.2756348,2477.673584z M1421.5,2706
			c-6.3513184,0-11.5-5.1486816-11.5-11.5s5.1486816-11.5,11.5-11.5s11.5,5.1486816,11.5,11.5S1427.8513184,2706,1421.5,2706z
			 M1488,19c4.9707031,0,9,4.0293999,9,9c0,4.9705009-4.0292969,9-9,9s-9-4.0294991-9-9C1479,23.0293999,1483.0292969,19,1488,19z
			 M1495.869873,2134.8432617c-2.4306641,4.3359375-7.9157715,5.8803711-12.2514648,3.4499512
			c-4.3359375-2.4306641-5.8803711-7.9157715-3.4499512-12.2514648c2.4306641-4.3359375,7.9157715-5.8803711,12.2514648-3.4499512
			C1496.7558594,2125.0224609,1498.300293,2130.5075684,1495.869873,2134.8432617z M1516.2497559,297.747406
			c-8.5925293-4.9994202-11.5053711-16.0177917-6.5061035-24.6102905
			c4.9995117-8.5925903,16.0178223-11.5054932,24.6103516-6.5061035c8.5927734,4.9994202,11.5053711,16.0178223,6.5061035,24.610321
			C1535.8608398,299.8339233,1524.8422852,302.7468262,1516.2497559,297.747406z M1557,2555c-7.7319336,0-14-6.2680664-14-14
			s6.2680664-14,14-14s14,6.2680664,14,14S1564.7319336,2555,1557,2555z M1592.9916992,1742.7634277
			c-3.1054688,5.5402832-10.1142578,7.513916-15.654541,4.4082031s-7.513916-10.114502-4.4082031-15.654541
			c3.1057129-5.5402832,10.114502-7.513916,15.6547852-4.4082031
			C1594.1237793,1730.2143555,1596.0974121,1737.2233887,1592.9916992,1742.7634277z M1635.8261719,1821.9272461
			c-2.0566406-10.0080566,4.3896484-19.7885742,14.3977051-21.8449707
			c10.0080566-2.0566406,19.7885742,4.3894043,21.8449707,14.3977051
			c2.0566406,10.0080566-4.3894043,19.7885742-14.3974609,21.8449707
			C1647.6630859,1838.3815918,1637.8828125,1831.9355469,1635.8261719,1821.9272461z M1672,2331c0,1.1044922-0.8955078,2-2,2
			s-2-0.8955078-2-2s0.8955078-2,2-2S1672,2329.8955078,1672,2331z M1672,2631c-12.1503906,0-22-9.8496094-22-22s9.8496094-22,22-22
			s22,9.8496094,22,22S1684.1503906,2631,1672,2631z M1696.3684082,1899.876709
			c3.7807617-6.7446289,12.3132324-9.1472168,19.0578613-5.3664551s9.1472168,12.3132324,5.3662109,19.0578613
			c-3.7807617,6.7443848-12.3129883,9.1472168-19.0576172,5.3664551S1692.5876465,1906.6210938,1696.3684082,1899.876709z
			 M1725.1030273,2196.2792969c-3.3757324,6.0219727-10.9941406,8.1672363-17.0158691,4.7915039
			c-6.0219727-3.3757324-8.1672363-10.9941406-4.7915039-17.0158691c3.3757324-6.0219727,10.9938965-8.1672363,17.0158691-4.7915039
			S1728.4787598,2190.2573242,1725.1030273,2196.2792969z M1732,2387c0-9.9411621,8.0588379-18,18-18s18,8.0588379,18,18
			s-8.0588379,18-18,18S1732,2396.9411621,1732,2387z M1763.1401367,2206.1376953
			c4.9958496-8.9125977,16.2709961-12.0874023,25.1835938-7.0913086
			c8.9123535,4.9958496,12.0871582,16.2709961,7.0913086,25.1835938
			c-4.9960938,8.9123535-16.2712402,12.0874023-25.1835938,7.0913086
			C1761.3188477,2226.3251953,1758.144043,2215.0500488,1763.1401367,2206.1376953z M1779.5,2636
			c-10.2172852,0-18.5-8.2827148-18.5-18.5s8.2827148-18.5,18.5-18.5s18.5,8.2827148,18.5,18.5S1789.7172852,2636,1779.5,2636z
			 M1781,2099c-11.0456543,0-20-8.9543457-20-20s8.9543457-20,20-20s20,8.9543457,20,20S1792.0456543,2099,1781,2099z M1809.5,1817
			c-9.112793,0-16.5-7.387207-16.5-16.5s7.387207-16.5,16.5-16.5s16.5,7.387207,16.5,16.5S1818.612793,1817,1809.5,1817z
			 M1821,405.5c0-9.6650085,7.8349609-17.5,17.5-17.5s17.5,7.8349915,17.5,17.5s-7.8349609,17.5-17.5,17.5
			S1821,415.1650085,1821,405.5z M1844,2179c0-5.5229492,4.4770508-10,10-10c5.5228271,0,10,4.4770508,10,10s-4.4771729,10-10,10
			C1848.4770508,2189,1844,2184.5229492,1844,2179z M1865,2347c-4.9707031,0-9-4.029541-9-9c0-4.9707031,4.0292969-9,9-9
			s9,4.0292969,9,9C1874,2342.970459,1869.9707031,2347,1865,2347z M1881.435791,573.8533325
			c-2.1481934-1.2498169-2.8764648-4.0045166-1.626709-6.1526489c1.25-2.1480713,4.0046387-2.8763428,6.152832-1.6264648
			c2.1479492,1.2497559,2.8762207,4.0043945,1.6264648,6.1524658
			C1886.3383789,574.374939,1883.5839844,575.1030884,1881.435791,573.8533325z M1902,2555c-7.7319336,0-14-6.2680664-14-14
			s6.2680664-14,14-14s14,6.2680664,14,14S1909.7319336,2555,1902,2555z M1931.6591797,1800.9526367
			c-2.2790527-11.0900879,4.8640137-21.9277344,15.9541016-24.206543s21.9277344,4.8640137,24.206543,15.9541016
			c2.2790527,11.0900879-4.8640137,21.9277344-15.9541016,24.2067871
			C1944.7756348,1819.185791,1933.9379883,1812.0429688,1931.6591797,1800.9526367z M1970,2548c-9.388916,0-17-7.611084-17-17
			s7.611084-17,17-17s17,7.611084,17,17S1979.388916,2548,1970,2548z M1983,1854c-2.2092285,0-4-1.7910156-4-4
			c0-2.2092285,1.7907715-4,4-4s4,1.7907715,4,4C1987,1852.2089844,1985.2092285,1854,1983,1854z M1994.5859375,2234.9951172
			c2.8356934-5.0583496,9.2348633-6.8603516,14.293457-4.0246582c5.0583496,2.8356934,6.8603516,9.2348633,4.0249023,14.293457
			c-2.8356934,5.0583496-9.2351074,6.8603516-14.293457,4.0246582
			C1993.5522461,2246.453125,1991.7504883,2240.0537109,1994.5859375,2234.9951172z M2036.2885742,2403.965332
			c-5.5361328,9.8759766-18.0300293,13.394043-27.9060059,7.8579102s-13.394043-18.0300293-7.8579102-27.9060059
			s18.0300293-13.3942871,27.9060059-7.8581543S2041.824707,2394.0893555,2036.2885742,2403.965332z M2059.7197266,2131.072998
			c-4.8608398,8.6716309-15.8312988,11.7607422-24.5029297,6.8996582s-11.7607422-15.8312988-6.8996582-24.5029297
			s15.8312988-11.7607422,24.5029297-6.8996582S2064.5808105,2122.4013672,2059.7197266,2131.072998z M2046.5,1694
			c-11.3217773,0-20.5-9.1782227-20.5-20.5s9.1782227-20.5,20.5-20.5s20.5,9.1782227,20.5,20.5S2057.8217773,1694,2046.5,1694z
			 M2071,1593c-4.9707031,0-9-4.029541-9-9c0-4.9705811,4.0292969-9,9-9s9,4.0294189,9,9
			C2080,1588.970459,2075.9707031,1593,2071,1593z M2079.5,805c-6.3513184,0-11.5-5.1486816-11.5-11.5s5.1486816-11.5,11.5-11.5
			s11.5,5.1486816,11.5,11.5S2085.8513184,805,2079.5,805z M2091,402c0-7.7319946,6.2680664-14,14-14s14,6.2680054,14,14
			s-6.2680664,14-14,14S2091,409.7319946,2091,402z M2112.5,2124c-6.9035645,0-12.5-5.5964355-12.5-12.5s5.5964355-12.5,12.5-12.5
			s12.5,5.5964355,12.5,12.5S2119.4035645,2124,2112.5,2124z M2110,1385c0-9.388916,7.611084-17,17-17s17,7.611084,17,17
			s-7.611084,17-17,17S2110,1394.388916,2110,1385z M2156.4765625,2143.2790527
			c-1.6757812,5.2624512-7.300293,8.170166-12.5627441,6.4946289s-8.170166-7.3000488-6.4946289-12.5625
			c1.6755371-5.2626953,7.3000488-8.1704102,12.5627441-6.494873
			C2155.2443848,2132.3920898,2158.1520996,2138.0166016,2156.4765625,2143.2790527z M2161.0656738,2222.276123
			c-2.890625-1.6203613-3.920166-5.2770996-2.3000488-8.1677246c1.6206055-2.8903809,5.2773438-3.920166,8.1677246-2.2998047
			c2.890625,1.6203613,3.920166,5.2770996,2.3000488,8.1677246
			C2167.6130371,2222.8666992,2163.9560547,2223.8964844,2161.0656738,2222.276123z M2190.5,2458
			c-14.635498,0-26.5-11.864502-26.5-26.5s11.864502-26.5,26.5-26.5s26.5,11.864502,26.5,26.5S2205.135498,2458,2190.5,2458z
			 M2204.5,903c-6.9035645,0-12.5-5.5963745-12.5-12.5c0-6.9035645,5.5964355-12.5,12.5-12.5s12.5,5.5964355,12.5,12.5
			C2217,897.4036255,2211.4035645,903,2204.5,903z M2217.5527344,1289.439209
			c-1.1118164-5.40979,2.3725586-10.6965332,7.7824707-11.8081055c5.4099121-1.1116943,10.6965332,2.3726807,11.8081055,7.7824707
			c1.1115723,5.4099121-2.3728027,10.6965332-7.7824707,11.8081055
			C2223.9509277,1298.333374,2218.6643066,1294.848999,2217.5527344,1289.439209z M2238,1798c-7.7319336,0-14-6.2680664-14-14
			s6.2680664-14,14-14s14,6.2680664,14,14S2245.7319336,1798,2238,1798z M2265,2333c-9.388916,0-17-7.611084-17-17
			s7.611084-17,17-17s17,7.611084,17,17S2274.388916,2333,2265,2333z M2278,1891.5c0-8.5605469,6.9394531-15.5,15.5-15.5
			s15.5,6.9394531,15.5,15.5s-6.9394531,15.5-15.5,15.5S2278,1900.0605469,2278,1891.5z M2297,2006c0-6.0751953,4.9248047-11,11-11
			s11,4.9248047,11,11s-4.9248047,11-11,11S2297,2012.0751953,2297,2006z M2329,2319c-5.5229492,0-10-4.4770508-10-10
			s4.4770508-10,10-10s10,4.4770508,10,10S2334.5229492,2319,2329,2319z M2327.5,2190c-12.9787598,0-23.5-10.5212402-23.5-23.5
			s10.5212402-23.5,23.5-23.5s23.5,10.5212402,23.5,23.5S2340.4787598,2190,2327.5,2190z M2362.8901367,1509.1971436
			c-4.817627,2.7005615-10.9123535,0.984375-13.612793-3.8331299c-2.7006836-4.817627-0.984375-10.9122314,3.8330078-13.612793
			c4.817627-2.7005615,10.9123535-0.984375,13.612793,3.833252
			C2369.4238281,1500.4019775,2367.7075195,1506.496582,2362.8901367,1509.1971436z M2365,848c-5.5229492,0-10-4.4771729-10-10
			c0-5.5228882,4.4770508-10,10-10s10,4.4771118,10,10C2375,843.5228271,2370.5229492,848,2365,848z M2384.5,1374
			c-5.7990723,0-10.5-4.7010498-10.5-10.5c0-5.7990723,4.7009277-10.5,10.5-10.5s10.5,4.7009277,10.5,10.5
			C2395,1369.2989502,2390.2990723,1374,2384.5,1374z M2463.6972656,1747.3129883
			c-2.1679688,1.215332-4.9104004,0.4428711-6.1257324-1.7248535c-1.2150879-2.1679688-0.4431152-4.9106445,1.7248535-6.1257324
			c2.1679688-1.215332,4.9106445-0.4431152,6.1257324,1.7248535
			C2466.6374512,1743.3552246,2465.8652344,1746.0976562,2463.6972656,1747.3129883z M2482.5,1653
			c-6.9035645,0-12.5-5.5964355-12.5-12.5s5.5964355-12.5,12.5-12.5s12.5,5.5964355,12.5,12.5S2489.4035645,1653,2482.5,1653z
			 M2491,1275.5c0-11.3217773,9.1782227-20.5,20.5-20.5s20.5,9.1782227,20.5,20.5s-9.1782227,20.5-20.5,20.5
			S2491,1286.8217773,2491,1275.5z M2524.9946289,1965.5866699c-0.088623,5.5222168-4.6369629,9.927002-10.1591797,9.8383789
			c-5.5219727-0.088623-9.9267578-4.6369629-9.8383789-10.1589355c0.088623-5.5222168,4.6369629-9.927002,10.1589355-9.8383789
			C2520.6782227,1955.5161133,2525.0830078,1960.0644531,2524.9946289,1965.5866699z M2526.5,2082
			c-14.635498,0-26.5-11.864502-26.5-26.5s11.864502-26.5,26.5-26.5s26.5,11.864502,26.5,26.5S2541.135498,2082,2526.5,2082z
			 M2558.8503418,1903.7646484c-8.6716309,4.861084-19.6418457,1.7719727-24.5029297-6.8996582
			c-4.0554199-7.234375-2.5615234-16.0559082,3.0749512-21.6081543C2534.232666,1873.8728027,2532,1870.6984863,2532,1867
			c0-4.9707031,4.0292969-9,9-9s9,4.0292969,9,9c0,1.0849609-0.2016602,2.1201172-0.5537109,3.083252
			c6.5056152-0.2121582,12.9013672,3.1088867,16.3037109,9.1784668
			C2570.611084,1887.9333496,2567.5219727,1898.9038086,2558.8503418,1903.7646484z M2558.8842773,1658.4160156
			c-6.2626953,3.5107422-14.185791,1.2797852-17.6965332-4.9831543s-1.2797852-14.185791,4.9831543-17.6965332
			c6.2626953-3.5107422,14.185791-1.2797852,17.6965332,4.9829102
			C2567.3781738,1646.9821777,2565.1469727,1654.9052734,2558.8842773,1658.4160156z M2568.6491699,1722.8725586
			c2.7006836,4.8173828,0.984375,10.9121094-3.8330078,13.612793c-4.817627,2.7004395-10.9123535,0.984375-13.612793-3.833252
			c-2.7006836-4.817627-0.984375-10.9123535,3.833252-13.612793
			C2559.8540039,1716.3388672,2565.9487305,1718.0549316,2568.6491699,1722.8725586z M2575.0283203,1867.1821289
			c-9.6350098,5.4013672-21.8242188,1.96875-27.2255859-7.6662598c-5.4008789-9.6350098-1.96875-21.8244629,7.6665039-27.2253418
			c9.6350098-5.4013672,21.8242188-1.96875,27.2255859,7.6662598
			C2588.0957031,1849.5917969,2584.6635742,1861.78125,2575.0283203,1867.1821289z M2575.2919922,1463.6690674
			c-9.3874512-0.1505127-16.8757324-7.8826904-16.7253418-17.2703857
			c0.1506348-9.3875732,7.8828125-16.8757324,17.2702637-16.7253418
			c9.3876953,0.1506348,16.8759766,7.8828125,16.7255859,17.2703857
			C2592.4118652,1456.3312988,2584.6796875,1463.8195801,2575.2919922,1463.6690674z M2608.5222168,1316.4768066
			c-5.5402832,3.1057129-12.5490723,1.1320801-15.6547852-4.4080811s-1.1320801-12.5489502,4.4082031-15.6546631
			s12.5490723-1.1320801,15.654541,4.4082031C2616.0358887,1306.3623047,2614.0622559,1313.3712158,2608.5222168,1316.4768066z
			 M2709.2697754,1780.467041c-5.0585938,2.8356934-11.4577637,1.0336914-14.293457-4.0246582
			c-2.8356934-5.0585938-1.0336914-11.4580078,4.0246582-14.293457c5.0585938-2.8356934,11.4580078-1.0336914,14.293457,4.0249023
			C2716.130127,1771.2321777,2714.328125,1777.6315918,2709.2697754,1780.467041z M2737.0024414,1628.4995117
			c2.7001953,4.8173828,0.984375,10.9121094-3.8334961,13.612793c-4.8173828,2.7004395-10.9121094,0.984375-13.6125488-3.833252
			c-2.7006836-4.817627-0.984375-10.9121094,3.833252-13.612793
			C2728.2070312,1621.9658203,2734.3017578,1623.6818848,2737.0024414,1628.4995117z M2725.4584961,1548.0866699
			c5.2458496,0.0841064,9.4304199,4.4050293,9.3464355,9.651123c-0.0842285,5.2459717-4.4050293,9.430542-9.651123,9.3464355
			c-5.2460938-0.0839844-9.4306641-4.4050293-9.3464355-9.651001
			C2715.8913574,1552.1872559,2720.2124023,1548.0026855,2725.4584961,1548.0866699z M2698,1063c11.0456543,0,20,8.9543457,20,20
			s-8.9543457,20-20,20s-20-8.9543457-20-20S2686.9543457,1063,2698,1063z M2693.1235352,1202.5609131
			c-4.8173828,2.7005615-10.9121094,0.984375-13.612793-3.8331299c-2.7004395-4.817627-0.984375-10.9122314,3.833252-13.612793
			s10.9123535-0.984375,13.612793,3.833252C2699.6572266,1193.7657471,2697.9411621,1199.8603516,2693.1235352,1202.5609131z
			 M2679.3881836,1319.168457c2.890625-1.6202393,6.5473633-0.5905762,8.1677246,2.3000488
			c1.6203613,2.8903809,0.5905762,6.5472412-2.3000488,8.1676025c-2.8903809,1.6202393-6.5471191,0.5906982-8.1674805-2.2999268
			C2675.4680176,1324.4456787,2676.4978027,1320.7888184,2679.3881836,1319.168457z M2667.7414551,1423.1413574
			c9.6350098-5.401123,21.8244629-1.96875,27.2255859,7.6663818s1.96875,21.8243408-7.6662598,27.2254639
			c-9.6352539,5.401123-21.8244629,1.96875-27.2255859-7.6662598
			C2654.6740723,1440.7316895,2658.1064453,1428.5424805,2667.7414551,1423.1413574z M2627.1015625,1725.5332031
			c-4.9697266-0.079834-8.934082-4.1733398-8.8544922-9.1433105s4.1733398-8.934082,9.1430664-8.8544922
			c4.9699707,0.0795898,8.9343262,4.1730957,8.8547363,9.1430664
			C2636.1650391,1721.6484375,2632.0715332,1725.612793,2627.1015625,1725.5332031z M2628.3615723,799.8826294
			c2.4343262-0.5003052,4.8134766,1.067688,5.3137207,3.5021973c0.5002441,2.4342651-1.0678711,4.8132935-3.5021973,5.3135986
			c-2.4343262,0.5001831-4.8134766-1.0678101-5.3137207-3.5021362
			C2624.3591309,802.7617798,2625.9272461,800.3828125,2628.3615723,799.8826294z M2627.5,862c2.4853516,0,4.5,2.0145874,4.5,4.5
			s-2.0146484,4.5-4.5,4.5s-4.5-2.0145874-4.5-4.5S2625.0146484,862,2627.5,862z M2615,1024c7.7319336,0,14,6.2680664,14,14
			s-6.2680664,14-14,14s-14-6.2680664-14-14S2607.2680664,1024,2615,1024z M2596,1063c1.1044922,0,2,0.8953857,2,2
			c0,1.1044922-0.8955078,2-2,2s-2-0.8955078-2-2C2594,1063.8953857,2594.8955078,1063,2596,1063z M2592.0822754,1271.8116455
			c5.6711426,10.1168213,2.0671387,22.9156494-8.0495605,28.586792
			c-10.1169434,5.6711426-22.9155273,2.0671387-28.5869141-8.0496826
			c-5.6708984-10.1168213-2.0671387-22.9156494,8.0498047-28.586792
			C2573.6123047,1258.0908203,2586.4111328,1261.6948242,2592.0822754,1271.8116455z M2541.699707,988.3765259
			c2.7773438-4.7737427,8.8989258-6.3919067,13.6723633-3.614502c4.7736816,2.7772827,6.3920898,8.8988037,3.614502,13.6723022
			c-2.7773438,4.7736816-8.8986816,6.3919678-13.6723633,3.614502
			C2540.5405273,999.2714844,2538.9223633,993.1500854,2541.699707,988.3765259z M2550.5,1073c14.083252,0,25.5,11.416748,25.5,25.5
			s-11.416748,25.5-25.5,25.5s-25.5-11.416748-25.5-25.5S2536.416748,1073,2550.5,1073z M2518,925c0,9.9412231-8.0588379,18-18,18
			s-18-8.0587769-18-18s8.0588379-18,18-18S2518,915.0587769,2518,925z M2473.5,723c5.7990723,0,10.5,4.7009277,10.5,10.5
			c0,5.7990112-4.7009277,10.5-10.5,10.5s-10.5-4.7009888-10.5-10.5C2463,727.7009277,2467.7009277,723,2473.5,723z M2474,873
			c11.0456543,0,20,8.9542847,20,20s-8.9543457,20-20,20s-20-8.9542847-20-20S2462.9543457,873,2474,873z M2482,1101
			c0,5.5228271-4.4770508,10-10,10s-10-4.4771729-10-10c0-5.5229492,4.4770508-10,10-10S2482,1095.4770508,2482,1101z M2472.5,1553
			c10.2172852,0,18.5,8.2827148,18.5,18.5s-8.2827148,18.5-18.5,18.5s-18.5-8.2827148-18.5-18.5S2462.2827148,1553,2472.5,1553z
			 M2429.5373535,1602.5266113c6.0219727-3.3757324,13.6403809-1.2304688,17.0158691,4.7915039
			c3.3757324,6.0218506,1.2304688,13.6401367-4.7915039,17.0158691s-13.6401367,1.2304688-17.0158691-4.7915039
			S2423.5153809,1605.9023438,2429.5373535,1602.5266113z M2416,575c3.3137207,0,6,2.6863403,6,6c0,3.3137207-2.6862793,6-6,6
			s-6-2.6862793-6-6C2410,577.6863403,2412.6862793,575,2416,575z M2421.5,2124c6.3513184,0,11.5,5.1486816,11.5,11.5
			s-5.1486816,11.5-11.5,11.5s-11.5-5.1486816-11.5-11.5S2415.1486816,2124,2421.5,2124z M2409,1017c0,3.8660278-3.1340332,7-7,7
			s-7-3.1339722-7-7s3.1340332-7,7-7S2409,1013.1339722,2409,1017z M2395.902832,778.3132324
			c-2.4995117,4.2962036-8.0087891,5.7526855-12.3051758,3.2529907s-5.7526855-8.0087891-3.2529297-12.3052368
			c2.4995117-4.2962646,8.0087891-5.7526855,12.3051758-3.2530518
			C2396.9460449,768.5076294,2398.4025879,774.0167847,2395.902832,778.3132324z M2384.5,490c5.7990723,0,10.5,4.7009888,10.5,10.5
			s-4.7009277,10.5-10.5,10.5s-10.5-4.7009888-10.5-10.5S2378.7009277,490,2384.5,490z M2375,645c0,5.5228271-4.4770508,10-10,10
			s-10-4.4771729-10-10c0-5.5228882,4.4770508-10,10-10S2375,639.4771118,2375,645z"/>
		<circle class="st2" cx="509" cy="1764" r="6"/>
		<circle class="st2" cx="1983" cy="1850" r="4"/>
		<circle class="st2" cx="1854" cy="2179" r="10"/>
		<circle class="st2" cx="2421.5" cy="2135.5" r="11.5"/>
		<circle class="st2" cx="2238" cy="1784" r="14"/>
		<circle class="st2" cx="2151.5" cy="1976.5" r="11.5"/>
		<circle class="st2" cx="2112.5" cy="2111.5" r="12.5"/>
		<circle class="st2" cx="695.5" cy="2100.5" r="18.5"/>
		<circle class="st2" cx="2384.5" cy="1363.5" r="10.5"/>
		<circle class="st2" cx="2482.5" cy="1640.5" r="12.5"/>
		<circle class="st2" cx="291" cy="1432" r="10"/>
		<circle class="st2" cx="532" cy="1191" r="17"/>
		<circle class="st2" cx="621" cy="752" r="16"/>
		<circle class="st2" cx="389.5" cy="680.5" r="18.5"/>
		<circle class="st2" cx="782.5" cy="454.5" r="27.5"/>
		<circle class="st2" cx="2086" cy="429" r="2"/>
		<circle class="st2" cx="2172" cy="595" r="20"/>
		<circle class="st2" cx="2291" cy="805" r="13"/>
		<circle class="st2" cx="1750" cy="224" r="18"/>
		<circle class="st2" cx="1114" cy="392" r="12"/>
		<circle class="st2" cx="1750" cy="2387" r="18"/>
		<circle class="st2" cx="1027.5" cy="2546.5" r="19.5"/>
		<circle class="st2" cx="764" cy="2396" r="9"/>
		<circle class="st2" cx="553.5" cy="1460.5" r="4.5"/>
		<circle class="st2" cx="380.5" cy="1082.5" r="9.5"/>
		<circle class="st2" cx="476" cy="922" r="9"/>
		<circle class="st2" cx="2402" cy="1017" r="7"/>
		<circle class="st2" cx="2416" cy="581" r="6"/>
		<circle class="st2" cx="2286" cy="1235" r="6"/>
		<circle class="st2" cx="2472.5" cy="1571.5" r="18.5"/>
		<circle class="st2" cx="2511.5" cy="1275.5" r="20.5"/>
		<circle class="st2" cx="2262" cy="1386" r="18"/>
		<circle class="st2" cx="2474" cy="893" r="20"/>
		<circle class="st2" cx="2068" cy="903" r="10"/>
		<path class="st2" d="M2549.4462891,1870.083252C2549.7983398,1869.1201172,2550,1868.0849609,2550,1867
			c0-4.9707031-4.0292969-9-9-9s-9,4.0292969-9,9c0,3.6984863,2.232666,6.8728027,5.4223633,8.2568359
			c1.1196289-1.1030273,2.3876953-2.0891113,3.824707-2.8947754
			C2543.8491211,1870.9035645,2546.6577148,1870.1743164,2549.4462891,1870.083252z"/>
		<circle class="st2" cx="2330.5" cy="931.5" r="4.5"/>
		<path class="st2" d="M1947.2294922,1573.6669922c3.2460938-0.6669922,5.3366699-3.8389893,4.6696777-7.0849609
			c-0.6669922-3.2458496-3.8391113-5.3364258-7.0849609-4.6694336s-5.3364258,3.8389893-4.6694336,7.0849609
			C1940.8117676,1572.2434082,1943.9836426,1574.3339844,1947.2294922,1573.6669922z"/>
		<path class="st2" d="M1657.6713867,1836.3249512c10.0080566-2.0563965,16.4541016-11.8369141,14.3974609-21.8449707
			c-2.0563965-10.0083008-11.8369141-16.4543457-21.8449707-14.3977051
			c-10.0080566,2.0563965-16.4543457,11.8369141-14.3977051,21.8449707
			C1637.8828125,1831.9355469,1647.6630859,1838.3815918,1657.6713867,1836.3249512z"/>
		<path class="st2" d="M1971.8198242,1792.7001953c-2.2788086-11.0900879-13.1164551-18.2329102-24.206543-15.9541016
			s-18.2331543,13.1164551-15.9541016,24.206543c2.2788086,11.090332,13.1164551,18.2331543,24.206543,15.9543457
			C1966.9558105,1814.6279297,1974.098877,1803.7902832,1971.8198242,1792.7001953z"/>
		<path class="st2" d="M1796.9047852,1592.3059082c9.7375488-2.0009766,16.0092773-11.5169678,14.0083008-21.2546387
			s-11.5168457-16.0095215-21.2543945-14.0085449c-9.737793,2.0009766-16.0097656,11.5169678-14.0087891,21.2546387
			C1777.6508789,1588.0349121,1787.1669922,1594.3068848,1796.9047852,1592.3059082z"/>
		<path class="st2" d="M2322.8886719,1702.6948242c10.8198242-2.2231445,17.7883301-12.7963867,15.5651855-23.6162109
			c-2.2233887-10.8195801-12.7966309-17.7883301-23.6164551-15.5649414
			c-10.8195801,2.2231445-17.7883301,12.7966309-15.5649414,23.6162109
			C2301.4956055,1697.9494629,2312.0690918,1704.9182129,2322.8886719,1702.6948242z"/>
		<path class="st2" d="M2229.3608398,1297.2216797c5.409668-1.1115723,8.894043-6.3981934,7.7824707-11.8081055
			c-1.1115723-5.40979-6.3981934-8.894165-11.8081055-7.7824707c-5.4099121,1.1115723-8.8942871,6.3983154-7.7824707,11.8081055
			C2218.6643066,1294.848999,2223.9509277,1298.333374,2229.3608398,1297.2216797z"/>
		<path class="st2" d="M1387.098877,1942.9685059c-1.0004883-4.8688965-5.7585449-8.0048828-10.6271973-7.0043945
			c-4.8688965,1.0004883-8.0048828,5.7585449-7.0043945,10.6274414s5.7585449,8.0046387,10.6274414,7.0041504
			C1384.9633789,1952.5952148,1388.0993652,1947.8374023,1387.098877,1942.9685059z"/>
		<path class="st2" d="M2251.3615723,1545.8825684c-2.4343262,0.5002441-4.0024414,2.8792725-3.5021973,5.3137207
			c0.5002441,2.4343262,2.8793945,4.0023193,5.3137207,3.5020752s4.0024414-2.8792725,3.5021973-5.3135986
			C2256.1750488,1546.9503174,2253.7958984,1545.3823242,2251.3615723,1545.8825684z"/>
		<path class="st2" d="M593.3098145,436.3823242c-3.1661377,0.977478-4.9404297,4.336792-3.9628906,7.5029907
			c0.9776611,3.1661987,4.336853,4.9403992,7.5030518,3.9628906c3.1661987-0.9776001,4.9405518-4.336792,3.9630127-7.5029907
			C599.8353271,437.1789856,596.4760742,435.4047241,593.3098145,436.3823242z"/>
		<path class="st2" d="M449.030304,480.9288025c9.4988098-2.9326782,14.8215027-13.010376,11.8886108-22.5090942
			c-2.9326172-9.4987183-13.0103149-14.8213806-22.5090027-11.8887024
			c-9.4988098,2.9327087-14.8215027,13.0104065-11.8887024,22.5091248
			C429.4538879,478.5388184,439.5315857,483.8616028,449.030304,480.9288025z"/>
		<path class="st2" d="M850.9418945,145.4290009c5.2769165-1.6292725,8.2341309-7.2279968,6.6046753-12.5050049
			c-1.6290894-5.2770691-7.2279663-8.2340698-12.5050659-6.6047745c-5.2769165,1.6292038-8.2338867,7.2278976-6.6046753,12.5049973
			C840.0662231,144.1013184,845.6647949,147.0583191,850.9418945,145.4290009z"/>
		<path class="st2" d="M1144.3481445,278.807312c-8.9709473,2.7698059-13.9980469,12.2875061-11.2282715,21.258606
			c2.7697754,8.9709167,12.2875977,13.9980164,21.2585449,11.2282104s13.9980469-12.2875977,11.2282715-21.258606
			S1153.3190918,276.0375061,1144.3481445,278.807312z"/>
		<path class="st2" d="M899.527771,399.3988037c2.3748169-0.7331848,3.7056274-3.252594,2.972229-5.6272888
			c-0.7332153-2.3746033-3.2523804-3.7052917-5.6271973-2.9721069c-2.3748169,0.7331238-3.7053223,3.2525024-2.972229,5.6271973
			C894.6337891,398.8013306,897.1533203,400.1319885,899.527771,399.3988037z"/>
		<path class="st2" d="M1217.4174805,115.4821243c-1.5478516-5.0131989-6.8666992-7.822403-11.8798828-6.2745972
			c-5.0131836,1.5478973-7.8222656,6.8666-6.2744141,11.8797989s6.8666992,7.822403,11.8798828,6.2745972
			C1216.15625,125.8141251,1218.965332,120.4953232,1217.4174805,115.4821243z"/>
		<path class="st2" d="M1387.2155762,153.5858307c-4.7492676,1.4664001-7.4108887,6.5051727-5.9443359,11.2544861
			c1.4663086,4.7494049,6.505127,7.4106903,11.2543945,5.9444122c4.7492676-1.4664001,7.4108887-6.5052032,5.9443359-11.2545013
			C1397.0036621,154.7808228,1391.9648438,152.1194305,1387.2155762,153.5858307z"/>
		<path class="st2" d="M1640.7312012,384.0571289c2.8642578,1.6663818,6.5371094,0.6954956,8.2033691-2.1687012
			c1.6665039-2.8641968,0.6955566-6.5370178-2.168457-8.2035217c-2.8642578-1.6663818-6.5371094-0.6954956-8.2036133,2.1687012
			S1637.8671875,382.390625,1640.7312012,384.0571289z"/>
		<path class="st2" d="M1534.3540039,266.631012c-8.5925293-4.9993896-19.6108398-2.0864868-24.6103516,6.5061035
			c-4.9992676,8.5924988-2.0864258,19.6108704,6.5061035,24.6102905s19.611084,2.0865173,24.6103516-6.506073
			C1545.859375,282.6488342,1542.9467773,271.6304321,1534.3540039,266.631012z"/>
		<path class="st2" d="M2035.314209,366.0489197c4.7736816,2.7774048,10.8950195,1.1592102,13.6723633-3.614502
			c2.7775879-4.7735901,1.1591797-10.894989-3.614502-13.6724243c-4.7734375-2.7773743-10.8950195-1.1591797-13.6723633,3.6145325
			C2028.9223633,357.150116,2030.5405273,363.2715149,2035.314209,366.0489197z"/>
		<path class="st2" d="M2112.7585449,678.3618164c-4.7216797,8.1152954-1.9707031,18.5214844,6.1445312,23.2431641
			c8.1152344,4.7217407,18.5214844,1.9706421,23.2431641-6.1446533c4.7216797-8.1151123,1.970459-18.5215454-6.1445312-23.243042
			C2127.8864746,667.4956055,2117.4799805,670.246582,2112.7585449,678.3618164z"/>
		<path class="st2" d="M1885.9619141,566.0742188c-2.1481934-1.2498779-4.902832-0.5216064-6.152832,1.6264648
			c-1.2497559,2.1481323-0.5214844,4.902832,1.626709,6.1526489c2.1481934,1.2497559,4.9025879,0.5216064,6.1525879-1.6266479
			C1888.8381348,570.0786133,1888.1098633,567.3239746,1885.9619141,566.0742188z"/>
		<path class="st2" d="M2305.6342773,615.3043823c2.6384277-4.5348511,1.1010742-10.3500977-3.4338379-12.9886475
			s-10.3503418-1.1011963-12.9887695,3.4337769c-2.6386719,4.5349121-1.1013184,10.3502197,3.4335938,12.9888306
			C2297.1801758,621.3768311,2302.9956055,619.8395386,2305.6342773,615.3043823z"/>
		<path class="st2" d="M2392.6499023,766.0079346c-4.2963867-2.4996338-9.8056641-1.0432129-12.3051758,3.2530518
			c-2.4997559,4.2964478-1.043457,9.805542,3.2529297,12.3052368s9.8056641,1.0432129,12.3051758-3.2529907
			C2398.4025879,774.0167847,2396.9460449,768.5076294,2392.6499023,766.0079346z"/>
		<path class="st2" d="M678.0147705,2269.7580566c5.3448486,2.2497559,11.5013428-0.2590332,13.7513428-5.6037598
			c2.2498169-5.3447266-0.2590332-11.5014648-5.6039429-13.7514648c-5.3446655-2.2497559-11.5012817,0.2590332-13.7511597,5.6040039
			C670.1610718,2261.3515625,672.6699829,2267.5080566,678.0147705,2269.7580566z"/>
		<path class="st2" d="M393.6140137,2231.4140625c-6.3628235-2.6784668-13.6921082,0.3083496-16.3705139,6.6711426
			c-2.6783142,6.362793,0.3085022,13.6921387,6.6712952,16.3706055s13.6921082-0.3083496,16.3705139-6.6711426
			C402.9635925,2241.421875,399.9768982,2234.0925293,393.6140137,2231.4140625z"/>
		<path class="st2" d="M1238.1604004,2378.6069336c-6.6171875-2.7856445-14.2397461,0.3205566-17.0253906,6.9379883
			c-2.7854004,6.6171875,0.3208008,14.2397461,6.9382324,17.0253906c6.6171875,2.7854004,14.2397461-0.3208008,17.0253906-6.9382324
			C1247.8840332,2389.0148926,1244.777832,2381.392334,1238.1604004,2378.6069336z"/>
		<path class="st2" d="M997.373291,2404.1914062c-3.5631714-1.5-7.6674805,0.1726074-9.1674805,3.7358398
			c-1.4996948,3.5632324,0.1726074,7.6674805,3.7359009,9.1674805c3.5631714,1.5,7.6676636-0.1726074,9.1676636-3.7358398
			C1002.6090698,2409.7958984,1000.9365234,2405.6914062,997.373291,2404.1914062z"/>
		<path class="st2" d="M1393.4018555,2587.173584c-3.0541992-1.2856445-6.5722656,0.1481934-7.8579102,3.2021484
			c-1.2856445,3.0541992,0.1479492,6.5722656,3.2021484,7.8579102s6.5722656-0.1479492,7.8579102-3.2021484
			S1396.4560547,2588.4592285,1393.4018555,2587.173584z"/>
		<path class="st2" d="M836.4105835,2224.6806641c3.0541992,1.2856445,6.5723267-0.1479492,7.8580322-3.2021484
			c1.2855835-3.0539551-0.1480103-6.5720215-3.2022095-7.857666s-6.5723267,0.1479492-7.8579102,3.2021484
			C831.9229126,2219.8769531,833.3566895,2223.3952637,836.4105835,2224.6806641z"/>
		<path class="st2" d="M1099.4545898,2382.0629883c2.2905273,0.9643555,4.9291992-0.1108398,5.8935547-2.4013672
			c0.9641113-2.2907715-0.111084-4.9291992-2.4018555-5.8935547c-2.2905273-0.9643555-4.9289551,0.111084-5.8933105,2.4016113
			C1096.0888672,2378.4604492,1097.1640625,2381.098877,1099.4545898,2382.0629883z"/>
		<path class="st2" d="M1417.4538574,2466.2443848c-3.1560059-4.1911621-9.1123047-5.0305176-13.3037109-1.8745117
			c-4.1911621,3.1560059-5.0305176,9.1123047-1.8745117,13.3037109c3.1560059,4.1911621,9.1123047,5.0305176,13.3037109,1.8745117
			C1419.7705078,2476.3920898,1420.6098633,2470.435791,1417.4538574,2466.2443848z"/>
		<path class="st2" d="M1218.7895508,2485.0246582c-3.9709473,2.9899902-4.7661133,8.6328125-1.7758789,12.6035156
			c2.9897461,3.9707031,8.6325684,4.7658691,12.6032715,1.7758789s4.7658691-8.6328125,1.7758789-12.6035156
			S1222.7602539,2482.034668,1218.7895508,2485.0246582z"/>
		<path class="st2" d="M1306.6176758,1904.9436035c5.5402832,3.1057129,12.5490723,1.1320801,15.6547852-4.4082031
			c3.1054688-5.5402832,1.1318359-12.5490723-4.4082031-15.654541c-5.5402832-3.1057129-12.5490723-1.1320801-15.6547852,4.407959
			C1299.1040039,1894.8291016,1301.0776367,1901.8378906,1306.6176758,1904.9436035z"/>
		<path class="st2" d="M1720.7924805,1913.5681152c3.7810059-6.7446289,1.378418-15.2770996-5.3662109-19.0578613
			s-15.2770996-1.3781738-19.0578613,5.3664551c-3.7807617,6.7443848-1.3781738,15.2770996,5.3664551,19.0578613
			S1717.0117188,1920.3125,1720.7924805,1913.5681152z"/>
		<path class="st2" d="M1588.5837402,1727.1088867c-5.5402832-3.1057129-12.5490723-1.1320801-15.6547852,4.4082031
			c-3.1057129,5.5400391-1.1320801,12.5488281,4.4082031,15.654541s12.5490723,1.1320801,15.654541-4.4082031
			C1596.0974121,1737.2233887,1594.1237793,1730.2143555,1588.5837402,1727.1088867z"/>
		<path class="st2" d="M2012.9042969,2245.263916c2.8354492-5.0585938,1.0334473-11.4577637-4.0249023-14.293457
			c-5.0585938-2.8356934-11.4577637-1.0336914-14.293457,4.0246582c-2.8354492,5.0585938-1.0336914,11.4580078,4.0249023,14.293457
			C2003.6691895,2252.1242676,2010.0686035,2250.3222656,2012.9042969,2245.263916z"/>
		<path class="st2" d="M1720.3115234,2179.2634277c-6.0219727-3.3757324-13.6401367-1.2304688-17.0158691,4.7915039
			c-3.3757324,6.0217285-1.2304688,13.6401367,4.7915039,17.0158691c6.0217285,3.3757324,13.6401367,1.2304688,17.0158691-4.7915039
			S1726.3334961,2182.6391602,1720.3115234,2179.2634277z"/>
		<path class="st2" d="M2169.2333984,2219.9763184c1.6201172-2.890625,0.5905762-6.5473633-2.3000488-8.1677246
			c-2.8903809-1.6203613-6.5471191-0.5905762-8.1677246,2.2998047c-1.6201172,2.890625-0.5905762,6.5473633,2.3000488,8.1677246
			C2163.9560547,2223.8964844,2167.6130371,2222.8666992,2169.2333984,2219.9763184z"/>
		<path class="st2" d="M1770.2314453,2231.3212891c8.9123535,4.9960938,20.1875,1.8210449,25.1835938-7.0913086
			c4.9958496-8.9125977,1.8210449-20.1877441-7.0913086-25.1835938c-8.9125977-4.9960938-20.1877441-1.8212891-25.1835938,7.0913086
			C1758.144043,2215.0500488,1761.3188477,2226.3251953,1770.2314453,2231.3212891z"/>
		<path class="st2" d="M2028.4306641,2376.059082c-9.8759766-5.5361328-22.369873-2.0178223-27.9060059,7.8581543
			s-2.0180664,22.369873,7.8579102,27.9060059s22.369873,2.0180664,27.9060059-7.8579102
			S2038.3066406,2381.5952148,2028.4306641,2376.059082z"/>
		<path class="st2" d="M2052.8200684,2106.5700684c-8.6716309-4.861084-19.6418457-1.7719727-24.5029297,6.8996582
			s-1.7719727,19.6418457,6.8996582,24.5029297s19.6420898,1.7719727,24.5029297-6.8996582
			C2064.5808105,2122.4013672,2061.4916992,2111.4311523,2052.8200684,2106.5700684z"/>
		<path class="st2" d="M1492.4199219,2122.5917969c-4.3356934-2.4304199-9.8208008-0.8859863-12.2514648,3.4499512
			c-2.4304199,4.3356934-0.8859863,9.8208008,3.4499512,12.2514648c4.3356934,2.4304199,9.8208008,0.8859863,12.2514648-3.4499512
			C1498.300293,2130.5075684,1496.7558594,2125.0224609,1492.4199219,2122.5917969z"/>
		<path class="st2" d="M2149.9819336,2130.7163086c-5.2626953-1.6755371-10.887207,1.2321777-12.5627441,6.494873
			c-1.6755371,5.2624512,1.2321777,10.8869629,6.4946289,12.5625s10.8869629-1.2321777,12.5627441-6.4946289
			C2158.1520996,2138.0166016,2155.2443848,2132.3920898,2149.9819336,2130.7163086z"/>
		<path class="st2" d="M1904.1025391,2037.7348633c2.3681641,0.7539062,4.8989258-0.5546875,5.6530762-2.9226074
			c0.7541504-2.3681641-0.5544434-4.8991699-2.9226074-5.6533203c-2.3682861-0.7539062-4.8991699,0.5544434-5.6533203,2.9226074
			C1900.4257812,2034.449707,1901.734375,2036.9807129,1904.1025391,2037.7348633z"/>
		<circle class="st2" cx="724.5" cy="1983.5" r="11.5"/>
		<circle class="st2" cx="541" cy="1632" r="14"/>
		<circle class="st2" cx="454.5" cy="1824.5" r="11.5"/>
		<circle class="st2" cx="415.5" cy="1959.5" r="12.5"/>
		<circle class="st2" cx="785.5" cy="1488.5" r="12.5"/>
		<circle class="st2" cx="844" cy="1715" r="9"/>
		<path class="st2" d="M554.3615723,1393.8825684c-2.4343872,0.5002441-4.0025024,2.8792725-3.5021973,5.3137207
			c0.5002441,2.4343262,2.8793945,4.0023193,5.3137207,3.5020752c2.4343872-0.5002441,4.0023804-2.8792725,3.5021973-5.3135986
			C559.1749878,1394.9503174,556.7960205,1393.3823242,554.3615723,1393.8825684z"/>
		<path class="st2" d="M469.9332886,2059.8085938c-2.8905029-1.6203613-6.5471802-0.5905762-8.1676025,2.2998047
			c-1.6203003,2.890625-0.5906982,6.5473633,2.3000183,8.1677246c2.8905029,1.6203613,6.5473022,0.5905762,8.1676025-2.2998047
			C473.8536072,2065.0856934,472.8240051,2061.4289551,469.9332886,2059.8085938z"/>
		<path class="st2" d="M338.2167969,1985.9726562c8.6716003,4.861084,19.6419983,1.7719727,24.5028992-6.8996582
			c4.8611145-8.6716309,1.7720032-19.6418457-6.8995972-24.5029297c-8.6716919-4.861084-19.6419067-1.7719727-24.5029907,6.8996582
			C326.4560852,1970.1413574,329.5451965,1981.1115723,338.2167969,1985.9726562z"/>
		<path class="st2" d="M452.9818115,1978.7163086c-5.2626038-1.6755371-10.8871155,1.2321777-12.5626221,6.494873
			c-1.6754761,5.2624512,1.2322083,10.8869629,6.4945984,12.5625c5.2626038,1.6755371,10.8870239-1.2321777,12.5628052-6.4946289
			C461.1520996,1986.0166016,458.2443848,1980.3920898,452.9818115,1978.7163086z"/>
		<circle class="st2" cx="274.5" cy="1635.5" r="17.5"/>
		<circle class="st2" cx="291" cy="1239" r="10"/>
		<circle class="st2" cx="399.5" cy="1327.5" r="10.5"/>
		<circle class="st2" cx="711" cy="1303" r="6"/>
		<circle class="st2" cx="638" cy="1041" r="17"/>
		<circle class="st2" cx="271.5" cy="907.5" r="14.5"/>
		<circle class="st3" cx="481.5" cy="802.5" r="5.5"/>
		<circle class="st3" cx="2071" cy="1584" r="9"/>
		<circle class="st3" cx="2274" cy="1116" r="12"/>
		<circle class="st3" cx="1962" cy="465" r="10"/>
		<circle class="st3" cx="1376" cy="285" r="7"/>
		<circle class="st3" cx="840.5" cy="622.5" r="7.5"/>
		<circle class="st3" cx="666" cy="598" r="11"/>
		<circle class="st3" cx="959" cy="250" r="8"/>
		<circle class="st3" cx="680.5" cy="1547.5" r="14.5"/>
		<circle class="st3" cx="631.5" cy="1835.5" r="10.5"/>
		<circle class="st3" cx="426" cy="1519" r="18"/>
		<circle class="st3" cx="409" cy="946" r="19"/>
		<circle class="st3" cx="1809.5" cy="1800.5" r="16.5"/>
		<circle class="st3" cx="2293.5" cy="1891.5" r="15.5"/>
		<circle class="st3" cx="2127" cy="1385" r="17"/>
		<circle class="st3" cx="2028.5" cy="1950.5" r="14.5"/>
		<circle class="st3" cx="819.5" cy="2121.5" r="21.5"/>
		<circle class="st3" cx="1283.5" cy="2592.5" r="5.5"/>
		<circle class="st3" cx="1557" cy="2541" r="14"/>
		<circle class="st3" cx="1670" cy="2331" r="2"/>
		<circle class="st3" cx="986" cy="501" r="19"/>
		<circle class="st3" cx="1661" cy="275" r="17"/>
		<circle class="st3" cx="1983" cy="608" r="21"/>
		<circle class="st3" cx="2204.5" cy="890.5" r="12.5"/>
		<circle class="st2" cx="2073" cy="534" r="6"/>
		<circle class="st2" cx="1855" cy="202" r="10"/>
		<circle class="st2" cx="2117.5" cy="230.5" r="4.5"/>
		<circle class="st2" cx="2105" cy="402" r="14"/>
		<circle class="st2" cx="2018.5" cy="594.5" r="11.5"/>
		<circle class="st2" cx="1838.5" cy="405.5" r="17.5"/>
		<circle class="st3" cx="2244.5" cy="317.5" r="14.5"/>
		<circle class="st3" cx="1990" cy="289" r="18"/>
		<circle class="st2" cx="2596" cy="1065" r="2"/>
		<path class="st2" d="M2545.314209,1002.0488281c4.7736816,2.7774658,10.8950195,1.1591797,13.6723633-3.614502
			c2.7775879-4.7734985,1.1591797-10.8950195-3.614502-13.6723022c-4.7734375-2.7774048-10.8950195-1.1592407-13.6723633,3.614502
			C2538.9223633,993.1500854,2540.5405273,999.2714844,2545.314209,1002.0488281z"/>
		<circle class="st3" cx="2472" cy="1101" r="10"/>
		<circle class="st2" cx="2365" cy="838" r="10"/>
		<circle class="st2" cx="2627.5" cy="866.5" r="4.5"/>
		<circle class="st2" cx="2615" cy="1038" r="14"/>
		<path class="st2" d="M2630.1730957,808.6984253c2.4343262-0.5003052,4.0024414-2.8793335,3.5021973-5.3135986
			c-0.5002441-2.4345093-2.8793945-4.0025024-5.3137207-3.5021973c-2.4343262,0.5001831-4.0024414,2.8791504-3.5021973,5.3136597
			C2625.3596191,807.6306152,2627.7387695,809.1986084,2630.1730957,808.6984253z"/>
		<circle class="st2" cx="2348.5" cy="1041.5" r="17.5"/>
		<circle class="st2" cx="2365" cy="645" r="10"/>
		<circle class="st2" cx="2473.5" cy="733.5" r="10.5"/>
		<circle class="st3" cx="2500" cy="925" r="18"/>
		<path class="st2" d="M109.047699,1267.8569336c3.2611008-0.5881348,5.4279022-3.7086182,4.839798-6.9697266
			c-0.5881958-3.2611084-3.7084961-5.4279785-6.9697952-4.8397217c-3.2610016,0.5881348-5.427803,3.7086182-4.8395996,6.9696045
			C102.6662979,1266.2783203,105.7865982,1268.4450684,109.047699,1267.8569336z"/>
		<path class="st2" d="M383.2246094,1559.8278809c5.4353027-0.9803467,9.0466003-6.1811523,8.0663757-11.6162109
			c-0.9802856-5.4351807-6.1810913-9.0466309-11.6161804-8.0662842c-5.4352112,0.9803467-9.0466003,6.1810303-8.0663147,11.6160889
			C372.5888977,1557.1967773,377.7896118,1560.8081055,383.2246094,1559.8278809z"/>
		<path class="st2" d="M203.7828064,1826.9189453c-1.6663055-9.2397461-10.5077057-15.3791504-19.747406-13.7126465
			c-9.2397003,1.6662598-15.3791046,10.5075684-13.7126007,19.7473145s10.5075989,15.3791504,19.747406,13.7126465
			C199.309906,1845,205.449295,1836.1586914,203.7828064,1826.9189453z"/>
		<path class="st2" d="M117.260498,1564.1030273c-2.4458008,0.4411621-4.0709991,2.7814941-3.6298981,5.2272949
			c0.4412003,2.4458008,2.7815018,4.0710449,5.2273026,3.6298828s4.0709-2.7814941,3.6298981-5.2272949
			C122.0466003,1565.2871094,119.7062988,1563.6619873,117.260498,1564.1030273z"/>
		<path class="st2" d="M353.7192078,1900.473877c-5.1632996,0.9311523-8.5942078,5.8718262-7.6629028,11.0354004
			c0.9311829,5.1633301,5.8718872,8.5942383,11.0354004,7.6628418c5.1633911-0.9313965,8.5940857-5.8720703,7.6629028-11.0354004
			C363.8233948,1902.9733887,358.8825989,1899.5424805,353.7192078,1900.473877z"/>
		<path class="st2" d="M153.4992981,772.0084229c0.962204-4.3034058-0.427597-8.5780029-3.3078918-11.5021362
			c-3.5696106,7.0187988-7.0820007,14.0715942-10.5351105,21.1586304
			C146.012207,782.5153809,152.0735931,778.3837891,153.4992981,772.0084229z"/>
		<path class="st2" d="M102.4052963,1411.3137207c7.6091003-1.3723145,12.6650009-8.6533203,11.2927017-16.2625732
			c-1.3723984-7.6092529-8.6533966-12.6651611-16.2626953-11.2928467
			c-7.6091003,1.3725586-12.6651993,8.6535645-11.2927017,16.2626953
			C87.5149002,1407.630249,94.7958984,1412.6862793,102.4052963,1411.3137207z"/>
		<path class="st2" d="M148.8376007,1181.421875c-6.2503052,1.1274414-10.4033966,7.1081543-9.2761078,13.3586426
			c1.1273041,6.2504883,7.1082001,10.4035645,13.3587036,9.2762451c6.2503052-1.1273193,10.4035034-7.1082764,9.2761078-13.3586426
			C161.0691071,1184.4477539,155.0881042,1180.2946777,148.8376007,1181.421875z"/>
		<path class="st2" d="M177.5993958,1050.7419434c-1.2254028-6.7939453-7.7263947-11.3082275-14.5202942-10.0828857
			s-11.3081055,7.7261963-10.0827942,14.5201416c1.2253876,6.7939453,7.7261963,11.3083496,14.5201874,10.0828857
			C174.3103943,1064.0367432,178.824707,1057.5358887,177.5993958,1050.7419434z"/>
		<path class="st2" d="M125.6880035,1625.8898926c-2.3069,0.9245605-3.4277039,3.5439453-2.5034027,5.8508301
			c0.9244003,2.3071289,3.5438995,3.4277344,5.8509064,2.503418c2.3069916-0.9243164,3.427887-3.5439453,2.5033875-5.8508301
			C130.614502,1626.0864258,127.9950027,1624.9655762,125.6880035,1625.8898926z"/>
		<path class="st2" d="M93.9244003,963.9064331c3.1322021,1.081543,6.5483017-0.5808105,7.6297989-3.7130127
			c1.0814972-3.1324463-0.5808029-6.5483398-3.7130966-7.6299438c-3.1324005-1.081543-6.5483017,0.5809326-7.6297989,3.7131348
			C89.1297989,959.4088745,90.7921982,962.8248291,93.9244003,963.9064331z"/>
		
			<ellipse transform="matrix(0.4217901 -0.9066935 0.9066935 0.4217901 -800.6409302 804.9216309)" class="st2" cx="230.7801208" cy="1030.2050781" rx="17.9999447" ry="18.0000248"/>
		<path class="st2" d="M127.5894012,1020.8704224c-5.4764023-0.7149048-10.4954987,3.1449585-11.2105026,8.6212769
			c-0.714798,5.4764404,3.1450043,10.4954834,8.6212997,11.2104492c5.4765015,0.7148438,10.4954987-3.1450195,11.210495-8.6213379
			C136.9255066,1026.6043701,133.0657043,1021.5853271,127.5894012,1020.8704224z"/>
		<path class="st2" d="M364.6736145,1364.0112305c9.5114746-1.715332,15.8314819-10.8166504,14.1159973-20.3282471
			c-1.7155151-9.5114746-10.816803-15.8314209-20.3283997-14.1159668
			c-9.5115051,1.7154541-15.8312988,10.8167725-14.1159058,20.3282471
			C346.060791,1359.4068604,355.1621094,1365.7268066,364.6736145,1364.0112305z"/>
		<path class="st2" d="M417.4812012,1749.7631836c5.4353027-0.9802246,9.0466003-6.1809082,8.0664062-11.6162109
			c-0.9803162-5.4350586-6.1811218-9.0463867-11.6162109-8.0661621c-5.4352112,0.9802246-9.0466003,6.1811523-8.0662842,11.6162109
			C406.8454895,1747.1323242,412.0461121,1750.7436523,417.4812012,1749.7631836z"/>
		<path class="st2" d="M291.3570862,1661.7521973c-5.7070007,1.0292969-9.4989014,6.4899902-8.469574,12.1970215
			c1.0291748,5.7070312,6.4900818,9.4990234,12.196991,8.4697266s9.4989014-6.4902344,8.4696045-12.1970215
			C302.5248108,1664.5148926,297.0639954,1660.7229004,291.3570862,1661.7521973z"/>
		<path class="st3" d="M229.9562988,1470.6157227c-9.7832031,1.7644043-16.2836914,11.1257324-14.5193024,20.9090576
			c1.7645111,9.7833252,11.1259003,16.2838135,20.9092102,14.5192871
			c9.7831879-1.7645264,16.2836914-11.1258545,14.5192871-20.9090576
			C249.1007996,1475.3516846,239.739502,1468.8511963,229.9562988,1470.6157227z"/>
		<path class="st2" d="M2687.3007812,1458.0332031c9.6350098-5.401123,13.0673828-17.590332,7.6662598-27.2254639
			s-17.5905762-13.0675049-27.2255859-7.6663818s-13.0673828,17.590332-7.6662598,27.2255859
			C2665.4763184,1460.0019531,2677.6655273,1463.4343262,2687.3007812,1458.0332031z"/>
		<path class="st2" d="M2546.1708984,1635.7363281c-6.2629395,3.5107422-8.4938965,11.4335938-4.9831543,17.6965332
			s11.4338379,8.4938965,17.6965332,4.9831543s8.4938965-11.4338379,4.9831543-17.6967773
			C2560.3566895,1634.456543,2552.4335938,1632.2255859,2546.1708984,1635.7363281z"/>
		<path class="st2" d="M2555.4692383,1832.2905273c-9.6352539,5.4008789-13.0673828,17.590332-7.6665039,27.2253418
			c5.4013672,9.6350098,17.5905762,13.067627,27.2255859,7.6662598c9.6352539-5.4008789,13.0673828-17.590332,7.6665039-27.2253418
			C2577.293457,1830.3217773,2565.104248,1826.8891602,2555.4692383,1832.2905273z"/>
		<path class="st2" d="M2353.1103516,1491.7512207c-4.8173828,2.7005615-6.5336914,8.795166-3.8330078,13.612793
			c2.7004395,4.8175049,8.795166,6.5336914,13.612793,3.8331299c4.8173828-2.7005615,6.5336914-8.795166,3.8330078-13.6126709
			C2364.0227051,1490.7668457,2357.9279785,1489.0506592,2353.1103516,1491.7512207z"/>
		<path class="st2" d="M2459.2963867,1739.4624023c-2.1679688,1.2150879-2.9399414,3.9577637-1.7248535,6.1257324
			c1.215332,2.1677246,3.9577637,2.9401855,6.1257324,1.7248535s2.9401855-3.9577637,1.7248535-6.1257324
			C2464.2070312,1739.0192871,2461.4643555,1738.2470703,2459.2963867,1739.4624023z"/>
		<path class="st2" d="M2575.8369141,1429.6733398c-9.3874512-0.1503906-17.1196289,7.3377686-17.2702637,16.7253418
			c-0.1503906,9.3876953,7.3378906,17.119873,16.7253418,17.2703857c9.3876953,0.1505127,17.119873-7.3377686,17.2705078-16.7253418
			C2592.7128906,1437.5561523,2585.2246094,1429.8239746,2575.8369141,1429.6733398z"/>
		<path class="st2" d="M2725.1538086,1567.0842285c5.2460938,0.0841064,9.5668945-4.1004639,9.651123-9.3464355
			c0.0839844-5.2460938-4.1005859-9.5670166-9.3464355-9.651123c-5.2460938-0.0839844-9.5671387,4.1005859-9.651123,9.3465576
			C2715.7231445,1562.6791992,2719.9077148,1567.0002441,2725.1538086,1567.0842285z"/>
		<path class="st2" d="M2627.3901367,1707.5354004c-4.9697266-0.0795898-9.0634766,3.8845215-9.1430664,8.8544922
			s3.8847656,9.0634766,8.8544922,9.1433105c4.9699707,0.0795898,9.0634766-3.8847656,9.1433105-8.8547363
			C2636.3244629,1711.7084961,2632.3601074,1707.6149902,2627.3901367,1707.5354004z"/>
		<path class="st3" d="M2683.3439941,1185.1149902c-4.817627,2.7005615-6.5336914,8.795166-3.833252,13.612793
			c2.7006836,4.8175049,8.7954102,6.5336914,13.612793,3.8331299c4.817627-2.7005615,6.5336914-8.795166,3.833252-13.6126709
			C2694.2563477,1184.1306152,2688.1616211,1182.4144287,2683.3439941,1185.1149902z"/>
		<path class="st3" d="M2563.4956055,1263.7619629c-10.1169434,5.6711426-13.7207031,18.4699707-8.0498047,28.586792
			c5.6713867,10.1168213,18.4699707,13.7208252,28.5869141,8.0496826
			c10.1166992-5.6711426,13.7207031-18.4699707,8.0495605-28.586792S2573.6123047,1258.0908203,2563.4956055,1263.7619629z"/>
		<path class="st3" d="M2441.7617188,1624.3339844c6.0219727-3.3757324,8.1672363-10.9940186,4.7915039-17.0158691
			c-3.3754883-6.0219727-10.9938965-8.1672363-17.0158691-4.7915039s-8.1672363,10.9938965-4.7915039,17.0158691
			S2435.7397461,1627.7097168,2441.7617188,1624.3339844z"/>
		<path class="st2" d="M2685.2558594,1329.6361084c2.890625-1.6203613,3.9204102-5.2772217,2.3000488-8.1676025
			c-1.6203613-2.890625-5.2770996-3.9202881-8.1677246-2.3000488c-2.8903809,1.6203613-3.920166,5.2772217-2.2998047,8.1677246
			C2678.7087402,1330.2268066,2682.3654785,1331.2563477,2685.2558594,1329.6361084z"/>
		<path class="st2" d="M2597.2756348,1296.4140625c-5.5402832,3.1057129-7.513916,10.114502-4.4082031,15.6546631
			s10.114502,7.5137939,15.6547852,4.4080811c5.5400391-3.1055908,7.5136719-10.114502,4.407959-15.654541
			C2609.824707,1295.2819824,2602.815918,1293.3083496,2597.2756348,1296.4140625z"/>
		<path class="st2" d="M2504.9970703,1965.2661133c-0.0883789,5.5219727,4.3164062,10.0703125,9.8383789,10.1589355
			c5.5222168,0.088623,10.0705566-4.3161621,10.1591797-9.8383789c0.0883789-5.5222168-4.3164062-10.0705566-9.838623-10.1589355
			C2509.6340332,1955.3391113,2505.0856934,1959.7438965,2504.9970703,1965.2661133z"/>
		<path class="st2" d="M2555.0366211,1719.0393066c-4.817627,2.7004395-6.5339355,8.795166-3.833252,13.612793
			c2.7004395,4.817627,8.795166,6.5336914,13.612793,3.833252c4.8173828-2.7006836,6.5336914-8.7954102,3.8330078-13.612793
			C2565.9487305,1718.0549316,2559.8540039,1716.3388672,2555.0366211,1719.0393066z"/>
		<path class="st2" d="M2723.3896484,1624.6662598c-4.817627,2.7006836-6.5339355,8.795166-3.833252,13.612793
			c2.7004395,4.817627,8.795166,6.5336914,13.6125488,3.833252c4.8178711-2.7006836,6.5336914-8.7954102,3.8334961-13.612793
			C2734.3017578,1623.6818848,2728.2070312,1621.9658203,2723.3896484,1624.6662598z"/>
		<path class="st2" d="M2699.0009766,1762.1489258c-5.0583496,2.8354492-6.8603516,9.2348633-4.0246582,14.293457
			c2.8356934,5.0583496,9.2348633,6.8603516,14.293457,4.0246582c5.0583496-2.8354492,6.8603516-9.2348633,4.0246582-14.2932129
			C2710.4589844,1761.1152344,2704.0595703,1759.3132324,2699.0009766,1762.1489258z"/>
		<path class="st3" d="M2549.4462891,1870.083252c-2.7885742,0.0910645-5.597168,0.8203125-8.1992188,2.2788086
			c-1.4370117,0.8056641-2.7050781,1.791748-3.824707,2.8947754c-5.6364746,5.5522461-7.1303711,14.3737793-3.0749512,21.6081543
			c4.861084,8.6716309,15.8312988,11.7607422,24.5029297,6.8996582c8.6716309-4.8608398,11.7607422-15.8312988,6.8996582-24.5029297
			C2562.3476562,1873.1921387,2555.9519043,1869.8710938,2549.4462891,1870.083252z"/>
		<circle class="st3" cx="845.5" cy="2539.5" r="12.5"/>
		<circle class="st3" cx="1301" cy="2706" r="23"/>
		<circle class="st3" cx="1779.5" cy="2617.5" r="18.5"/>
		<circle class="st3" cx="1902" cy="2541" r="14"/>
		<circle class="st3" cx="2265" cy="2316" r="17"/>
		<circle class="st3" cx="750" cy="326" r="14"/>
		<circle class="st4" cx="1563" cy="156" r="20"/>
		<circle class="st4" cx="1865" cy="2338" r="9"/>
		<circle class="st4" cx="1672" cy="2609" r="22"/>
		<circle class="st4" cx="675.5" cy="2416.5" r="20.5"/>
		<circle class="st4" cx="721.5" cy="1767.5" r="16.5"/>
		<circle class="st4" cx="773.5" cy="1812.5" r="9.5"/>
		<circle class="st4" cx="578" cy="1291" r="23"/>
		<circle class="st4" cx="446" cy="1110" r="18"/>
		<circle class="st4" cx="814" cy="720" r="16"/>
		<circle class="st4" cx="1020" cy="214" r="12"/>
		<circle class="st4" cx="1317" cy="316" r="16"/>
		<circle class="st4" cx="2289" cy="490" r="15"/>
		<circle class="st4" cx="2079.5" cy="793.5" r="11.5"/>
		<circle class="st4" cx="2550.5" cy="1098.5" r="25.5"/>
		<circle class="st4" cx="2185.5" cy="1506.5" r="15.5"/>
		<circle class="st4" cx="2046.5" cy="1673.5" r="20.5"/>
		<circle class="st4" cx="2017" cy="1434" r="13"/>
		<circle class="st4" cx="921" cy="1449" r="27"/>
		<circle class="st4" cx="1254" cy="2089" r="8"/>
		<circle class="st4" cx="1781" cy="2079" r="20"/>
		<circle class="st4" cx="1257" cy="2227" r="24"/>
		<circle class="st4" cx="2327.5" cy="2166.5" r="23.5"/>
		<circle class="st2" cx="350" cy="2140" r="21"/>
		<circle class="st2" cx="520.5" cy="2322.5" r="6.5"/>
		<circle class="st2" cx="718" cy="2514" r="13"/>
		<circle class="st2" cx="1263" cy="2170" r="9"/>
		<circle class="st2" cx="873.5" cy="2331.5" r="15.5"/>
		<circle class="st2" cx="1105.5" cy="2656.5" r="20.5"/>
		<circle class="st2" cx="1421.5" cy="2694.5" r="11.5"/>
		<circle class="st2" cx="1970" cy="2531" r="17"/>
		<circle class="st2" cx="2190.5" cy="2431.5" r="26.5"/>
		<circle class="st2" cx="2329" cy="2309" r="10"/>
		<circle class="st2" cx="2526.5" cy="2055.5" r="26.5"/>
		<circle class="st2" cx="2308" cy="2006" r="11"/>
		<circle class="st2" cx="1724.5" cy="102.5" r="15.5"/>
		<circle class="st2" cx="1488" cy="28" r="9"/>
		<circle class="st2" cx="1045.5" cy="122.5" r="13.5"/>
		<circle class="st5" cx="629" cy="279" r="8"/>
		<circle class="st5" cx="2384.5" cy="500.5" r="10.5"/>
		<circle class="st5" cx="2308" cy="403" r="11"/>
		<circle class="st5" cx="254.5" cy="714.5" r="5.5"/>
		<circle class="st5" cx="385.5" cy="534.5" r="14.5"/>
		<circle class="st5" cx="543.5" cy="625.5" r="11.5"/>
		<circle class="st5" cx="368.5" cy="800.5" r="6.5"/>
		<circle class="st5" cx="59.5" cy="1146.5" r="6.5"/>
		<circle class="st5" cx="103" cy="1731" r="13"/>
		<circle class="st5" cx="204" cy="2000" r="17"/>
		<circle class="st5" cx="2698" cy="1083" r="20"/>
		<circle class="st5" cx="1295" cy="49" r="12"/>
		<circle class="st5" cx="1162" cy="74" r="13"/>
		<circle class="st5" cx="1116" cy="202" r="10"/>
		<circle class="st5" cx="912" cy="537" r="9"/>
		<circle class="st5" cx="753" cy="227" r="15"/>
		<circle class="st5" cx="671.5" cy="1813.5" r="16.5"/>
		<circle class="st5" cx="589.5" cy="1917.5" r="11.5"/>
		<circle class="st5" cx="690" cy="1659" r="13"/>
		<circle class="st5" cx="2162" cy="1050" r="10"/>
	</g>
	<g>
		<g>
			<path class="st2" d="M1552.5266113,1935.4700928c-1.1240234-50.5732422-43.421875-91.0317383-93.9951172-89.9078369l0,0
				c-50.5732422,1.1240234-91.0317383,43.4217529-89.9077148,93.9951172l5.543457,249.4226074l183.9448242-2.2043457
				L1552.5266113,1935.4700928z"/>
			<path class="st6" d="M1618.1105957,1862.6201172l-613.7357788-79.6387939
				c-35.343811-4.5863037-60.5090942-37.2563477-55.9229126-72.6002197l64.1157837-494.107666
				c4.5861816-35.3439941,37.2562866-60.5092773,72.6001587-55.9230957l613.7357178,79.638916
				c35.3438721,4.5861816,60.5091553,37.2562256,55.9229736,72.6000977l-64.1157227,494.1077881
				C1686.1245117,1842.0410156,1653.4544678,1867.2062988,1618.1105957,1862.6201172z"/>
			<path class="st7" d="M1681.5911865,1434.0944824l-47.5693359,366.5927734
				c-2.1387939,16.4831543-24.3028564,27.3204346-49.2531738,24.0828857l-537.7188721-69.7747803
				c-24.9503174-3.2375488-43.6143188-19.3728027-41.4754028-35.855957l47.5692749-366.5926514L1681.5911865,1434.0944824z"/>
			<path class="st2" d="M1548.6488037,1941.8498535l-497.6079102-64.5698242
				c-23.0892334-2.9960938-39.5291138-24.338623-36.53302-47.4278564l72.0602417-555.3320312
				c2.9960938-23.0891113,24.338623-39.5289307,47.4277344-36.532959l497.6080322,64.5700684
				c23.0892334,2.9960938,39.5291748,24.338501,36.532959,47.4277344l-72.0603027,555.3319092
				C1593.0805664,1928.4061279,1571.7381592,1944.8459473,1548.6488037,1941.8498535z"/>
			<path class="st2" d="M1553.2352295,1354.0848389c-43.2218018,1.8092041-79.1257324,33.8967285-85.3057861,76.7130127l0,0
				c-7.9874268,55.3381348,36.1186523,104.5386963,91.9863281,102.3244629
				c41.3950195-1.640625,82.4804688-7.7796631,122.9182129-18.3980713
				c72.1885986-18.956543,139.2150879-51.3173828,199.2181396-96.1837158
				c60.0024414-44.8657227,109.9967041-100.005127,148.5936279-163.887207
				c21.619873-35.7838135,39.1264648-73.4554443,52.4060059-112.6962891
				c17.9228516-52.9619141-16.7973633-109.1817627-72.1361084-117.1693115h-0.0002441
				c-42.6169434-6.1513062-83.6938477,18.8510742-97.5319824,59.6253662
				C1860.7655029,1239.4538574,1716.7851562,1347.2385254,1553.2352295,1354.0848389z"/>
			<path class="st8" d="M1825.197998,1456.0946045c6.442627-3.7325439,12.8184814-7.5970459,19.1289062-11.5869141
				c-38.2926025-47.6895752-79.2747803-123.5699463-94.354248-152.4522705
				c-5.8062744,3.6987305-11.7091064,7.2497559-17.7036133,10.6477051
				C1750.3428955,1357.6955566,1797.1982422,1421.2227783,1825.197998,1456.0946045z"/>
			<path class="st2" d="M1045.5563965,1835.3208008c10.8843994-45.538208,57.0484619-73.8913574,102.5866699-63.006958l0,0
				c45.5380859,10.8843994,73.8913574,57.0482178,63.006958,102.5866699l-53.6807861,224.5904541l-165.9991455-37.8845215
				L1045.5563965,1835.3208008z"/>
			<path class="st2" d="M1159.7293701,1290.1551514c40.8592529,14.2102051,65.9708252,55.296875,59.5268555,98.0740967l0,0
				c-8.3286133,55.2879639-64.7606201,89.6602783-117.6104736,71.411499
				c-39.1586914-13.5213623-76.7224121-31.2601318-112.3729248-53.100708
				c-63.6421509-38.9899902-118.472229-89.3232422-162.9677124-149.6018066
				c-44.4949341-60.2779541-76.4418335-127.5026855-94.9526978-199.807373
				c-10.3688354-40.5018311-16.2543335-81.6235352-17.6397095-123.0273438
				c-1.869812-55.8811035,47.602417-99.6835327,102.8909912-91.3547974h0.0001831
				c42.5782471,6.4140015,74.6879883,42.2105103,76.1654053,85.2437134
				C898.387207,1091.6224365,1005.119873,1236.3841553,1159.7293701,1290.1551514z"/>
			<g>
				<path class="st9" d="M1514.4482422,817.7879028c-22.1239014-8.6204834-45.6367188-14.7263184-70.2416992-17.9190063
					c-24.6048584-3.1928101-48.8970947-3.2901611-72.4885254-0.6018066L1514.4482422,817.7879028z"/>
				<path class="st9" d="M1143.6206055,1239.236084c44.267334,80.897583,125.2661133,140.2497559,223.7167969,153.0247803
					s191.9151611-23.9385986,255.3634033-90.8590088L1143.6206055,1239.236084z"/>
			</g>
			<circle class="st2" cx="1426.6938477" cy="877.71698" r="450.5618286"/>
			<circle class="st10" cx="1421.0373535" cy="921.3087769" r="346.4525757"/>
			
				<ellipse transform="matrix(0.7071068 -0.7071068 0.7071068 0.7071068 -200.8118286 1319.0205078)" class="st11" cx="1491.7927246" cy="901.9115601" rx="202.4347076" ry="202.4347382"/>
			<path class="st2" d="M970.8659058,946.2966919l-14.5751953-1.8912964
				c-22.4910278-2.9185181-38.5048828-23.7080078-35.5864868-46.1990967l25.2615967-194.6781006
				c2.918396-22.4909668,23.7080078-38.5050049,46.1989746-35.5864868l14.5753174,1.8912964
				c22.4909668,2.918396,38.5048828,23.7080078,35.5864258,46.1989746l-25.2615356,194.6782227
				C1014.1464844,933.2012329,993.3569946,949.2150879,970.8659058,946.2966919z"/>
			<path class="st2" d="M1865.8372803,1051.930542l-14.5751953-1.8912354
				c-22.4909668-2.918457-38.5050049-23.7080078-35.5864258-46.1990967l25.2614746-194.6781006
				c2.918457-22.4910889,23.7080078-38.5050049,46.1990967-35.5864868l14.5753174,1.8912964
				c22.4909668,2.918396,38.5048828,23.7080078,35.5864258,46.1989746l-25.2615967,194.6782227
				C1909.1179199,1038.835083,1888.3283691,1054.848999,1865.8372803,1051.930542z"/>
			<path class="st8" d="M869.8967896,1309.3067627c-5.0906982-5.4337158-10.0794678-10.9741211-14.9691772-16.6159668
				c50.4298096-34.6040039,111.5733032-95.4221191,134.3490601-118.7211914
				c4.4912109,5.2174072,9.1175537,10.3214111,13.8758545,15.3052979
				C969.9721069,1236.7078857,906.7717285,1284.0031738,869.8967896,1309.3067627z"/>
			<path class="st9" d="M1451.6416016,1604.4389648l-219.4749756-28.479126
				c-6.2169189-0.8067627-10.6434326-6.5533447-9.8366699-12.7702637l10.2670898-79.1240234
				c0.8067627-6.2167969,6.5533447-10.6433105,12.7702637-9.8366699l219.4749756,28.479248
				c6.2169189,0.8066406,10.6434326,6.5532227,9.8366699,12.7701416l-10.2672119,79.1241455
				C1463.6051025,1600.8192139,1457.8585205,1605.2458496,1451.6416016,1604.4389648z"/>
			<path class="st9" d="M1515.0161133,1912.4581299l-443.4620361-57.5439453
				c-4.1989746-0.5449219-7.1887207-4.4261475-6.6437988-8.6252441l1.1966553-9.2216797
				c0.5447998-4.1989746,4.4261475-7.1887207,8.6251221-6.6439209l443.4620361,57.5440674
				c4.1989746,0.5447998,7.1887207,4.4261475,6.6437988,8.6252441l-1.1965332,9.2216797
				C1523.0964355,1910.0133057,1519.2150879,1913.0030518,1515.0161133,1912.4581299z"/>
			<path class="st9" d="M1059.6375732,1255.5733643L1059.6375732,1255.5733643
				c-4.1326904-0.6225586-8.0233154,2.2493896-8.645874,6.3820801l-22.4968262,149.3413086
				c-0.6225586,4.1326904,2.2493896,8.0233154,6.3820801,8.645874l0,0c4.1326904,0.6225586,8.0234375-2.2493896,8.6459961-6.3820801
				l22.4967041-149.3411865C1066.642334,1260.0865479,1063.7702637,1256.1959229,1059.6375732,1255.5733643z"/>
			<path class="st9" d="M1694.2789307,1339.4155273L1694.2789307,1339.4155273
				c-4.1364746-0.597168-8.0093994,2.2988281-8.6064453,6.4353027l-21.5754395,149.4770508
				c-0.5970459,4.1364746,2.2988281,8.0092773,6.4353027,8.6064453l0,0
				c4.1364746,0.5969238,8.0092773-2.2988281,8.6064453-6.4353027l21.5754395-149.4771729
				C1701.3111572,1343.885376,1698.4152832,1340.0124512,1694.2789307,1339.4155273z"/>
			<path class="st9" d="M1165.7645264,1515.8609619L1165.7645264,1515.8609619
				c0.2856445-2.2019043,2.3209229-3.7695312,4.5227051-3.4838867l79.5655518,10.324585
				c2.2017822,0.2856445,3.7696533,2.3209229,3.4838867,4.5227051l0,0
				c-0.2857666,2.2017822-2.3209229,3.7695312-4.5228271,3.4838867l-79.5655518-10.324585
				C1167.0465088,1520.0980225,1165.4787598,1518.0627441,1165.7645264,1515.8609619z"/>
			<path class="st9" d="M1170.4144287,1513.1269531L1170.4144287,1513.1269531
				c2.2019043,0.2857666,3.7695312,2.3209229,3.4838867,4.5227051l-10.3244629,79.5656738
				c-0.2857666,2.2017822-2.3210449,3.7695312-4.5228271,3.4837646l0,0
				c-2.2017822-0.2856445-3.7695312-2.3209229-3.4838867-4.5227051l10.324585-79.5655518
				C1166.1773682,1514.4090576,1168.2126465,1512.8413086,1170.4144287,1513.1269531z"/>
			<path class="st9" d="M1136.836792,1598.5454102l0.3044434-2.3460693c0.2019043-1.5565186,1.6408691-2.664917,3.1975098-2.4628906
				l38.1108398,4.9451904c1.5567627,0.2020264,2.6650391,1.6409912,2.4630127,3.1975098l-0.3044434,2.3460693
				c-0.2019043,1.5566406-1.6408691,2.6650391-3.1975098,2.4631348l-38.1108398-4.9453125
				C1137.7431641,1601.5410156,1136.6347656,1600.1020508,1136.836792,1598.5454102z"/>
			<path class="st12" d="M1008.4047852,709.5131836l-5.5517578-0.7203979
				c-16.1153564-2.0910645-31.0113525,9.3829956-33.1025391,25.4983521L951.6502075,873.781311
				c-2.0911255,16.1151733,9.3831177,31.0112915,25.4984131,33.102417l5.5517578,0.7203979L1008.4047852,709.5131836z"/>
			<path class="st12" d="M1871.6362305,810.9907837l5.5518799,0.7203979
				c16.1151123,2.0911255,27.5894775,16.9871216,25.4984131,33.102417l-18.1004639,139.4902344
				c-2.0910645,16.1151733-16.9871826,27.5893555-33.102417,25.498291l-5.5518799-0.7203979L1871.6362305,810.9907837z"/>
			<path class="st9" d="M2030.6456299,1254.6533203c-0.2506104,0.4150391-0.5074463,0.8255615-0.7590332,1.2397461
				c-59.2476807-20.2050781-133.7095947-66.5107422-159.4213867-83.0793457
				c17.6912842-27.2044678,32.2008057-56.8216553,42.9182129-88.4007568
				c13.8381348-40.7740479,54.9150391-65.7763672,97.5318604-59.6251221h0.0002441
				c55.3388672,7.9875488,90.0593262,64.2072754,72.1362305,117.1691895
				C2069.7722168,1181.1977539,2052.2653809,1218.8696289,2030.6456299,1254.6533203z"/>
			<path class="st9" d="M734.8389893,1071.1040039c0.1210327,0.4698486,0.2492065,0.9371338,0.3713989,1.4064941
				c62.8374023-2.1982422,147.8616943-24.9803467,177.3883057-33.4016113
				c-9.1459961-31.1629028-14.5333862-63.7145996-15.7053833-97.0473633
				c-1.5133057-43.0383911-33.7915039-78.8602905-76.5650024-85.3037109h-0.0001831
				c-55.5425415-8.3668823-105.2073364,35.4063721-103.2911987,91.2943726
				C718.4564819,989.4611206,724.3963013,1030.5910645,734.8389893,1071.1040039z"/>
			<path class="st2" d="M732.8731079,1058.0692139c-7.1809082,0.8255615-13.8527832-3.9161377-15.3677368-10.9837646
				c-7.2216797-33.6915283-11.5280762-67.7057495-12.8914795-101.8822632
				c-2.4104004-60.4239502,52.880127-107.4089966,114.8605957-98.0722046h0.0001831
				c47.7631226,7.1950073,84.0317383,46.0935059,85.9378052,92.6559448
				c0.9909058,24.2070923,4.1100464,48.0404663,9.1821289,71.3070679c1.6213989,7.4375-2.930603,14.842041-10.3170166,16.6824951
				C839.6240845,1043.8858643,776.1934814,1053.088501,732.8731079,1058.0692139z"/>
			<path class="st2" d="M2035.2875977,1242.5963135c6.6367188,2.8635254,14.3935547,0.2498779,17.8842773-6.0794678
				c16.6408691-30.1719971,30.5837402-61.494751,41.7556152-93.8223877
				c19.7519531-57.1553955-19.619873-118.1019287-81.6567383-127.0562744h-0.0002441
				c-47.8065186-6.9003906-93.7607422,19.8712158-109.0280762,63.9007568
				c-7.9372559,22.8902588-17.8041992,44.8083496-29.3771973,65.6201172
				c-3.699707,6.6525879-1.4790039,15.0560303,5.0614014,18.9505615
				C1937.1766357,1198.1982422,1995.2496338,1225.3212891,2035.2875977,1242.5963135z"/>
			<path class="st13" d="M1415.3552246,1629.4227295l-143.1768799-18.5787354
				c-2.3312988-0.3024902-3.9912109-2.4575195-3.6887207-4.7888184l0,0c0.3024902-2.3314209,2.4575195-3.991333,4.7888184-3.6887207
				l143.1767578,18.5786133c2.3314209,0.3024902,3.991333,2.4575195,3.6888428,4.7888184l0,0
				C1419.8414307,1628.0653076,1417.6865234,1629.7252197,1415.3552246,1629.4227295z"/>
			<path class="st13" d="M1412.1772461,1653.9134521l-143.1768799-18.5786133
				c-2.3312988-0.3026123-3.991333-2.4575195-3.6887207-4.7889404l0,0c0.3024902-2.3312988,2.4573975-3.9912109,4.7886963-3.6887207
				l143.177002,18.5787354c2.3312988,0.3024902,3.9912109,2.4575195,3.6887207,4.7888184l0,0
				C1416.6634521,1652.5561523,1414.5085449,1654.2159424,1412.1772461,1653.9134521z"/>
			<path class="st13" d="M1413.7662354,1641.6680908l-143.1768799-18.5787354
				c-2.3312988-0.3026123-3.9912109-2.4573975-3.6887207-4.7886963v-0.0001221
				c0.3024902-2.3312988,2.4575195-3.9912109,4.7886963-3.6887207l143.177002,18.5787354
				c2.3312988,0.3024902,3.9912109,2.4573975,3.6887207,4.7886963l0,0
				C1418.2524414,1640.3106689,1416.0975342,1641.9705811,1413.7662354,1641.6680908z"/>
			<path class="st13" d="M1410.5882568,1666.1589355l-143.1768799-18.5788574
				c-2.3312988-0.3024902-3.9912109-2.4573975-3.6887207-4.7888184l0,0
				c0.3024902-2.3312988,2.4573975-3.9912109,4.7888184-3.6887207l143.1767578,18.5787354
				c2.3314209,0.3024902,3.991333,2.4575195,3.6888428,4.7888184l0,0
				C1415.074585,1664.8013916,1412.9195557,1666.4614258,1410.5882568,1666.1589355z"/>
			<path class="st13" d="M1407.4102783,1690.6496582l-143.1767578-18.5787354
				c-2.3312988-0.3024902-3.991333-2.4575195-3.6888428-4.7888184l0,0c0.3024902-2.3312988,2.4575195-3.991333,4.7888184-3.6888428
				l143.1768799,18.5788574c2.3312988,0.3024902,3.991333,2.4573975,3.6887207,4.7888184l0,0
				C1411.8966064,1689.2922363,1409.7416992,1690.9521484,1407.4102783,1690.6496582z"/>
			<path class="st13" d="M1408.9992676,1678.4042969l-143.1767578-18.5788574
				c-2.3314209-0.3024902-3.991333-2.4573975-3.6888428-4.7886963l0,0c0.3024902-2.3312988,2.4575195-3.991333,4.7888184-3.6888428
				l143.1768799,18.5788574c2.3312988,0.3024902,3.9912109,2.4573975,3.6887207,4.7886963l0,0
				C1413.4855957,1677.0467529,1411.3305664,1678.7067871,1408.9992676,1678.4042969z"/>
			<path class="st13" d="M1176.4571533,1798.6060791l-51.8074951-6.7225342
				c-6.2169189-0.8067627-10.6433105-6.5532227-9.8366699-12.7701416l6.7226562-51.807373
				c0.8066406-6.2169189,6.5531006-10.6434326,12.7700195-9.8366699l51.8074951,6.7224121
				c6.2167969,0.8067627,10.6433105,6.5533447,9.8366699,12.7702637l-6.7225342,51.807373
				C1188.4206543,1794.9863281,1182.6739502,1799.4128418,1176.4571533,1798.6060791z"/>
			<path class="st13" d="M1327.288208,1823.9249268l-47.8597412-6.2103271
				c-7.3024902-0.9475098-12.5019531-7.6976318-11.5543213-15.0002441l9.8770752-76.1181641
				c0.9475098-7.3024902,7.6976318-12.5019531,15.0001221-11.5544434l47.8597412,6.2103271
				c7.3024902,0.9476318,12.5020752,7.6976318,11.5544434,15.0002441l-9.8770752,76.1181641
				C1341.3408203,1819.6729736,1334.5906982,1824.8725586,1327.288208,1823.9249268z"/>
			<path class="st13" d="M1480.7078857,1838.0859375l-51.807373-6.7226562
				c-6.2169189-0.8066406-10.6434326-6.5532227-9.8366699-12.7701416l6.7224121-51.807373
				c0.8068848-6.2169189,6.5533447-10.6433105,12.7702637-9.8366699l51.807373,6.7225342
				c6.2169189,0.8066406,10.6434326,6.5532227,9.8366699,12.7701416l-6.7225342,51.807373
				C1492.6713867,1834.4660645,1486.9248047,1838.8925781,1480.7078857,1838.0859375z"/>
			<path class="st8" d="M1464.3427734,1521.3206787c-0.6412354,4.9421387-5.1676025,8.4285889-10.1097412,7.7874756
				c-4.9421387-0.6413574-8.4285889-5.1676025-7.7873535-10.1098633c0.6412354-4.9421387,5.1674805-8.4287109,10.1097412-7.7873535
				C1461.4974365,1511.8521729,1464.9841309,1516.37854,1464.3427734,1521.3206787z"/>
			<path class="st14" d="M1440.7939453,1518.2650146c-0.6413574,4.9421387-5.1676025,8.4285889-10.1097412,7.7872314
				c-4.9421387-0.6412354-8.4287109-5.1674805-7.7874756-10.1096191c0.6413574-4.9421387,5.1677246-8.4287109,10.1098633-7.7874756
				C1437.9487305,1508.7965088,1441.4351807,1513.3227539,1440.7939453,1518.2650146z"/>
			<path class="st2" d="M1628.7974854,889.2434082c-0.3624268,9.5166626,6.0479736,17.9595947,15.3353271,20.0681763l0,0
				c12.003418,2.7254028,23.5754395-6.0889893,24.0712891-18.3878784c0.3674316-9.112793-0.2576904-18.2368164-1.8773193-27.2973022
				c-2.8913574-16.1746826-8.8149414-31.4520874-17.6062012-45.4080811
				c-8.7911377-13.9558105-20.0128174-25.895813-33.3532715-35.4884033
				c-7.4727783-5.373291-15.4320068-9.8771362-23.8099365-13.480835
				c-11.307251-4.8638916-24.2547607,1.767395-26.9801025,13.7709961l0,0
				c-2.0987549,9.2440186,2.6660156,18.6976318,11.3706055,22.4509277
				C1609.0465088,819.7424927,1630.1691895,853.232605,1628.7974854,889.2434082z"/>
			
				<ellipse transform="matrix(0.7608071 -0.6489781 0.6489781 0.7608071 -131.4155579 1171.2504883)" class="st2" cx="1523.2104492" cy="763.9035645" rx="23.9837208" ry="23.9837074"/>
			<path class="st2" d="M1311.0253906,2369.3427734c-15.5476074,48.137207,11.1165771,100.2429199,59.2540283,115.7905273l0,0
				c48.1373291,15.5476074,100.2429199-11.1166992,115.7905273-59.2541504l64.2095947-198.8012695l-174.4656982-58.3288574
				L1311.0253906,2369.3427734z"/>
			
				<rect x="1371.6313477" y="2048.1352539" transform="matrix(0.9992574 -0.0385314 0.0385314 0.9992574 -78.2854233 57.9195786)" class="st8" width="183.6944733" height="23.603178"/>
			<path class="st15" d="M1535.0290527,2267.6469727l-166.9018555-21.6574707
				c-18.4711914-2.3967285-31.6229248-19.470459-29.2260742-37.9416504l8.9798584-69.2033691
				c2.3968506-18.4709473,19.4705811-31.6228027,37.9417725-29.2258301l166.9017334,21.6572266
				c18.4711914,2.3967285,31.6229248,19.4707031,29.2260742,37.9418945l-8.9798584,69.203125
				C1570.5738525,2256.8920898,1553.5001221,2270.0437012,1535.0290527,2267.6469727z"/>
			<path class="st13" d="M1557.90271,2167.1320801l-186.2380371-24.1662598
				c-4.197998-0.5449219-7.1870117-4.425293-6.642334-8.623291l0,0c0.5447998-4.197998,4.425293-7.1870117,8.623291-6.642334
				l186.237915,24.1665039c4.197998,0.5446777,7.1870117,4.4250488,6.6422119,8.6230469l0,0
				C1565.9810791,2164.6877441,1562.100708,2167.6767578,1557.90271,2167.1320801z"/>
			<path class="st13" d="M1554.2050781,2195.6274414l-186.2380371-24.1662598
				c-4.197998-0.5446777-7.1870117-4.425293-6.6422119-8.623291l0,0c0.5447998-4.197998,4.4251709-7.1870117,8.6231689-6.6420898
				l186.2380371,24.1662598c4.197998,0.5446777,7.1870117,4.4250488,6.6422119,8.6230469l0,0
				C1562.2834473,2193.1831055,1558.4030762,2196.1721191,1554.2050781,2195.6274414z"/>
			<path class="st13" d="M1550.5074463,2224.1228027l-186.237915-24.1662598
				c-4.197876-0.5446777-7.1870117-4.4250488-6.6422119-8.6230469l0,0c0.5446777-4.197998,4.4250488-7.1870117,8.6230469-6.642334
				l186.2380371,24.1662598c4.197998,0.5446777,7.1870117,4.425293,6.642334,8.623291l0,0
				C1558.5859375,2221.6787109,1554.7054443,2224.6674805,1550.5074463,2224.1228027z"/>
			<path class="st13" d="M1546.8100586,2252.6184082l-186.2380371-24.1665039
				c-4.197998-0.5446777-7.1870117-4.4250488-6.642334-8.6230469l0,0c0.5446777-4.197998,4.4251709-7.1870117,8.6230469-6.642334
				l186.2380371,24.1662598c4.197998,0.5449219,7.1870117,4.425293,6.642334,8.623291l0,0
				C1554.8884277,2250.1740723,1551.0079346,2253.1630859,1546.8100586,2252.6184082z"/>
			<path class="st2" d="M1179.4074707,2274.9987793c4.6750488,46.5869141-29.6165771,88.5283203-76.2037354,93.2033691l0,0
				c-46.5871582,4.6748047-88.5285645-29.6166992-93.2034302-76.2038574l-19.3068848-192.3991699l169.2330933-18.7341309
				L1179.4074707,2274.9987793z"/>
			
				<rect x="1016.8284302" y="1954.3865967" transform="matrix(-0.9686807 -0.2483096 0.2483096 -0.9686807 1681.1658936 4142.6650391)" class="st8" width="170.0231934" height="21.8465652"/>
			<path class="st15" d="M996.5761719,2139.2807617l155.2346191,12.9694824
				c17.1799316,1.4353027,32.4106445-11.4465332,33.8459473-28.6264648l5.3775635-64.3654785
				c1.4354248-17.1800537-11.4466553-32.4106445-28.6264648-33.8459473l-155.2346191-12.9696045
				c-17.1799316-1.4353027-32.4106445,11.4466553-33.8459473,28.6265869l-5.3775635,64.3654785
				C966.5144043,2122.6147461,979.3963013,2137.845459,996.5761719,2139.2807617z"/>
			<path class="st13" d="M995.4921875,2043.8742676l173.2189941,14.472168
				c3.9046631,0.3261719,7.3660889-2.6015625,7.6922607-6.5061035l0,0c0.3262939-3.904541-2.6014404-7.3660889-6.5059814-7.6922607
				l-173.2190552-14.4720459c-3.90448-0.3261719-7.3660278,2.6014404-7.6921997,6.5061035l0,0
				C988.6599731,2040.0865479,991.5877075,2043.5480957,995.4921875,2043.8742676z"/>
			<path class="st13" d="M993.2778931,2070.3776855l173.2190552,14.472168
				c3.904541,0.3261719,7.3660889-2.6015625,7.6922607-6.5061035l0,0c0.3261719-3.904541-2.6015625-7.3659668-6.5059814-7.6921387
				l-173.2191162-14.472168c-3.904541-0.3261719-7.3660278,2.6015625-7.6921997,6.5061035l0,0
				C986.4456787,2066.5900879,989.3734131,2070.0515137,993.2778931,2070.3776855z"/>
			<path class="st13" d="M991.0635986,2096.8811035l173.2191162,14.472168
				c3.9044189,0.3261719,7.3659668-2.6015625,7.6921387-6.5058594l0,0c0.3262939-3.9047852-2.6014404-7.3662109-6.5059814-7.6923828
				l-173.2190552-14.4719238c-3.904541-0.326416-7.3660278,2.6013184-7.6921997,6.5058594l0,0
				C984.2313843,2093.0935059,987.1591187,2096.5549316,991.0635986,2096.8811035z"/>
			<path class="st13" d="M988.8493042,2123.3847656l173.2190552,14.4719238
				c3.904541,0.326416,7.3660889-2.6013184,7.6922607-6.5061035l0,0c0.3261719-3.9042969-2.6015625-7.3659668-6.5059814-7.6921387
				l-173.2191162-14.472168c-3.904541-0.3261719-7.3660278,2.6015625-7.6921997,6.5061035l0,0
				C982.0170898,2119.5969238,984.9448242,2123.0585938,988.8493042,2123.3847656z"/>
		</g>
	</g>
</g>
</svg>
