<?xml version="1.0" encoding="utf-8"?>
<!-- Generator: Adobe Illustrator 28.0.0, SVG Export Plug-In . SVG Version: 6.00 Build 0)  -->
<svg version="1.1" id="Layer_1" xmlns="http://www.w3.org/2000/svg" xmlns:xlink="http://www.w3.org/1999/xlink" x="0px" y="0px"
	 viewBox="0 0 530.3093872 612.0932617" style="enable-background:new 0 0 530.3093872 612.0932617;" xml:space="preserve">
<style type="text/css">
	.st0{fill:#567FCA;}
</style>
<g>
	<path class="st0" d="M40.2523003,327.1315918C18.0566998,327.1315918,0,345.1894836,0,367.3838806
		c0,22.1956177,18.0578995,40.2522888,40.2523003,40.2522888c22.1943016,0,40.2523003-18.0579834,40.2523003-40.2522888
		C80.5046005,345.1882629,62.4466019,327.1315918,40.2523003,327.1315918z M40.2523003,388.4687805
		c-11.6261997,0-21.085001-9.4586792-21.085001-21.0848999c0-11.6261902,9.4588013-21.0848999,21.085001-21.0848999
		s21.0848999,9.4587097,21.0848999,21.0848999C61.3359985,379.0101013,51.8785019,388.4687805,40.2523003,388.4687805z"/>
	<path class="st0" d="M489.4187927,162.9267883c0-22.1955872-18.0579834-40.2522888-40.2522888-40.2522888
		c-22.1956177,0-40.2522888,18.0578918-40.2522888,40.2522888c0,22.1954803,18.0578918,40.2523041,40.2522888,40.2523041
		C471.3608093,203.1790924,489.4187927,185.1223907,489.4187927,162.9267883z M449.1664124,184.011673
		c-11.6262207,0-21.0848999-9.4586792-21.0848999-21.0848846c0-11.6261902,9.4586792-21.0848846,21.0848999-21.0848846
		c11.6261902,0,21.0849915,9.4586945,21.0849915,21.0848846C470.2514038,174.5529938,460.7914124,184.011673,449.1664124,184.011673
		z"/>
	<path class="st0" d="M193.5948029,60.0592766c16.5587921,0,30.0296021-13.4708786,30.0296021-30.0296764
		S210.153595,0,193.5948029,0S163.565094,13.4707994,163.565094,30.0296001S177.0359955,60.0592766,193.5948029,60.0592766z
		 M193.5948029,19.1674004c5.9893951,0,10.8621979,4.8727989,10.8621979,10.8621998
		c0,5.9895-4.8728027,10.862299-10.8621979,10.862299c-5.9894104,0-10.8623047-4.8727989-10.8623047-10.862299
		C182.7324982,24.0401993,187.6053925,19.1674004,193.5948029,19.1674004z"/>
	<path class="st0" d="M500.2797852,388.4687805c-16.5587769,0-30.0295715,13.4708862-30.0295715,30.0296021
		c0,16.5588989,13.4707947,30.0296936,30.0295715,30.0296936c16.5588379,0,30.0296021-13.4708862,30.0296021-30.0296936
		C530.3095093,401.9396667,516.838623,388.4687805,500.2797852,388.4687805z M500.2797852,429.3594971
		c-5.9893799,0-10.8621826-4.8728027-10.8621826-10.8622131c0-5.989502,4.8728027-10.8623047,10.8621826-10.8623047
		c5.989502,0,10.8623047,4.8728027,10.8623047,10.8623047C511.1420898,424.4878845,506.2692871,429.3594971,500.2797852,429.3594971
		z"/>
	<path class="st0" d="M224.2628021,552.0339966c-16.5588074,0-30.0296021,13.4708862-30.0296021,30.0296021
		c0,16.5587769,13.4720001,30.0296631,30.0296021,30.0296631c16.5587921,0,30.0296021-13.4708862,30.0296021-30.0296021
		C254.2924042,565.5048828,240.8215942,552.0339966,224.2628021,552.0339966z M224.2628021,592.9259033
		c-5.9893951,0-10.8623047-4.8728027-10.8623047-10.8622437c0-5.989502,4.8729095-10.8622437,10.8623047-10.8622437
		s10.8623047,4.8727417,10.8623047,10.8622437C235.1251068,588.0531006,230.2521973,592.9259033,224.2628021,592.9259033z"/>
	<path class="st0" d="M172.4465027,76.5690002c-4.8298035-2.1985245-10.5036011-0.0633011-12.7022095,4.753273
		c-2.1852875,4.8179245-0.0513916,10.503624,4.76651,12.689003c1.2779999,0.5882187,2.6324921,0.8691177,3.9618988,0.8691177
		c3.6414032,0,7.1179047-2.0824966,8.728302-5.6223984C179.3851013,84.4401779,177.2642975,78.7543945,172.4465027,76.5690002z"/>
	<path class="st0" d="M148.0774994,130.1499023c1.2911072,0.5881958,2.6325073,0.8690948,3.9618988,0.8690948
		c3.6414948,0,7.1298981-2.0957184,8.7402039-5.6223984c2.1853943-4.8178024,0.0514984-10.5036011-4.7664032-12.689003
		c-4.8177948-2.197319-10.5036011-0.0633163-12.6889954,4.7533035
		C141.1389008,122.2775955,143.2597046,127.9645996,148.0774994,130.1499023z"/>
	<path class="st0" d="M111.4929962,233.8088989c2.1985016-4.8298035,0.0634003-10.5036163-4.7532959-12.7022095
		c-4.8178024-2.1852875-10.5036011-0.0514069-12.689003,4.76651c-2.198494,4.8177948-0.0633011,10.5036011,4.7533035,12.6889954
		c1.2911987,0.5880737,2.6324997,0.855896,3.9618988,0.855896
		C106.4061966,239.419281,109.8945999,237.336792,111.4929962,233.8088989z"/>
	<path class="st0" d="M90.3183975,257.2453918c-4.8297958-2.1853943-10.5036011-0.0514832-12.702095,4.7663879
		c-2.1854019,4.8178101-0.0513992,10.4916992,4.7663956,12.6890259c1.2779999,0.5881958,2.6324997,0.855896,3.9618988,0.855896
		c3.6414032,0,7.1179047-2.0825195,8.728302-5.6224365C97.2570038,265.1164856,95.1362,259.442688,90.3183975,257.2453918z"/>
	<path class="st0" d="M65.9494019,310.8381958c1.2911987,0.5881958,2.6456985,0.8559875,3.9618988,0.8559875
		c3.6415024,0,7.1298981-2.0825806,8.740303-5.6224976c2.1852951-4.8177795,0.0513992-10.4916077-4.7665024-12.6889038
		c-4.8178024-2.1853943-10.5036011-0.0513916-12.689003,4.7664185
		C59.0107994,302.96698,61.1315994,308.6408997,65.9494019,310.8381958z"/>
	<path class="st0" d="M131.6573944,166.2872772c1.2911072,0.5882111,2.6325073,0.8692169,3.9618988,0.8692169
		c3.6414032,0,7.1179047-2.0957031,8.728302-5.6223907c2.1973114-4.8179016,0.0633087-10.5037079-4.7532959-12.6890106
		c-4.8179016-2.1972961-10.5036011-0.0634003-12.689003,4.7532959
		C124.7055969,158.4161987,126.8395996,164.1019897,131.6573944,166.2872772z"/>
	<path class="st0" d="M115.2360992,202.4246979c1.2779999,0.5881958,2.6324997,0.8692017,3.9618988,0.8692017
		c3.6414032,0,7.1179047-2.0957031,8.728302-5.622406c2.1853027-4.8179016,0.0513992-10.5036011-4.7665024-12.6889954
		c-4.8177948-2.1985016-10.4916-0.0634003-12.6889954,4.7532959
		C108.2854996,194.5535889,110.4194031,200.2406006,115.2360992,202.4246979z"/>
	<path class="st0" d="M321.4565125,85.7182007c-4.6899109-2.4412003-10.4785156-0.6133041-12.9197083,4.0765991
		c-2.4530945,4.7030945-0.6133118,10.4784775,4.0766907,12.931694c1.4178162,0.7280045,2.9265137,1.0735016,4.408905,1.0735016
		c3.4634094,0,6.8106995-1.8780975,8.5107117-5.1620941C327.9874878,93.9478989,326.1596069,88.1594009,321.4565125,85.7182007z"/>
	<path class="st0" d="M351.6271973,121.7921982c3.4634094,0,6.810791-1.8780975,8.5107117-5.1621017
		c2.4411926-4.6900024,0.6132812-10.4785004-4.0765991-12.9197006c-4.6899109-2.4412003-10.4785156-0.6133194-12.9185181,4.0765991
		c-2.453186,4.7030792-0.6264038,10.4916992,4.0765991,12.9317017
		C348.6242065,121.4478989,350.1448059,121.7921982,351.6271973,121.7921982z"/>
	<path class="st0" d="M252.2480927,49.7217979c-4.6898956-2.4412003-10.4784851-0.6133003-12.919693,4.0886002
		c-2.4411926,4.6898766-0.6132965,10.4784966,4.0767059,12.9196968c1.4178009,0.7411804,2.9264984,1.0867004,4.4089966,1.0867004
		c3.4633026,0,6.8106995-1.8780975,8.5237885-5.1620979C258.7778931,57.9503975,256.9512024,52.1749992,252.2480927,49.7217979z"/>
	<path class="st0" d="M394.7427979,134.6353912c2.4411011-4.7031097,0.6131897-10.4915924-4.0766907-12.9315948
		c-4.6899109-2.4412003-10.4785156-0.6132965-12.9185181,4.0765991c-2.453186,4.7030945-0.6264038,10.4916992,4.0765991,12.9317017
		c1.4059143,0.7279968,2.9266052,1.0867004,4.4089966,1.0867004
		C389.6942139,139.7975922,393.0427856,137.9062805,394.7427979,134.6353912z"/>
	<path class="st0" d="M286.8529053,67.7259979c-4.6899109-2.4412003-10.4785156-0.6132965-12.9197083,4.0765762
		c-2.4411926,4.703125-0.6133118,10.4785233,4.0766907,12.9197006c1.4178162,0.7412262,2.9265137,1.0867233,4.408905,1.0867233
		c3.4634094,0,6.8106995-1.8780975,8.5238953-5.1621017C293.3826904,75.9557953,291.5548096,70.1671982,286.8529053,67.7259979z"/>
	<path class="st0" d="M473.3811951,283.9909973c5.1884155-1.0353088,8.5490112-6.0827332,7.5137024-11.2712097
		c-1.0353088-5.2004089-6.0827026-8.5621033-11.2712097-7.5267944c-5.2003784,1.0352783-8.5620728,6.0957947-7.5267944,11.2831116
		c0.9074097,4.5487976,4.9194946,7.7049866,9.3918152,7.7049866
		C472.116394,284.1821899,472.7427979,284.1188965,473.3811951,283.9909973z"/>
	<path class="st0" d="M485.8537903,346.3885803c-5.188385,1.0353088-8.5489807,6.0827026-7.5137024,11.2831116
		c0.9074097,4.5487976,4.9075012,7.704895,9.3799133,7.704895c0.6264038,0,1.264801-0.063324,1.9043884-0.1911926
		c5.1884155-1.0353088,8.5490112-6.0827026,7.5137024-11.2831116
		C496.101593,348.7138977,491.0541992,345.3532715,485.8537903,346.3885803z"/>
	<path class="st0" d="M479.6048889,324.7800903c0.6265259,0,1.2649231-0.0634155,1.8912964-0.1912842
		c5.1884155-1.0353088,8.5621033-6.0827026,7.5137024-11.2831116c-1.0352783-5.1884155-6.0827026-8.5490112-11.2710876-7.5137024
		c-5.1885071,1.0352783-8.5621948,6.0827026-7.5137024,11.2831116
		C471.1325073,321.6239014,475.1325989,324.7800903,479.6048889,324.7800903z"/>
	<path class="st0" d="M465.2542114,243.3931885c5.2003784-1.0353088,8.5621033-6.0826874,7.5267944-11.2711945
		c-1.0353088-5.2003937-6.0957947-8.5621033-11.28302-7.5267944c-5.1884766,1.0352936-8.5489807,6.0957947-7.5136719,11.2830811
		c0.9073792,4.5488129,4.9075012,7.7049103,9.3917847,7.7049103
		C463.9894104,243.5843964,464.6278076,243.5210876,465.2542114,243.3931885z"/>
	<path class="st0" d="M233.7454987,398.5252686c0.3574066,0.0383301,0.716095,0.0634155,1.0735016,0.0634155
		c4.8179016,0,8.970993-3.6294861,9.5077972-8.5358887c0.5881958-5.2518005-3.2075043-9.993103-8.4593048-10.5801086
		c-5.2649994-0.5881958-10.0050964,3.207489-10.5932922,8.4725037
		C224.697998,393.196991,228.4804993,397.9371948,233.7454987,398.5252686z"/>
	<path class="st0" d="M184.6501007,383.4202881c-0.5881958,5.2648926,3.2075043,10.0049744,8.4593048,10.5932007
		c0.3574982,0.0382996,0.716095,0.0513916,1.0735931,0.0513916c4.8177948,0,8.9710083-3.6163025,9.5196991-8.5238037
		c0.5749969-5.2649841-3.2075043-9.9931946-8.4725037-10.5802002
		C189.9653015,374.3739014,185.2250977,378.1684875,184.6501007,383.4202881z"/>
	<path class="st0" d="M153.5469055,389.5542908c4.8297882,0,8.970993-3.6294861,9.5196991-8.5238953
		c0.5881958-5.2648926-3.2075043-10.0050049-8.4724121-10.5801086c-5.2518921-0.5881958-9.9931946,3.207489-10.5801849,8.4592896
		c-0.5882111,5.2650146,3.207489,10.005127,8.4724884,10.5802002
		C152.8439941,389.5411987,153.2014008,389.5542908,153.5469055,389.5542908z"/>
	<path class="st0" d="M276.4891968,383.9832764c-5.2518005-0.5750122-9.9931946,3.2075195-10.5802002,8.4725037
		c-0.5881042,5.2649231,3.2076111,10.0050964,8.4725037,10.5801086c0.3575134,0.0382996,0.716095,0.063385,1.0603943,0.063385
		c4.8179016,0,8.9710083-3.6294861,9.5198059-8.5238953C285.5367126,389.3115845,281.7542114,384.5715027,276.4891968,383.9832764z"
		/>
	<path class="st0" d="M357.7481995,393.0177002c-5.2518921-0.5881958-9.9931946,3.207489-10.5802002,8.4725037
		c-0.5881958,5.2518005,3.2076111,9.9930725,8.4725037,10.5800781c0.3574829,0.0382996,0.716095,0.0634155,1.0603943,0.0634155
		c4.8298035,0,8.9710083-3.6296082,9.5197144-8.5359192C366.8075867,398.3459778,363.013092,393.605896,357.7481995,393.0177002z"/>
	<path class="st0" d="M317.1252136,388.5070801c-5.2649231-0.5881958-10.0050049,3.2075195-10.5801086,8.4593201
		c-0.5881958,5.2649841,3.194397,10.0050964,8.4592896,10.5932922c0.3575134,0.038208,0.716095,0.0513916,1.0736084,0.0513916
		c4.8178101,0,8.9710083-3.616394,9.5076904-8.5238953C326.1727905,393.8222656,322.3771057,389.0940857,317.1252136,388.5070801z"
		/>
	<path class="st0" d="M398.3841858,397.5282898c-5.2648926-0.5750122-10.0050964,3.207489-10.5800781,8.4725037
		c-0.5881958,5.2648926,3.207489,9.993103,8.4592896,10.5800781c0.3575134,0.0383301,0.716095,0.0634155,1.0736084,0.0634155
		c4.8177795,0,8.9708862-3.6296082,9.5196838-8.5238953C407.4317017,402.8565979,403.6492004,398.1164856,398.3841858,397.5282898z"
		/>
	<path class="st0" d="M439.0202942,402.052002c-5.2649841-0.5881042-10.0050964,3.2075806-10.5932922,8.459259
		c-0.5750122,5.2650146,3.207489,10.005127,8.4725037,10.5802307c0.3573914,0.0513916,0.716095,0.063385,1.0734863,0.063385
		c4.8179016,0,8.9710083-3.6296082,9.5078125-8.5238953C448.0665894,407.3683777,444.2720947,402.6270752,439.0202942,402.052002z"
		/>
	<path class="st0" d="M113.9712982,365.9266052c-5.2649994-0.5750122-10.0050964,3.207489-10.5802002,8.4724731
		c-0.5881958,5.2649231,3.2075043,9.993103,8.4593048,10.5801086c0.3574982,0.0382996,0.716095,0.0634155,1.0736008,0.0634155
		c4.8177948,0,8.970993-3.6296082,9.5196991-8.5239258C123.0187988,371.2561035,119.2230988,366.514679,113.9712982,365.9266052z"/>
	<path class="st0" d="M104.6810989,442.5469971c-4.0252991,3.4501953-4.4854965,9.4945984-1.0473022,13.5066833
		c1.9044037,2.2236023,4.5871048,3.3474121,7.2842026,3.3474121c2.2104034,0,4.4208984-0.7543945,6.2357025-2.3002014
		c4.012001-3.4501038,4.4854965-9.4946289,1.0353012-13.5198059
		C114.7507019,439.5701904,108.6942978,439.0968018,104.6810989,442.5469971z"/>
	<path class="st0" d="M79.635498,413.3231812c-4.0252991,3.4501953-4.4854965,9.4945984-1.0472946,13.5198059
		c1.9043961,2.2105103,4.5870972,3.3486023,7.2841949,3.3486023c2.2104034,0,4.4208984-0.7663269,6.2357025-2.313324
		c4.012001-3.4369812,4.4853973-9.4945679,1.035202-13.5066833C89.705101,410.3451843,83.6474991,409.8848877,79.635498,413.3231812
		z"/>
	<path class="st0" d="M154.7734985,500.9839783c-4.0251923,3.4501953-4.4855042,9.4945984-1.0473022,13.5198059
		c1.9045105,2.2105103,4.587204,3.3474121,7.2842102,3.3474121c2.210495,0,4.4208984-0.7662964,6.2356873-2.3132935
		c4.0121002-3.4501343,4.4855042-9.4946289,1.0353088-13.5198059
		C164.8430939,498.0059814,158.7855988,497.5457764,154.7734985,500.9839783z"/>
	<path class="st0" d="M193.3258057,531.2431641c-3.4502106-4.012085-9.4945984-4.4854736-13.5066986-1.0352783
		c-4.0252075,3.4370117-4.4855042,9.4946289-1.0473022,13.5067139c1.9044952,2.2105103,4.5871887,3.3485718,7.2841949,3.3485718
		c2.210495,0,4.4208984-0.7543945,6.2357025-2.3001709C196.3038025,541.3128052,196.7772064,535.2683716,193.3258057,531.2431641z"
		/>
	<path class="st0" d="M129.7279053,471.7720947c-4.0253067,3.4369812-4.4855042,9.4945984-1.0473022,13.5066833
		c1.9044037,2.2105103,4.5870972,3.3474121,7.2841949,3.3474121c2.2104034,0,4.4208984-0.754425,6.2357025-2.313324
		c4.0119934-3.4370728,4.4855042-9.4945984,1.0352936-13.5066833
		C139.7975006,468.782196,133.7400055,468.3218689,129.7279053,471.7720947z"/>
</g>
</svg>
