<?xml version="1.0" encoding="utf-8"?>
<!-- Generator: Adobe Illustrator 28.0.0, SVG Export Plug-In . SVG Version: 6.00 Build 0)  -->
<svg version="1.1" id="Layer_1" xmlns="http://www.w3.org/2000/svg" xmlns:xlink="http://www.w3.org/1999/xlink" x="0px" y="0px"
	 viewBox="0 0 612.0934448 612.0935059" style="enable-background:new 0 0 612.0934448 612.0935059;" xml:space="preserve">
<style type="text/css">
	.st0{fill:#567FCA;}
</style>
<g>
	<path class="st0" d="M609.2853394,595.7332153l-10.2322388-10.2321777c-3.743103-3.743103-9.8114014-3.743103-13.5532837,0
		c-3.743103,3.743103-3.743103,9.8114014,0,13.5532837l10.2321777,10.2321777
		c1.8710327,1.8710327,4.3241577,2.8070068,6.776123,2.8070068c2.4519043,0,4.9050903-0.9348755,6.776001-2.8070068
		C613.0297241,605.5446167,613.0297241,599.4750977,609.2853394,595.7332153z"/>
	<path class="st0" d="M57.2681236,43.7147255c-3.7430992-3.7430992-9.8114967-3.7430992-13.5533981,0
		c-3.7430992,3.7430992-3.7430992,9.8114014,0,13.553299l511.1038818,511.105072
		c1.8710327,1.8710327,4.3240967,2.8070068,6.776123,2.8070068c2.4519043,0,4.9050903-0.9348755,6.776001-2.8070068
		c3.743103-3.743103,3.743103-9.8114014,0-13.5532837L57.2681236,43.7147255z"/>
	<path class="st0" d="M16.3606243,2.8073249c-3.7430992-3.7430999-9.8113995-3.7430999-13.553299,0
		c-3.7430999,3.7431002-3.7430999,9.8113995,0,13.553299l10.2285995,10.2286015
		c1.8710003,1.8709984,4.3241005,2.8070984,6.7761002,2.8070984s4.9050999-0.9348984,6.7761002-2.8070984
		c3.7430992-3.743,3.7430992-9.8114014,0-13.5533009L16.3606243,2.8073249z"/>
	<path class="st0" d="M534.3959961,486.61203c1.8709106,1.8710022,4.3241577,2.8070068,6.776001,2.8070068
		c2.4520264,0,4.9051514-0.934906,6.776123-2.8070068c3.743103-3.743103,3.743103-9.8114014,0-13.5533142l-65.2597046-65.2597046
		c21.4579163-37.2467957,30.6680908-81.0377808,25.9590149-124.0588989
		c-5.0223083-45.8638916-25.7904053-89.1252899-58.480011-121.8136902
		c-32.688385-32.6884003-75.9497986-53.4565964-121.8114014-58.4799957
		c-43.0174866-4.7126999-86.8119965,4.4998016-124.0623932,25.9577026l-65.2597046-65.2596054
		c-3.7430878-3.7430992-9.8114014-3.7430992-13.553299,0c-3.7430954,3.743103-3.7430954,9.8114014,0,13.553299
		L534.3959961,486.61203z M326.269928,122.5002213c42.1434937,4.6146011,80.3002014,22.9356003,110.3453064,52.9784012
		c30.0439758,30.045105,48.3638,68.2017059,52.9783936,110.3465118
		c4.0802002,37.2623901-3.3546143,75.1560059-20.9880981,107.8885803L218.3789215,143.488327
		C251.1127319,125.8548279,289.0075378,118.4200287,326.269928,122.5002213z"/>
	<path class="st0" d="M77.6979218,125.4818268c-3.7430954-3.743103-9.8115005-3.743103-13.5533981,0
		c-3.7430992,3.743103-3.7430992,9.8114014,0,13.553299l65.259697,65.2595978
		c-21.4590988,37.2481079-30.6703949,81.0402069-25.9577942,124.0612946
		c5.0234985,45.8640137,25.7904053,89.1230164,58.4799957,121.8114014s75.951004,53.4565125,121.8138123,58.480011
		c7.3605957,0.8045959,14.7391968,1.2037964,22.1081848,1.2037964c35.702301,0,71.0769958-9.3738098,101.9530029-27.1615906
		l65.2585144,65.2584839c1.8710022,1.8709106,4.3240967,2.8070068,6.7760925,2.8070068
		c2.4519043,0,4.9050903-0.9348755,6.776001-2.8070068c3.743103-3.743103,3.743103-9.8115234,0-13.5534058L77.6979218,125.4818268z
		 M285.8263245,489.5936279c-42.1446991-4.6145935-80.3014069-22.9356079-110.3464966-52.978302
		c-30.0440063-30.0451965-48.3638-68.200592-52.9784012-110.3453979
		c-4.0802002-37.2623901,3.354599-75.157196,20.9881058-107.8910065l250.2254028,250.2266083
		C360.9811401,486.2390137,323.0875244,493.6774292,285.8263245,489.5936279z"/>
	<path class="st0" d="M207.2644196,98.1432266c1.8709106,1.8721008,4.3241119,2.8069992,6.776001,2.8069992
		c2.4520111,0,4.9051971-0.9348984,6.7761078-2.8069992c3.743103-3.743103,3.743103-9.8114014,0-13.553299l-10.222702-10.222702
		c-3.7429962-3.743103-9.8114014-3.743103-13.553299,0c-3.743103,3.743103-3.743103,9.8114014,0,13.553299L207.2644196,98.1432266z"
		/>
	<path class="st0" d="M91.3672256,223.6247253c2.4518967,0,4.905098-0.934906,6.776001-2.8070068
		c3.7430954-3.7430878,3.7430954-9.8114929,0-13.5533905l-10.222702-10.2226105
		c-3.743103-3.7430878-9.8114014-3.7430878-13.553299,0c-3.743103,3.743103-3.743103,9.8114014,0,13.5533142l10.222702,10.2226868
		C86.4608231,222.6898193,88.9140244,223.6247253,91.3672256,223.6247253z"/>
	<path class="st0" d="M404.8282166,513.9506226c-3.743103-3.743103-9.8114014-3.743103-13.5532837,0
		c-3.743103,3.743103-3.743103,9.8114014,0,13.5532837l10.2226868,10.2227173
		c1.8709106,1.8709717,4.3240967,2.8070068,6.776001,2.8070068c2.4519958,0,4.9052124-0.9348755,6.7760925-2.8070068
		c3.743103-3.743103,3.743103-9.8114014,0-13.5532837L404.8282166,513.9506226z"/>
	<path class="st0" d="M513.9506226,391.276123c-3.743103,3.743103-3.743103,9.8114014,0,13.5533142l10.2227173,10.2226868
		c1.8709106,1.8709106,4.3240967,2.8070068,6.776062,2.8070068c2.4519043,0,4.9051514-0.934906,6.776001-2.8070068
		c3.743103-3.743103,3.743103-9.8114014,0-13.5533142l-10.2225952-10.2226868
		C523.7608032,387.53302,517.6925049,387.53302,513.9506226,391.276123z"/>
	<path class="st0" d="M479.8348389,141.8421326c2.4518738,0,4.9050903-0.934906,6.776001-2.8070068l61.3372803-61.3373032
		c3.743103-3.7429962,3.743103-9.8114014,0-13.553299c-3.743103-3.7430992-9.8114014-3.7430992-13.5532837,0l-61.3373108,61.3373032
		c-3.743103,3.743103-3.743103,9.8114014,0,13.553299C474.929718,140.9072266,477.3828125,141.8421326,479.8348389,141.8421326z"/>
	<path class="st0" d="M446.8415222,121.1098251c0.7795105,0.1960983,1.5613098,0.289299,2.3323975,0.289299
		c4.2929993,0,8.2011108-2.907402,9.2901917-7.2625961l10.2227173-40.8919067
		c1.283905-5.1345978-1.8374939-10.3373947-6.9733887-11.6225967c-5.1298218-1.281498-10.3374023,1.8375015-11.6226196,6.9732971
		l-10.2225952,40.8919067C438.5843201,114.6231232,441.7081299,119.8259277,446.8415222,121.1098251z"/>
	<path class="st0" d="M550.4694214,150.3791199c-1.2839966-5.135788-6.4891968-8.2583923-11.6226196-6.9732971
		l-40.8918762,10.222702c-5.1358032,1.2828064-8.2572937,6.4878998-6.9732971,11.6226044
		c1.0891113,4.3551941,4.9959106,7.2625885,9.2901917,7.2625885c0.7687073,0,1.5516968-0.0931854,2.3323975-0.2892914
		l40.8919373-10.222702C548.631897,160.7178192,551.7546387,155.5138245,550.4694214,150.3791199z"/>
	<path class="st0" d="M125.4818268,473.0587158l-61.3373032,61.3372192c-3.7430992,3.743103-3.7430992,9.8114624,0,13.5534058
		c1.8710022,1.8720703,4.3241043,2.8070068,6.7761002,2.8070068c2.4520035,0,4.905098-0.9349365,6.7761002-2.8070068
		l61.3371964-61.3373108c3.743103-3.743103,3.743103-9.8114014,0-13.5533142
		C135.2932281,469.3156128,129.2249298,469.3156128,125.4818268,473.0587158z"/>
	<path class="st0" d="M165.2511292,490.9840393c-5.1298981-1.2852173-10.3374023,1.8373718-11.6226044,6.9732971
		l-10.222702,40.8919067c-1.283905,5.1347046,1.8375092,10.3374023,6.9734039,11.6225586
		c0.7794037,0.1960449,1.5612946,0.2893066,2.3323975,0.2893066c4.2929993,0,8.201004-2.9074707,9.2902069-7.2625732
		l10.2225952-40.8919983C173.5084229,497.4707336,170.3870239,492.2679138,165.2511292,490.9840393z"/>
	<path class="st0" d="M61.6232262,461.7147217c1.0890999,4.3551025,4.9959984,7.2626038,9.2901955,7.2626038
		c0.7686996,0,1.5518036-0.0932922,2.3324051-0.2893066l40.8918991-10.2226868
		c5.1359024-1.2827148,8.2573013-6.487915,6.9733963-11.6226196c-1.2839966-5.1357727-6.4903946-8.2607727-11.6225967-6.9732971
		l-40.8918991,10.2227173C63.4619255,451.3760376,60.339325,456.5800171,61.6232262,461.7147217z"/>
	<path class="st0" d="M341.8269348,153.3428192c-19.3778076,0-35.1416016,15.7638092-35.1416016,35.14151
		c0,19.3777924,15.7637939,35.1416016,35.1416016,35.1416016c19.3777771,0,35.1414795-15.7638092,35.1414795-35.1416016
		C376.9684143,169.1066284,361.2034302,153.3428192,341.8269348,153.3428192z M341.8269348,204.4573212
		c-8.8085022,0-15.9730225-7.1645966-15.9730225-15.9729919c0-8.8084106,7.1646118-15.9730072,15.9730225-15.9730072
		c8.8082886,0,15.9729919,7.1645966,15.9729919,15.9730072
		C357.7999268,197.2927246,350.6353149,204.4573212,341.8269348,204.4573212z"/>
	<path class="st0" d="M280.489624,458.7510376c13.7398071,0,24.9176941-11.1791077,24.9176941-24.9177246
		c0-13.7397766-11.1789856-24.9176025-24.9176941-24.9176025c-13.7398071,0-24.9176941,11.1790161-24.9176941,24.9176025
		C255.5707245,447.5719299,266.7498169,458.7510376,280.489624,458.7510376z M280.489624,428.0818176
		c3.1705017,0,5.7503052,2.579895,5.7503052,5.7503052c0,3.1705017-2.5798035,5.7503967-5.7503052,5.7503967
		c-3.1704102,0-5.7503052-2.579895-5.7503052-5.7503967C274.7393188,430.6617126,277.3192139,428.0818176,280.489624,428.0818176z"
		/>
	<path class="st0" d="M423.6095276,276.017334c-8.1030884,0-14.6950073,6.5918884-14.6950073,14.6949768
		c0,8.1031189,6.5919189,14.6950073,14.6950073,14.6950073c8.1029968,0,14.6950073-6.59198,14.6950073-14.6950073
		C438.3045349,282.6092224,431.7125244,276.017334,423.6095276,276.017334z"/>
	<path class="st0" d="M178.2605286,325.8538208c8.1029968,0,14.6949921-6.5918884,14.6949921-14.6950073
		c0-8.1029968-6.5919952-14.6949768-14.6949921-14.6949768s-14.6950073,6.59198-14.6950073,14.6949768
		C163.5655212,319.2619324,170.1586304,325.8538208,178.2605286,325.8538208z"/>
	<path class="st0" d="M398.1036377,224.8525238c-5.292511,0-9.6345215,4.3419952-9.6345215,9.6345062
		c0,5.2923889,4.3420105,9.634491,9.6345215,9.634491c5.2923889,0,9.634491-4.3421021,9.634491-9.634491
		C407.7381287,229.194519,403.3960266,224.8525238,398.1036377,224.8525238z"/>
	<path class="st0" d="M184.0108185,387.8295288c0,16.5588074,13.4709015,30.0296021,30.0296021,30.0296021
		c16.5588074,0,30.0297089-13.4707947,30.0297089-30.0296021s-13.4709015-30.0296021-30.0297089-30.0296021
		C197.4828186,357.7999268,184.0108185,371.2707214,184.0108185,387.8295288z M214.0404205,376.9684143
		c5.989502,0,10.8623047,4.8728027,10.8623047,10.8623047c0,5.9894104-4.8728027,10.8623047-10.8623047,10.8623047
		c-5.9893951,0-10.8621979-4.8728943-10.8621979-10.8623047
		C203.1782227,381.841217,208.0510254,376.9684143,214.0404205,376.9684143z"/>
</g>
</svg>
