<?xml version="1.0" encoding="utf-8"?>
<!-- Generator: Adobe Illustrator 28.0.0, SVG Export Plug-In . SVG Version: 6.00 Build 0)  -->
<svg version="1.1" id="Layer_1" xmlns="http://www.w3.org/2000/svg" xmlns:xlink="http://www.w3.org/1999/xlink" x="0px" y="0px"
	 viewBox="0 0 612.0923462 611.9680786" style="enable-background:new 0 0 612.0923462 611.9680786;" xml:space="preserve">
<style type="text/css">
	.st0{fill:#567FCA;}
</style>
<g>
	<path class="st0" d="M342.4624634,111.5064545c6.9601135,5.1323013,13.9765015,10.5131989,20.8529968,15.9909058
		c1.8255005,1.4537964,4.0049133,2.1602936,6.1699219,2.1602936c2.915802,0,5.8029785-1.2791901,7.7599792-3.7382965
		c3.4119263-4.2823029,2.7054138-10.5179977-1.5768738-13.9299011
		c-7.0689087-5.6307983-14.2814026-11.1623001-21.4388123-16.4404984
		c-4.4053955-3.2505035-10.6123962-2.3132019-13.8605957,2.0944977
		C337.1173706,102.0500565,338.0558777,108.2571564,342.4624634,111.5064545z"/>
	<path class="st0" d="M216.4764709,457.1909485c-10.7259979-9.5867004-21.3826904-19.6670837-31.6770935-29.9614868
		C114.5724716,357.0024414,61.7530746,277.9946594,36.0726738,204.7574615
		c-24.8327999-70.8175049-21.2056999-127.1206055,10.210701-158.538208
		c30.139698-30.1396008,83.7420959-34.6800995,150.9311981-12.7821999
		c5.2064056,1.6951981,10.8001099-1.1489029,12.4965057-6.354002c1.6965027-5.2051983-1.1488037-10.8000984-6.3540039-12.4964991
		C128.7115784-9.7406435,67.9493713-3.4845436,32.2638741,32.2009583
		C-4.8371267,69.3019562-10.1284266,132.9129639,17.3631725,211.3171539
		c25.7821026,73.5253143,77.6306992,152.3610077,146.4517059,222.8795929l-65.6829071,65.6829224
		c-3.8710022,3.8710022-3.8710022,10.1485901,0,14.0184021c1.9355011,1.9354858,4.4723969,2.9038086,7.009201,2.9038086
		c2.5368958,0,5.0737-0.9671021,7.009201-2.9038086l65.6876984-65.6877136
		c8.338501,8.1354065,16.8563995,16.1057129,25.4244995,23.7640991c1.8912964,1.6903992,4.2512054,2.5213013,6.6040039,2.5213013
		c2.7245026,0,5.4358978-1.1166077,7.3940887-3.305603C220.9093781,467.1063538,220.5578766,460.8407593,216.4764709,457.1909485z"
		/>
	<path class="st0" d="M269.6197815,500.4534607c-6.9577942-5.131012-13.9730072-10.5107117-20.8506012-15.9897156
		c-4.2811127-3.4119873-10.5180054-2.7053833-13.9299011,1.5769043c-3.4120026,4.282196-2.7053986,10.5179138,1.5767975,13.9299011
		c7.0690002,5.631897,14.2814026,11.1622925,21.4364014,16.4380188c1.7717896,1.305481,3.831604,1.9354858,5.8771057,1.9354858
		c3.0412903,0,6.0431824-1.3939209,7.9859009-4.0299683C274.963562,509.9086609,274.025177,503.7016602,269.6197815,500.4534607z"/>
	<path class="st0" d="M594.7285767,400.6500549c-25.7821045-73.5242004-77.6293945-152.3598938-146.4505005-222.8796997
		l65.6829224-65.6828995c3.8709717-3.8710022,3.8709717-10.1484985,0-14.0184021
		c-3.8710327-3.8709946-10.1486206-3.8709946-14.0184326,0l-65.6875916,65.687706
		c-8.3326111-8.1282043-16.8468933-16.0949097-25.4125977-23.7521057
		c-4.0826111-3.6497955-10.3482056-3.2995911-13.9969177,0.7843018c-3.6497803,4.0814056-3.2971802,10.3493958,0.7843018,13.9967957
		c8.2931213,7.4121094,16.5361023,15.1218109,24.6068115,22.991806l-13.7995911,13.7996063
		c-33.2072144-32.0871124-69.7212219-59.6732025-106.1072998-80.1066055
		c-4.7736206-2.6791-10.816803-0.9850998-13.4971008,3.7896957c-2.6802979,4.7737045-0.9851074,10.8169022,3.7897034,13.4972076
		c34.8390808,19.5643005,69.861084,46.0240936,101.7927856,76.8427887l-12.4295959,12.4296112
		c-39.1238098-37.4107056-82.8034973-65.3912048-123.8676147-79.2098999
		c-45.8985901-15.4458084-83.6068878-11.5198059-106.180191,11.0534973
		c-22.5744934,22.5733032-26.4993973,60.281601-11.0535889,106.1802826
		c14.6591949,43.5638123,45.2507019,90.072113,86.1377869,130.9580078s87.395401,71.4786987,130.9581146,86.1378174
		c18.4380798,6.2045898,35.5503845,9.2829895,50.8957825,9.2829895c22.8531189,0,41.7789001-6.8309937,55.2844238-20.3364868
		c22.574585-22.5733032,26.4993896-60.2816162,11.0535889-106.1802979
		c-13.8186951-41.0652161-41.7993164-84.7450256-79.2098999-123.8676147l12.4295044-12.4295044
		c49.0929871,50.8228149,85.6320801,107.5168152,103.3027039,160.5310059
		c17.7243652,53.1708069,14.2456055,95.6921997-9.7911072,119.730011
		c-26.6631165,26.6654968-76.6813965,27.8752747-137.2247925,3.3198853
		c-5.0713196-2.0574951-10.8539124,0.3861084-12.9125977,5.4598083c-2.0586243,5.0736694,0.3873901,10.8538818,5.4597778,12.9124756
		c31.1784973,12.6436157,60.1765137,18.9319458,85.5891113,18.9319458c30.2424011,0,55.4075928-8.9076538,73.1056824-26.605835
		c29.6254883-29.6254883,34.8044434-79.3520813,14.5814209-140.0187073
		c-18.6162109-55.8510742-56.8529053-115.2970886-108.0906067-168.2813873l13.8042908-13.8043976
		c66.7528992,68.4360962,116.9385986,144.6225891,141.7642212,215.4173889
		c24.8327637,70.8175049,21.2056885,127.1205139-10.2106934,158.5368958
		c-30.1564331,30.1552124-83.7946167,34.6849365-151.0316162,12.75c-5.2063904-1.6975708-10.8013,1.1464844-12.5000916,6.3493042
		c-1.698822,5.2052002,1.1464844,10.8013306,6.3493042,12.5001221
		c29.9590759,9.7730713,57.6765747,14.6220093,82.4424744,14.6209106c36.982605,0,67.3745117-10.8168945,88.7583008-32.2019043
		C616.928894,542.6651611,622.2213745,479.0541687,594.7285767,400.6500549z M454.4204712,362.2387695
		c12.9173889,38.3860779,10.686615,68.8700867-6.2810974,85.837677
		c-16.9675903,16.9677124-47.4515991,19.199707-85.8377075,6.2810974
		c-40.7221069-13.7038879-84.4963989-42.6001892-123.2626953-81.3664856s-67.6625977-82.5418091-81.3665009-123.2626953
		c-12.9172974-38.3861084-10.6865997-68.8701019,6.2810974-85.8377075
		c9.6919098-9.6918945,23.7902985-14.574295,41.2541046-14.574295c13.1121979,0,28.1228027,2.7543945,44.5823975,8.2942963
		c38.257019,12.8742981,79.2087097,39.1596069,116.17099,74.4398956l-12.4761963,12.4762115
		c-54.2717896-50.4403076-117.5493927-67.2837067-146.8652954-37.966507
		c-15.4673004,15.4673004-18.6663971,40.5917969-9.009201,70.7457123
		c8.9399109,27.918396,28.0618134,57.4901733,53.8426056,83.2709961
		c37.9892883,37.9892883,81.4992981,59.2344055,115.0556946,59.2344055c15.6907959,0,29.2095032-4.6469116,38.9623108-14.4020996
		c15.4672852-15.4673157,18.6665039-40.5918274,9.0093079-70.7458191
		c-8.1246033-25.3720093-24.6798096-52.1007996-46.9768982-76.1170959l12.4772949-12.4774017
		C415.2596741,283.0300598,441.5462646,323.9817505,454.4204712,362.2387695z M299.0360718,312.9927673
		c1.9355164,1.9354858,4.4724121,2.9037781,7.0092163,2.9037781c2.5368958,0,5.0737-0.9671021,7.0091858-2.9037781
		l13.8605957-13.8605957c17.5020142,20.4931946,22.3605042,40.0155945,17.3262939,45.0486755
		c-5.6319885,5.6271973-29.3744812-1.0986938-52.3363953-24.0593872
		c-22.9629822-22.9630127-29.6876831-46.7066956-24.0592957-52.3363037c1.2397156-1.2398071,3.3569031-1.879303,6.1507874-1.879303
		c8.5538025,0,23.4496155,6.0180969,38.8966064,19.209198l-13.8580933,13.8580933
		C295.1650696,302.8453674,295.1650696,309.1229553,299.0360718,312.9927673z M326.9556885,271.0547485
		c-27.9483032-24.4716949-58.3617249-32.0523987-73.1272125-17.2867889
		c-16.0531006,16.0530853-5.7084961,50.6064911,24.0593109,80.3742828
		c20.3221741,20.3222046,42.8703918,31.5897217,60.2433777,31.5897217c8.0755005,0,15.0357056-2.4376221,20.1296997-7.5303955
		c14.7644043-14.765625,7.1849976-45.1790161-17.2868042-73.1271973l12.5025024-12.5025024
		c20.0927124,21.7567749,34.9263,45.6618958,42.1231995,68.1371765c7.1730042,22.4000244,5.6619263,40.8728027-4.145874,50.680603
		c-9.8103027,9.8079224-28.28302,11.3189087-50.6807251,4.1459961
		c-24.9678955-7.9954834-51.7086792-25.3899841-75.2981873-48.9794006
		c-23.5895081-23.5894775-40.9851074-50.3315735-48.9794006-75.2982788
		c-7.1730042-22.4000092-5.6618958-40.8727112,4.1459961-50.680603c5.7203979-5.7204132,14.384201-8.6195068,25.0587006-8.6195068
		c7.6296997,0,16.2863007,1.4812012,25.6219025,4.4710999c22.4753113,7.1968994,46.3804016,22.0294037,68.137207,42.123291
		L326.9556885,271.0547485z"/>
	<path class="st0" d="M321.4719849,483.2108459c-37.4309082-21.0191956-75.0759125-49.9920044-108.8689117-83.7838745
		c-52.5957947-52.5957031-91.7494965-112.1206055-110.2437973-167.6095123
		c-17.7244034-53.1708069-14.2454987-95.6921997,9.7910995-119.7300034
		c26.6642914-26.6631012,76.6813965-27.8741989,137.2248993-3.3199005
		c5.0713043,2.0575027,10.8539124-0.3861008,12.9125061-5.4598007c2.0574951-5.0737-0.3872986-10.8538971-5.4598083-12.9125977
		C188.5436707,62.702755,130.7032776,65.5002594,98.1331711,98.0690536
		c-29.6254959,29.6256027-34.8043976,79.3521957-14.581398,140.0187988
		c19.449501,58.3497009,60.3031006,120.6278076,115.0341034,175.3574829
		c35.0554962,35.0555115,74.1923828,65.1581116,113.1798096,87.0523987
		c1.5362854,0.8619995,3.2015991,1.2720032,4.8453979,1.2720032c3.4680786,0,6.8334961-1.8230896,8.6517944-5.0604858
		C327.9419861,491.9343567,326.245575,485.8911438,321.4719849,483.2108459z"/>
</g>
</svg>
