<?xml version="1.0" encoding="utf-8"?>
<!-- Generator: Adobe Illustrator 28.0.0, SVG Export Plug-In . SVG Version: 6.00 Build 0)  -->
<svg version="1.1" id="Layer_1" xmlns="http://www.w3.org/2000/svg" xmlns:xlink="http://www.w3.org/1999/xlink" x="0px" y="0px"
	 viewBox="0 0 612.0946045 530.3129883" style="enable-background:new 0 0 612.0946045 530.3129883;" xml:space="preserve">
<style type="text/css">
	.st0{fill:#567FCA;}
</style>
<g>
	<path class="st0" d="M602.5089722,511.1420898h-14.3936768l-99.6265869-209.2175903
		c-1.5899963-3.3377991-4.9565125-5.4622192-8.6517944-5.4622192h-10.8634033v-92.6448822
		c0-89.8377991-73.0877991-162.9268036-162.9268188-162.9268036s-162.9267883,73.0877991-162.9267883,162.9268036v7.5316925
		l-38.9875031-38.9874878c-2.0514984-2.0515137-3.1824036-4.7796326-3.1824036-7.6811218v-33.6243896
		c28.503006-3.3246918,52.311203-21.3204956,60.8435059-46.8777924c0.9754944-2.924202,0.4853973-6.1364975-1.3150024-8.6374207
		c-1.8016968-2.5009995-4.6947937-3.9821777-7.7754974-3.9821777h-51.753006V58.482399
		c11.8712997-4.0097008,20.4453049-15.2449989,20.4453049-28.4527988C121.3953018,13.4707994,107.9244995,0,91.3656998,0
		S61.3372993,13.4707994,61.3372993,30.0296001c0,13.2077999,8.5741005,24.4430981,20.4453011,28.4527988v13.0774765H30.0296993
		c-3.0819988,0-5.9750996,1.4824219-7.7754993,3.9822235c-1.8005009,2.5009003-2.2894001,5.7131958-1.3150997,8.6373978
		c8.532299,25.5572968,32.3416977,43.5531006,60.8434982,46.8777847v33.6244202
		c0,8.0205994,3.1226959,15.5629883,8.7953033,21.234375l52.5419998,52.540802v58.0066223h-10.8623047
		c-3.6965027,0-7.0642014,2.1268005-8.6518021,5.4621887L23.9780998,511.1420898H9.5843
		c-5.2923999,0-9.5843,4.2905884-9.5843,9.5841675c0,5.2925415,4.2907,9.5843506,9.5843,9.5843506h40.8918991
		c5.2924995,0,9.584301-4.2906494,9.584301-9.5843506c0-5.2923584-4.2905998-9.5841675-9.584301-9.5841675h-5.2672997
		l15.5414009-32.6347046c0.0130997-0.0046997,0.0250969-0.0071106,0.0370979-0.0131226l124.4533997-50.4127808h77.8636932
		l-7.2458954,28.9835205c-0.7173004,2.8620911-0.0728912,5.8961792,1.7429962,8.2225952
		c1.8160095,2.3264771,4.6027222,3.685791,7.5544128,3.685791h81.7825928c2.9515991,0,5.7372131-1.359314,7.5542908-3.685791
		c1.8171082-2.3252258,2.4602966-5.359436,1.7430115-8.2225952l-7.2459106-28.9835205h77.8638l124.4533997,50.4127808
		c0.0131226,0.0048218,0.0250854,0.0072021,0.0371094,0.0131226l15.5402222,32.6347046h-5.2662354
		c-5.2923584,0-9.5841675,4.2905884-9.5841675,9.5841675c0,5.2925415,4.2905884,9.5843506,9.5841675,9.5843506h20.416687
		c0.0120239,0,0.0239258,0.0023804,0.0359497,0.0023804c0.0155029,0,0.0310059-0.0023804,0.0465698-0.0023804h20.3927002
		c5.2924805,0,9.5844116-4.2906494,9.5844116-9.5843506C612.0933228,515.4326782,607.8026733,511.1420898,602.5089722,511.1420898z
		 M91.3668976,19.1672993c5.9894028,0,10.8623047,4.8729,10.8623047,10.8623009s-4.8729019,10.8621998-10.8623047,10.8621998
		c-5.9893951,0-10.8621979-4.8728027-10.8621979-10.8621998C80.5046005,24.0401993,85.3775024,19.1672993,91.3668976,19.1672993z
		 M45.7659988,90.7271957h91.2007065c-9.8892059,13.2376785-26.9847031,21.7234039-45.5998077,21.7234039
		C72.7518997,112.4505997,55.6562996,103.9648743,45.7659988,90.7271957z M162.2872009,274.7389832h21.0885925
		c5.2924042,0,9.5842133-4.2906799,9.5842133-9.5842896c0-5.292511-4.2906036-9.5843048-9.5842133-9.5843048h-21.0885925
		v-51.7529907c0-30.6405182,9.6428986-59.069397,26.0426941-82.4222031h148.387207
		c5.292511,0,9.5842896-4.290596,9.5842896-9.584198c0-5.2925034-4.2905884-9.5842972-9.5842896-9.5842972H204.4259949
		c26.0331116-26.0391006,61.9793091-42.1674995,101.620697-42.1674995s75.5874939,16.1295967,101.6206055,42.1686745h-30.0618896
		c-5.292511,0-9.5843201,4.2906189-9.5843201,9.5843048c0,5.2924194,4.2906189,9.5842209,9.5843201,9.5842209h46.1568909
		c16.3996887,23.3527908,26.0426025,51.7817001,26.0426025,82.4221878v51.753006h-95.3406982
		c13.8342896-12.9496002,22.5028076-31.3529968,22.5028076-51.753006c0-39.1057892-31.8145142-70.9214935-70.9215088-70.9214935
		c-39.1071167,0-70.9216003,31.8144989-70.9216003,70.9214935c0,20.4000092,8.6685944,38.8034058,22.5028076,51.753006h-33.3650055
		c-5.292511,0-9.5843048,4.2905884-9.5843048,9.5842896c0,5.2924194,4.2906036,9.5843201,9.5843048,9.5843201h225.5420074
		v21.7232971h-287.51651V274.7389832z M254.2937012,203.8174896c0-28.5376892,23.2164917-51.753006,51.7529907-51.753006
		c28.5364075,0,51.7530212,23.216507,51.7530212,51.753006c0,28.5363922-23.2166138,51.7528992-51.7530212,51.7528992
		C277.5101929,255.5703888,254.2937012,232.3550873,254.2937012,203.8174896z M421.3999939,408.9128723H190.6934052
		l-25.4412994-93.2831726h281.5892029L421.3999939,408.9128723z M138.3092041,315.6296997h7.0737915l26.5041046,97.1792908
		l-98.9380035,40.0777893L138.3092041,315.6296997z M334.6632996,449.8047791h-57.2331848l5.4311829-21.7232971h46.3720093
		L334.6632996,449.8047791z M440.2062988,412.8103027l26.5040894-97.1794128h7.073822l65.3600769,137.2571106
		L440.2062988,412.8103027z"/>
</g>
</svg>
